<?xml version="1.0" encoding="UTF-8" standalone="no"?>
<!-- Created with Inkscape (http://www.inkscape.org/) -->

<svg
   xmlns:dc="http://purl.org/dc/elements/1.1/"
   xmlns:cc="http://creativecommons.org/ns#"
   xmlns:rdf="http://www.w3.org/1999/02/22-rdf-syntax-ns#"
   xmlns:svg="http://www.w3.org/2000/svg"
   xmlns="http://www.w3.org/2000/svg"
   xmlns:sodipodi="http://sodipodi.sourceforge.net/DTD/sodipodi-0.dtd"
   xmlns:inkscape="http://www.inkscape.org/namespaces/inkscape"
   id="svg2"
   version="1.1"
   inkscape:version="0.91 r13725"
   width="315"
   height="72.5"
   viewBox="0 0 315 72.5"
   sodipodi:docname="ArtimislyWordLogo.dk.svg">
  <metadata
     id="metadata8">
    <rdf:RDF>
      <cc:Work
         rdf:about="">
        <dc:format>image/svg+xml</dc:format>
        <dc:type
           rdf:resource="http://purl.org/dc/dcmitype/StillImage" />
        <dc:title></dc:title>
      </cc:Work>
    </rdf:RDF>
  </metadata>
  <defs
     id="defs6" />
  <sodipodi:namedview
     pagecolor="#ffffff"
     bordercolor="#666666"
     borderopacity="1"
     objecttolerance="10"
     gridtolerance="10"
     guidetolerance="10"
     inkscape:pageopacity="0"
     inkscape:pageshadow="2"
     inkscape:window-width="640"
     inkscape:window-height="480"
     id="namedview4"
     showgrid="false"
     inkscape:zoom="0.98412698"
     inkscape:cx="157.5"
     inkscape:cy="36.25"
     inkscape:window-x="20"
     inkscape:window-y="43"
     inkscape:window-maximized="0"
     inkscape:current-layer="svg2" />
  <path
     style="fill:#cccccc"
     d="m 218.12372,58.040567 c -3.94042,-1.197236 -7.10759,-3.489984 -7.10759,-5.145236 0,-0.603319 2.53125,-1.096944 5.625,-1.096944 4.16666,0 5.625,0.486111 5.625,1.875 0,1.03125 1.08483,1.875 2.41071,1.875 3.78083,0 6.5212,-3.581955 6.09429,-7.965881 -0.33339,-3.42359 -1.18171,-4.220959 -6.91535,-6.499905 -8.44553,-3.35684 -11.58965,-6.282613 -11.58965,-10.784766 0,-5.572574 4.944,-9.749448 11.54005,-9.749448 5.22664,0 10.95995,2.652654 10.95995,5.07088 0,0.648516 -2.53125,1.17912 -5.625,1.17912 -4.16666,0 -5.625,-0.486111 -5.625,-1.875 0,-2.400081 -1.23838,-2.369051 -4.79211,0.120075 -2.13334,1.494251 -2.75229,2.98302 -2.46563,5.930605 0.34608,3.5585 1.13555,4.235565 8.24084,7.067426 8.6919,3.46422 10.21956,5.063248 10.24776,10.726496 0.0346,6.947298 -8.53804,11.729162 -16.62327,9.272573 z m 1.64241,-3.74218 c 0,-0.6875 -0.5957,-1.25 -1.32378,-1.25 -0.72807,0 -0.97612,0.5625 -0.55122,1.25 0.4249,0.6875 1.0206,1.25 1.32377,1.25 0.30318,0 0.55123,-0.5625 0.55123,-1.25 z m 8.75,-29.301229 c 0,-0.303176 -0.5625,-0.898872 -1.25,-1.323771 -0.6875,-0.424899 -1.25,-0.176845 -1.25,0.551229 0,0.728073 0.5625,1.323771 1.25,1.323771 0.6875,0 1.25,-0.248053 1.25,-0.551229 z m -181.55238,28.363729 -2.177379,-5.3125 -9.993346,0 -9.993346,0 -1.920463,4.596313 c -1.3025,3.117322 -2.329778,4.186996 -3.192511,3.324263 -1.68562,-1.68562 12.687785,-34.795576 15.105152,-34.795576 2.500898,0 15.159092,29.045452 14.708467,33.75 -0.357124,3.728372 -0.371752,3.719361 -2.536574,-1.5625 z m -17.197621,-9.0625 c 0,-0.6875 -0.876948,-1.25 -1.948771,-1.25 -1.071824,0 -1.601128,0.5625 -1.176229,1.25 0.424899,0.6875 1.301845,1.25 1.948771,1.25 0.646926,0 1.176229,-0.5625 1.176229,-1.25 z m 12.59375,-0.34375 c -0.154616,-1.494629 -1.86911,-1.205169 -2.40625,0.40625 -0.275,0.825 0.175,1.275 1,1 0.825,-0.275 1.457813,-0.907812 1.40625,-1.40625 z m -3.916407,-1.846061 c 2.563218,-2.075569 2.606617,-2.423601 0.831882,-6.67114 -2.464336,-5.897988 -6.550669,-5.861233 -9.049355,0.0814 -1.553961,3.695784 -1.515962,4.42197 0.338608,6.471247 2.607111,2.880825 4.433611,2.908297 7.878865,0.1185 z M 36.016129,27.423387 c 0,-1.03125 -0.5625,-1.875 -1.25,-1.875 -0.6875,0 -1.25,0.84375 -1.25,1.875 0,1.03125 0.5625,1.875 1.25,1.875 0.6875,0 1.25,-0.84375 1.25,-1.875 z m 85.000001,12.591842 0,-18.033158 10.65625,-0.404342 c 8.76799,-0.332693 10.27612,-0.127472 8.51109,1.158158 -1.17984,0.859375 -3.9681,1.5625 -6.19614,1.5625 -3.01785,0 -4.69174,0.899876 -6.56351,3.528541 l -2.51254,3.528541 3.17149,3.420313 c 1.80295,1.944397 4.33375,3.328737 5.86492,3.208095 9.71285,-0.765281 10.74858,1.391331 1.20684,2.51288 -4.3698,0.513632 -6.37214,1.503269 -8.31205,4.108146 l -2.55554,3.431518 3.59845,3.755982 c 2.66898,2.785802 4.74885,3.760928 8.0521,3.775125 2.4495,0.0105 5.29739,0.564414 6.32864,1.230859 1.28546,0.830726 -1.76051,1.217736 -9.6875,1.230859 l -11.5625,0.01914 0,-18.033158 z m 5.12975,12.662907 c -1.60436,-1.604358 -3.23132,-0.364379 -2.04355,1.557477 0.4601,0.744454 1.40919,0.99964 2.10909,0.567079 0.85375,-0.527649 0.83219,-1.226831 -0.0655,-2.124556 z m 0.49525,-10.879749 c 0.4249,-0.6875 -0.10438,-1.25 -1.17623,-1.25 -1.07182,0 -1.94877,0.5625 -1.94877,1.25 0,0.6875 0.5293,1.25 1.17623,1.25 0.64693,0 1.52387,-0.5625 1.94877,-1.25 z m -1.11979,-7.161459 c -1.27065,-1.270644 -2.31906,0.642365 -1.27652,2.329228 0.78754,1.274271 1.08197,1.275257 1.50537,0.005 0.2895,-0.868482 0.18651,-1.918901 -0.22885,-2.334266 z m 0.49479,-8.463541 c 1.27446,-1.535635 1.18905,-1.875 -0.47194,-1.875 -1.11544,0 -2.02806,0.84375 -2.02806,1.875 0,1.03125 0.21237,1.875 0.47194,1.875 0.25957,0 1.1722,-0.84375 2.02806,-1.875 z m 38.73097,19.474481 c -6.46575,-15.142362 -8.73097,-15.681922 -8.73097,-2.079657 0,5.980323 -0.61608,9.816882 -1.83525,11.428764 -1.64075,2.169271 -1.83945,0.463271 -1.875,-16.098027 -0.0395,-18.430718 -0.0257,-18.522417 2.7341,-18.125 2.24867,0.323814 3.93834,3.18018 8.92452,15.086939 3.38289,8.078125 6.53094,14.6875 6.99568,14.6875 0.46474,0 3.58366,-6.75 6.93095,-15 5.31345,-13.096002 6.45337,-15 8.98049,-15 2.89293,0 2.89451,0.0099 2.89451,18.125 0,9.96875 -0.50232,18.125 -1.11626,18.125 -1.91343,0 -2.63374,-3.617577 -2.63374,-13.227234 0,-8.0003 -0.30019,-9.271892 -2.1875,-9.266395 -1.58208,0.0046 -3.54981,3.2912 -7.10976,11.875 -2.70724,6.527746 -5.31703,11.868629 -5.79953,11.868629 -0.48249,0 -3.26,-5.580234 -6.17224,-12.400519 z m 21.26903,-16.423252 c 0,-1.415574 -0.5625,-2.226128 -1.25,-1.801229 -0.6875,0.424899 -1.25,1.583095 -1.25,2.573771 0,0.990676 0.5625,1.801229 1.25,1.801229 0.6875,0 1.25,-1.158198 1.25,-2.573771 z m -28.29796,-0.551229 c -0.39574,-1.03125 -0.94058,-1.875 -1.21078,-1.875 -0.27018,0 -0.49126,0.84375 -0.49126,1.875 0,1.03125 0.54485,1.875 1.21077,1.875 0.66592,0 0.88699,-0.84375 0.49127,-1.875 z m 85.79796,11.096944 c 0,-16.105433 0.22288,-18.093089 1.875,-16.721944 1.43509,1.191019 1.875,4.452933 1.875,13.903056 0,9.874914 0.358,12.346944 1.78806,12.346944 0.98344,0 1.96781,1.265625 2.1875,2.8125 0.32651,2.299016 1.3123,2.884805 5.39944,3.208532 9.68592,0.767189 7.61916,2.728968 -2.875,2.728968 l -10.25,0 0,-18.278056 z m 6.25,13.204285 c 0,-0.646927 -0.5625,-1.176229 -1.25,-1.176229 -0.6875,0 -1.25,0.876947 -1.25,1.948771 0,1.071824 0.5625,1.601128 1.25,1.176229 0.6875,-0.424899 1.25,-1.301845 1.25,-1.948771 z M 58.794308,39.077191 l 0.346821,-17.721198 8.60195,0.313306 c 4.731072,0.172318 9.673835,0.974982 10.983918,1.783697 5.004109,3.089043 4.264549,12.600111 -1.191264,15.320127 -4.472228,2.229649 -4.465109,2.448919 0.322501,9.933159 2.503331,3.913336 4.241396,7.425271 3.862366,7.8043 -1.179121,1.179122 -5.702599,-3.715175 -9.21687,-9.972441 -2.741905,-4.882043 -3.997124,-5.987447 -6.800101,-5.988483 -3.284218,-0.0012 -3.4375,0.272867 -3.4375,6.146495 0,6.732225 -0.890037,10.102234 -2.668056,10.102234 -0.662984,0 -1.003608,-7.509996 -0.803765,-17.721196 z m 17.805347,-3.494384 c 1.054062,-0.874793 1.916474,-3.189366 1.916474,-5.143496 0,-4.088694 -2.896693,-6.140924 -8.667824,-6.140924 -2.998842,0 -3.832176,0.543642 -3.832176,2.5 0,1.388889 -0.833334,2.5 -1.875,2.5 -1.322051,0 -1.875,1.337115 -1.875,4.534036 l 0,4.534038 6.208526,-0.596561 c 3.41469,-0.328109 7.07094,-1.3123 8.125,-2.187093 z M 64.766129,25.474616 c 0,-0.646927 -0.5625,-1.176229 -1.25,-1.176229 -0.6875,0 -1.25,0.876947 -1.25,1.948771 0,1.071824 0.5625,1.601128 1.25,1.176229 0.6875,-0.424899 1.25,-1.301845 1.25,-1.948771 z M 99.359706,55.04226 c -0.46396,-1.209088 -0.84358,-8.621087 -0.84358,-16.471107 l 0,-14.272766 -4.92623,0 c -2.70942,0 -5.25065,-0.524927 -5.64717,-1.166506 -0.62536,-1.011854 23.943774,-2.577372 25.490974,-1.624257 0.29841,0.183832 -1.24846,1.010278 -3.4375,1.836548 -2.42098,0.913819 -3.98007,2.374269 -3.98007,3.728263 0,1.224273 -0.84375,2.225952 -1.875,2.225952 -1.5252,0 -1.89139,2.157102 -1.96286,11.5625 -0.094,12.37401 -1.26031,18.242104 -2.818554,14.181373 z m 5.406424,-29.567644 c 0,-0.646927 -0.5625,-1.176229 -1.25,-1.176229 -0.6875,0 -1.25,0.876947 -1.25,1.948771 0,1.071824 0.5625,1.601128 1.25,1.176229 0.6875,-0.424899 1.25,-1.301845 1.25,-1.948771 z m 95,14.522542 c 0,-16.10907 1.32918,-22.490369 2.97281,-14.272232 0.98939,4.946988 0.98199,24.556853 -0.0113,28.260961 -1.8367,6.855807 -2.96156,1.543666 -2.96156,-13.988729 z m 76.25,10.147429 c 0,-5.766853 -0.76274,-7.845966 -5.72199,-15.59732 -3.14709,-4.918935 -5.5006,-9.94035 -5.23001,-11.1587 0.35961,-1.619224 1.61277,-0.450008 4.658,4.345994 3.29491,5.189225 4.51921,6.26807 5.85503,5.159443 1.25011,-1.037508 2.13972,-1.02764 3.42371,0.03797 1.39456,1.157384 2.3854,0.329464 5.0527,-4.221943 3.00488,-5.127454 5.71256,-7.315505 5.71256,-4.616277 0,0.574955 -2.51921,4.93433 -5.59825,9.6875 -4.96248,7.66066 -5.60129,9.458397 -5.625,15.829628 -0.0147,3.953125 -0.58925,7.1875 -1.27675,7.1875 -0.6875,0 -1.25,-2.99421 -1.25,-6.6538 z m 2.5,-13.3462 c 0,-0.6875 -0.5625,-1.25 -1.25,-1.25 -0.6875,0 -1.25,0.5625 -1.25,1.25 0,0.6875 0.5625,1.25 1.25,1.25 0.6875,0 1.25,-0.5625 1.25,-1.25 z"
     id="path3338"
     inkscape:connector-curvature="0" />
</svg>
