<?xml version="1.0" encoding="UTF-8" standalone="no"?>
<!-- Created with Inkscape (http://www.inkscape.org/) -->

<svg
   xmlns:dc="http://purl.org/dc/elements/1.1/"
   xmlns:cc="http://creativecommons.org/ns#"
   xmlns:rdf="http://www.w3.org/1999/02/22-rdf-syntax-ns#"
   xmlns:svg="http://www.w3.org/2000/svg"
   xmlns="http://www.w3.org/2000/svg"
   xmlns:sodipodi="http://sodipodi.sourceforge.net/DTD/sodipodi-0.dtd"
   xmlns:inkscape="http://www.inkscape.org/namespaces/inkscape"
   id="svg2"
   version="1.1"
   inkscape:version="0.91 r13725"
   width="447.05884"
   height="527.05884"
   viewBox="0 0 447.05884 527.05884"
   sodipodi:docname="Artemisly.ornate.Logo.svg">
  <metadata
     id="metadata8">
    <rdf:RDF>
      <cc:Work
         rdf:about="">
        <dc:format>image/svg+xml</dc:format>
        <dc:type
           rdf:resource="http://purl.org/dc/dcmitype/StillImage" />
        <dc:title></dc:title>
      </cc:Work>
    </rdf:RDF>
  </metadata>
  <defs
     id="defs6" />
  <sodipodi:namedview
     pagecolor="#ffffff"
     bordercolor="#666666"
     borderopacity="1"
     objecttolerance="10"
     gridtolerance="10"
     guidetolerance="10"
     inkscape:pageopacity="0"
     inkscape:pageshadow="2"
     inkscape:window-width="640"
     inkscape:window-height="480"
     id="namedview4"
     showgrid="false"
     inkscape:zoom="0.27861111"
     inkscape:cx="423.52942"
     inkscape:cy="423.52942"
     inkscape:window-x="0"
     inkscape:window-y="23"
     inkscape:window-maximized="0"
     inkscape:current-layer="svg2" />
  <path
     style="fill:#afb2b1"
     d="m 210.47415,508.92739 -7.65489,-7.70632 6.35707,-6.29074 6.35707,-6.29074 0,-8.07492 c 0,-6.82997 -0.33905,-8.38177 -2.19913,-10.06512 -2.1806,-1.97341 -2.25737,-1.9302 -9.11268,5.13003 -8.54404,8.79942 -10.92348,9.23263 -10.92348,1.98873 0,-2.82229 -0.30958,-9.49288 -0.68796,-14.82353 l -0.68797,-9.69207 -13.60615,0 -13.60616,0 0,-2.55882 c 0,-1.40735 0.41251,-2.71764 0.91668,-2.91177 0.50417,-0.19411 3.65097,-2.86477 6.99288,-5.93479 7.86269,-7.223 7.07105,-8.71226 -4.63117,-8.71226 l -8.10938,0 -6.29074,6.35707 -6.29074,6.35707 -7.70633,-7.6549 -7.70632,-7.6549 7.64978,-7.70118 7.64978,-7.70117 6.40892,6.35194 6.40891,6.35195 8.0133,0 c 6.34959,0 8.36873,-0.39275 9.72527,-1.89173 1.60738,-1.77613 0.9186,-2.68275 -11.27194,-14.83701 l -12.98394,-12.94528 -3.06396,3.19809 -3.06397,3.19809 -3.2735,-3.1728 -3.27351,-3.17281 -7.84953,7.90226 c -6.93229,6.97887 -8.04379,7.72647 -9.51194,6.39781 -1.37812,-1.24719 -1.53745,-3.00794 -0.93173,-10.29643 0.40187,-4.83558 0.76857,-11.05519 0.81487,-13.82137 l 0.0842,-5.02941 -14.29412,0 c -13.490817,0 -14.294117,-0.11662 -14.294117,-2.07522 0,-1.85948 5.394227,-7.64752 12.705877,-13.6335 l 2.64706,-2.16712 -2.89879,-2.93682 -2.89881,-2.93681 3.22122,-3.32345 3.2212,-3.32345 -6.2897,-5.44887 -6.289722,-5.44888 -16.877535,0 c -16.27287,0 -16.96003,0.0878 -19.17977,2.45059 -1.26621,1.34783 -2.30221,3.32506 -2.30221,4.39385 0,1.7937 -0.74592,1.8903 -9.69207,1.25528 -5.33064,-0.37838 -11.28653,-0.68796 -13.23529,-0.68796 -3.07356,0 -3.54323,-0.35087 -3.54323,-2.64705 0,-1.45589 0.42934,-2.64706 0.95407,-2.64706 0.52473,0 3.45672,-2.88887 6.51553,-6.4197 l 5.56149,-6.41971 -5.414,-5.49206 -5.414,-5.49206 7.54478,-7.73145 7.54479,-7.73145 5.68217,5.61159 5.68219,5.6116 5.22576,-5.82133 c 3.16484,-3.52551 5.56358,-5.40374 6.08233,-4.76249 0.47111,0.58235 3.10883,3.18484 5.8616,5.7833 l 5.00503,4.72448 5.58794,-5.51852 5.58794,-5.51853 6.286577,6.35287 6.28657,6.35287 42.95976,0 42.95974,0 4.67621,4.7647 c 2.57191,2.62059 5.25476,4.76471 5.96187,4.76471 0.70713,0 3.46294,-2.48894 6.12405,-5.53099 l 4.83838,-5.53098 5.56726,5.48103 5.56726,5.48103 5.4801,-5.24416 5.48011,-5.24417 44.32077,0 44.32077,0 5.75261,-5.82496 5.75261,-5.82496 5.59358,5.52408 5.59357,5.52409 5.74899,-5.67757 5.74899,-5.67758 5.2911,5.71375 5.2911,5.71374 5.72534,-5.61379 5.72536,-5.61381 7.58772,7.73145 7.58772,7.73145 -5.29433,5.1045 c -2.91189,2.80748 -5.28432,5.42807 -5.27208,5.82353 0.0123,0.39546 2.63283,3.45934 5.82353,6.8086 3.1907,3.34926 5.80127,7.0419 5.80127,8.20588 0,1.96538 -0.70797,2.11631 -9.92647,2.11631 -5.45956,0 -11.41544,0.2978 -13.2353,0.66177 -2.47861,0.49572 -3.30882,0.27976 -3.30882,-0.86073 0,-0.83737 -1.33636,-2.80281 -2.9697,-4.36765 -2.90408,-2.78228 -3.26089,-2.84415 -16.14706,-2.79941 l -13.17736,0.0457 -7.10827,6.68847 -7.10828,6.68847 2.61947,2.46087 2.61946,2.46086 -2.86797,2.99353 -2.86797,2.99352 7.62149,6.95598 c 5.4386,4.96372 7.62148,7.68959 7.62148,9.51729 l 0,2.56129 -14.87562,0 -14.87562,0 0.16641,13.78318 c 0.22935,18.99698 -0.20503,19.3657 -10.61862,9.01319 l -8.07852,-8.03115 -2.52469,2.68741 -2.52468,2.6874 -2.77462,-2.65825 c -1.52604,-1.46203 -3.29047,-2.65825 -3.92096,-2.65825 -0.63048,0 -6.43284,5.65136 -12.8941,12.55857 -11.16545,11.93608 -11.6527,12.6446 -9.83,14.29412 1.38994,1.25787 3.94388,1.73555 9.2793,1.73555 l 7.36154,0 6.29074,-6.35707 6.29074,-6.35707 7.70632,7.65489 7.70633,7.6549 -7.64978,7.70118 -7.64978,7.70118 -6.40892,-6.35195 -6.40891,-6.35194 -7.2999,0 c -5.30609,0 -7.82866,0.4785 -9.23577,1.75192 -1.84951,1.67378 -1.65249,2.00838 4.41663,7.5006 4.99758,4.52256 6.35248,6.40723 6.35248,8.83631 l 0,3.08764 -13.28864,0 -13.28862,0 0.172,13.34351 c 0.23598,18.30719 -0.49038,18.94829 -10.02142,8.84487 -6.89333,-7.30729 -7.20029,-7.4983 -9.17614,-5.71018 -1.67673,1.51741 -2.04424,3.29062 -2.04424,9.86329 l 0,8.0133 6.35195,6.40891 6.35194,6.40892 -7.70117,7.64978 -7.70118,7.64978 -7.65491,-7.70633 z m 11.72678,-11.57409 -3.92588,-4.02047 -4.02047,3.92588 -4.02047,3.92589 3.92588,4.02047 3.92589,4.02047 4.02047,-3.92589 4.02047,-3.92588 -3.92589,-4.02047 z m -7.72635,-50.55219 0,-11.11931 -8.47059,8.42091 c -8.39477,8.34554 -8.47059,8.46956 -8.47059,13.85679 0,2.98974 0.30817,7.68423 0.68483,10.4322 l 0.68482,4.99632 7.78577,-7.7338 7.78576,-7.7338 0,-11.11931 z m 13.80727,-1.58097 -8.51315,-8.51315 0,9.33605 0,9.33604 8.20588,8.89931 8.20588,8.89931 0.30727,-9.7222 0.30727,-9.72219 -8.51315,-8.51317 z m -8.14703,20.40802 c -1.65584,-1.82969 -1.89334,-1.84154 -3.72303,-0.18568 -1.82969,1.65584 -1.84153,1.89333 -0.18568,3.72302 1.65584,1.82969 1.89333,1.84154 3.72302,0.18569 1.82969,-1.65585 1.84154,-1.89334 0.18569,-3.72303 z m 32.98682,-24.69039 -8.47059,-7.8687 -10.56173,-0.042 -10.56173,-0.042 7.88817,7.94117 7.88817,7.94118 11.14415,-0.0305 11.14415,-0.0305 -8.47059,-7.86869 z m -50.82353,-0.54094 7.35497,-7.41176 -9.70858,0 -9.70857,0 -7.99832,7.00351 c -4.39908,3.85194 -7.99832,7.18723 -7.99832,7.41176 0,0.22455 4.65836,0.40825 10.35192,0.40825 l 10.35193,0 7.35497,-7.41176 z m -51.03835,-13.98471 -3.92589,-4.02047 -4.02047,3.92589 -4.02047,3.92588 3.92589,4.02047 3.92588,4.02047 4.02047,-3.92588 4.02047,-3.92589 -3.92588,-4.02047 z m 139.7647,0 -3.92588,-4.02047 -4.02047,3.92589 -4.02047,3.92588 3.92588,4.02047 3.92589,4.02047 4.02047,-3.92588 4.02047,-3.92589 -3.92589,-4.02047 z m -107.94847,2.15722 c -1.65584,-1.82969 -1.89333,-1.84154 -3.72302,-0.18569 -1.82969,1.65584 -1.84154,1.89334 -0.18569,3.72303 1.65585,1.82969 1.89334,1.84153 3.72303,0.18568 1.82969,-1.65584 1.84154,-1.89333 0.18568,-3.72302 z m 73.05883,0 c -1.65584,-1.82969 -1.89334,-1.84154 -3.72303,-0.18569 -1.82968,1.65584 -1.84153,1.89334 -0.18568,3.72303 1.65584,1.82969 1.89333,1.84153 3.72302,0.18568 1.82969,-1.65584 1.84154,-1.89333 0.18569,-3.72302 z m -53.3073,-9.34898 -9,-8.39615 -10.03398,-0.0372 -10.03399,-0.0373 8.42091,8.47059 8.42091,8.47059 10.61308,-0.0373 10.61307,-0.0372 -9,-8.39615 z m 50.29412,0 8.42091,-8.47059 -11.13261,0 -11.13261,0 -4.74305,5.02941 c -2.60868,2.76618 -6.13433,6.57794 -7.83477,8.47059 l -3.09171,3.44118 10.54647,0 10.54646,0 8.42091,-8.47059 z m -17.51259,-23.26762 0.042,-11.09114 -7.94117,7.88817 -7.94118,7.88817 0.0305,11.67356 0.0305,11.67356 7.86869,-8.47058 7.8687,-8.47059 0.042,-11.09115 z m -21.14213,15.59115 -0.007,-10.85294 -8.41199,-9 -8.41199,-9 -0.0509,12.35277 -0.0509,12.35278 8.13963,7.50016 c 4.47679,4.1251 8.28856,7.50017 8.47059,7.50017 0.18202,0 0.3275,-4.88382 0.32329,-10.85294 z m -22.22763,-16.67647 0,-10.58824 -11.11765,0 -11.11765,0 0,10.58824 0,10.58823 11.11765,0 11.11765,0 0,-10.58823 z m 70.94117,0 0,-10.58824 -11.11764,0 -11.11765,0 0,10.58824 0,10.58823 11.11765,0 11.11764,0 0,-10.58823 z m 37.93491,-17.6568 c -3.49535,-3.5615 -5.26767,-4.5785 -7.97889,-4.5785 l -3.48543,0 0,9.36531 c 0,7.73276 0.33798,9.67118 1.93887,11.11995 1.06637,0.96507 2.16717,1.52636 2.44619,1.24734 0.27903,-0.27903 2.86095,1.88396 5.7376,4.80666 l 5.23028,5.31399 0.30243,-11.34812 0.30241,-11.34812 -4.49346,-4.57851 z m -156.75298,1.77444 c -0.26535,-7.03414 -0.54145,-7.97034 -2.41722,-8.19654 -1.28933,-0.15549 -4.25308,1.70822 -7.57707,4.76471 l -5.45941,5.02007 -0.67085,11.64706 -0.67084,11.64706 8.54748,-8.47059 8.54747,-8.47059 -0.29956,-7.94118 z m 139.99455,0.82062 0,-7.17356 -3.20013,0 c -2.27827,0 -4.56589,1.25891 -7.94118,4.37015 l -4.74105,4.37014 0,10.69159 0,10.69159 7.94118,-7.88817 7.94118,-7.88817 0,-7.17357 z m -123.46338,-1.48733 c -2.15756,-1.82256 -5.51682,-3.80296 -7.46503,-4.40089 l -3.54219,-1.08713 0,7.02138 0,7.02139 7.14706,7.20699 7.14706,7.20699 0.31797,-9.82748 0.31796,-9.82748 -3.92283,-3.31377 z m -11.69992,16.36863 c -1.65584,-1.82969 -1.89333,-1.84153 -3.72302,-0.18568 -1.82969,1.65584 -1.84154,1.89333 -0.18569,3.72302 1.65584,1.82969 1.89334,1.84154 3.72302,0.18569 1.82969,-1.65584 1.84154,-1.89334 0.18569,-3.72303 z m 139.76471,0 c -1.65584,-1.82969 -1.89334,-1.84153 -3.72303,-0.18568 -1.82968,1.65584 -1.84153,1.89333 -0.18568,3.72302 1.65584,1.82969 1.89333,1.84154 3.72302,0.18569 1.82969,-1.65584 1.84154,-1.89334 0.18569,-3.72303 z m -70.24847,-0.74874 c 0,-1.38009 -2.73478,-3.39488 -3.52941,-2.60023 -0.79465,0.79464 1.22014,3.52941 2.60022,3.52941 0.51106,0 0.92919,-0.41813 0.92919,-0.92918 z m 20.47102,-30.61152 -10.2731,-0.3054 -6.45333,6.39597 -6.45333,6.39596 -6.28896,-6.35527 -6.28895,-6.35527 -9.02796,0 -9.02796,0 13.44473,13.44473 c 12.8707,12.87069 13.52946,13.36804 15.42938,11.64864 1.87941,-1.70085 2.11812,-1.65401 4.50185,0.88335 l 2.51721,2.67945 14.09676,-14.06338 14.09677,-14.06338 -10.27311,-0.3054 z m -53.29455,7.71717 -7.88818,-7.94118 -12.55592,0 c -8.17703,0 -12.42861,0.38191 -12.19088,1.09507 0.20075,0.60228 3.93311,4.15996 8.29411,7.90595 l 7.9291,6.81089 12.14997,0.0353 12.14997,0.0352 -7.88817,-7.94117 z m 80.54181,5.22587 2.83417,-2.7153 -5.52559,-5.22587 c -3.03908,-2.87423 -5.95603,-5.16682 -6.48211,-5.09463 -0.52609,0.0722 -4.25677,3.64572 -8.29041,7.94118 l -7.33387,7.80992 10.98182,0 c 10.34489,0 11.14621,-0.15749 13.81599,-2.7153 z m 57.63466,-5.21434 -8.47059,-7.8687 -7.41176,-10e-4 -7.41177,-10e-4 5.03803,4.45932 c 2.77091,2.45263 5.03415,4.73415 5.02941,5.07006 -0.004,0.3359 -1.55715,0.39669 -3.44979,0.13506 l -3.44118,-0.47566 3.10986,3.3061 c 3.10608,3.30209 3.12348,3.30607 14.29412,3.27564 l 11.18426,-0.0305 -8.47059,-7.86869 z m -195.23518,2.53693 c 2.84699,-2.38364 5.17635,-4.6912 5.17635,-5.12792 0,-0.43672 -3.24189,-1.73973 -7.20421,-2.89559 l -7.20422,-2.10157 -7.88402,7.20805 -7.88402,7.20805 9.91188,0.0214 9.91188,0.0214 5.17636,-4.3339 z m 89.88224,-7.84258 2.48678,-2.64706 -5.13384,0 -5.13385,0 2.48679,2.64706 c 1.36773,1.45588 2.55891,2.64706 2.64706,2.64706 0.0882,0 1.27932,-1.19118 2.64706,-2.64706 z m 78.35294,1.7783 c 0,-0.58335 -1.49732,-2.32056 -3.32737,-3.86043 l -3.32737,-2.7998 3.53507,-3.64728 3.53508,-3.64726 -12.95085,0 c -10.13855,0 -13.51755,0.37133 -15.56064,1.71001 -1.43539,0.94051 -2.60981,2.13169 -2.60981,2.64706 0,0.51537 3.81177,0.93705 8.47059,0.93705 6.82353,0 8.47059,0.30882 8.47059,1.58823 0,1.23843 -1.57413,1.62498 -7.14706,1.75503 -3.93088,0.0917 -7.74264,0.14469 -8.47059,0.11766 -2.06256,-0.0765 -1.56369,1.49197 1.14793,3.60929 2.01103,1.57026 4.87127,1.99698 15.35294,2.29044 8.13659,0.22781 12.88149,-0.03 12.88149,-0.7 z m -151.77707,-3.1852 c -2.24563,-2.48139 -2.21867,-4.05044 0.0918,-5.34343 3.66547,-2.0513 0.65025,-1.89007 -6.60883,0.35338 l -7.41177,2.29065 6.88236,2.20611 c 8.74991,2.80475 9.16457,2.83379 7.04646,0.49329 z m -31.03329,-6.71471 c -1.65584,-1.82969 -1.89333,-1.84154 -3.72302,-0.18569 -1.82969,1.65584 -1.84154,1.89334 -0.18569,3.72303 1.65584,1.82969 1.89334,1.84154 3.72303,0.18568 1.82969,-1.65584 1.84154,-1.89333 0.18568,-3.72302 z m 210.90214,0.28903 c -1.45571,-1.45572 -1.80105,-1.44135 -3.38318,0.14079 -1.46879,1.46879 -1.53162,2.03955 -0.37759,3.43007 1.25601,1.51341 1.56974,1.50035 3.38318,-0.14079 1.79475,-1.62424 1.8333,-1.97437 0.37759,-3.43007 z m -142.2363,-6.76137 7.0908,-7.64134 -9.52521,-0.30514 -9.52521,-0.30512 -8.08756,7.45218 c -4.44816,4.09871 -8.47473,7.45219 -8.94794,7.45219 -0.4732,0 -0.8609,0.35736 -0.86155,0.79412 -6.6e-4,0.43677 5.1214,0.65919 11.38235,0.49429 l 11.38354,-0.29984 7.09078,-7.64134 z m 26.04635,1.04699 6.60537,-6.66461 -5.70334,-4.92391 -5.70336,-4.92391 -8.34436,9.22849 c -4.58941,5.07566 -9.25205,10.29049 -10.36143,11.58851 l -2.01705,2.36004 9.45941,0 9.4594,0 6.60536,-6.66461 z m 12.9217,6.33329 c 0,-0.18222 -1.33841,-1.61358 -2.97423,-3.1808 l -2.97422,-2.84949 -3.0474,3.18081 -3.0474,3.1808 6.02162,0 c 3.3119,0 6.02163,-0.1491 6.02163,-0.33132 z m 18.52941,-11.81994 -12.70588,-12.06582 -5.56267,5.45852 -5.56268,5.45853 6.59091,6.65001 6.5909,6.65002 11.67765,-0.0427 11.67765,-0.0427 -12.70588,-12.06583 z m -108.95806,9.28015 6.80128,-1.81229 -6.06493,-6.12889 -6.06494,-6.12889 -10.09198,0.042 -10.09196,0.042 8.47059,7.8687 c 4.65882,4.32778 8.86885,7.88241 9.35562,7.89917 0.48677,0.0167 3.94561,-0.78505 7.68632,-1.78181 z m 192.07571,-6.65831 9,-8.39615 -11.18426,-0.0372 c -11.06532,-0.0369 -11.21662,-0.003 -14.22751,3.1392 l -3.04325,3.17647 3.37457,0 c 1.85601,0 3.37456,0.33932 3.37456,0.75404 0,0.41472 -2.00508,2.79707 -4.45575,5.29412 l -4.45575,4.54007 6.30869,-0.0372 6.3087,-0.0372 9,-8.39616 z m -58.8223,2.64649 5.19036,-4.76527 -2.48624,-2.64649 c -2.33693,-2.48754 -3.13538,-2.64649 -13.294,-2.64649 l -10.80773,0 7.55113,7.39399 c 4.15312,4.06669 7.79975,7.40199 8.10362,7.41176 0.30386,0.01 2.88816,-2.12659 5.74286,-4.7475 z m -120.13186,-8.73472 -0.013,-9.26471 -7.76936,-4.5 c -4.27313,-2.475 -8.07905,-4.5 -8.45757,-4.5 -0.37853,0 -0.68824,2.49093 -0.68824,5.53541 0,5.48699 0.0716,5.60736 8.18104,13.7647 4.49958,4.52611 8.31134,8.22931 8.47059,8.22931 0.15925,0 0.2837,-4.16912 0.27657,-9.26471 z m 15.10121,3.13147 c 2.69476,-2.52983 2.91177,-3.35006 2.91177,-11.00604 0,-4.54987 -0.36372,-8.27249 -0.80826,-8.27249 -0.44453,0 -3.30336,1.68031 -6.35294,3.73402 l -5.54469,3.734 0,7.99718 0,7.99718 3.44118,-0.72515 c 1.89265,-0.39883 4.75147,-1.95524 6.35294,-3.4587 z m 124.67648,-5.9521 0,-6.79123 -6.78969,-3.79701 c -3.73433,-2.08836 -7.06963,-3.79701 -7.41176,-3.79701 -0.34215,0 -0.62208,3.05754 -0.62208,6.79453 0,6.69586 0.0653,6.84934 4.5,10.56752 2.73233,2.2909 5.64378,3.78111 7.41176,3.7937 2.87598,0.0204 2.91177,-0.0628 2.91177,-6.7705 z m 17.16951,1.80161 c 4.89022,-4.81669 5.06578,-5.20198 5.06578,-11.11765 0,-3.37042 -0.29869,-6.12804 -0.66377,-6.12804 -0.36507,0 -4.17683,1.93926 -8.47058,4.30947 l -7.80683,4.30945 0,6.8082 0,6.80818 3.40481,0 c 2.63552,0 4.54937,-1.12736 8.47059,-4.98961 z m -240.272777,-4.31718 7.13404,-7.18914 -3.53972,-3.43084 -3.53972,-3.43083 -9.38874,9.73933 c -10.17397,10.55387 -10.26773,11.25216 -1.5342,11.4262 3.24757,0.0647 4.66409,-0.86257 10.86834,-7.11472 z m 325.654717,5.07149 3.81616,0 -9.48747,-9.53163 -9.48746,-9.53163 -3.70032,3.70032 -3.70031,3.70031 6.3275,6.42454 c 5.5237,5.60841 6.71421,6.34918 9.37162,5.83132 1.67427,-0.32628 4.7614,-0.59323 6.86028,-0.59323 z m -189.15479,-8.15212 2.98312,-2.85802 -4.46917,-4.55375 -4.46918,-4.55375 -11.95601,0 -11.95602,0 0,7.41176 0,7.41177 13.44207,0 c 13.16011,0 13.50463,-0.0599 16.42519,-2.85801 z m 21.81068,-0.63698 3.38748,-3.49498 -3.69332,-3.5797 c -2.03132,-1.96884 -3.81957,-3.37165 -3.97388,-3.11738 -0.15431,0.25428 -1.68,2.00848 -3.39043,3.89822 l -3.10986,3.43588 3.04325,3.17647 c 1.67379,1.74706 3.33712,3.17648 3.69627,3.17648 0.35916,0 2.17739,-1.57275 4.04049,-3.49499 z m -97.20735,-4.44619 0,-6.88235 -7.83493,0 -7.83493,0 -5.46916,5.98413 -5.469147,5.98412 -5.72004,-5.64898 -5.72004,-5.64899 -6.65235,6.22841 c -3.65878,3.42562 -6.85087,6.37187 -7.09352,6.54721 -0.24264,0.17534 11.31177,0.3188 25.67647,0.3188 l 26.117647,0 0,-6.88235 z m 141.88236,-0.52941 0,-7.41177 -12.491,0 -12.49099,0 -4.12719,4.22661 -4.12718,4.22663 3.05157,3.18514 3.05157,3.18515 13.56661,0 13.56661,0 0,-7.41176 z m 90.79502,0.28862 -6.06432,-6.06431 -5.86015,5.78734 -5.86016,5.78736 -5.88389,-6.60539 -5.88389,-6.60539 -6.79778,0 -6.79777,0 0,6.88236 0,6.88235 24.60614,0 24.60613,0 -6.06431,-6.06432 z m -201.97149,-3.46509 4.7647,-3.16741 -11.11765,0.0136 -11.11764,0.0136 5.29411,3.14036 c 2.91177,1.7272 5.77059,3.14644 6.35295,3.15389 0.58235,0.007 3.20294,-1.41182 5.82353,-3.15389 z m 140.57389,-4.02219 c -3.31118,-0.17397 -8.9974,-0.17397 -12.63607,0 l -6.61574,0.3163 6.29605,3.36938 6.29604,3.36938 6.34002,-3.36938 6.34001,-3.36938 -6.02031,-0.3163 z m -239.044487,1.37513 3.59188,-3.70588 -3.59788,-3.71208 -3.59789,-3.71209 -4.0213,3.92668 -4.02128,3.92669 3.38388,3.49128 c 1.86114,1.92021 3.67342,3.49128 4.0273,3.49128 0.35388,0 2.25976,-1.66765 4.23529,-3.70588 z m 22.25467,-0.02 3.61125,-3.72588 -3.80738,-3.80738 -3.80738,-3.80737 -3.76592,4.09207 -3.76593,4.09207 3.31864,3.44117 c 1.82525,1.89265 3.60818,3.44118 3.96206,3.44118 0.35388,0 2.26847,-1.67664 4.25466,-3.72586 z m 22.633935,-0.11259 3.065072,-3.68556 -3.556852,-3.66975 -3.556855,-3.66974 -3.70588,3.70588 -3.70588,3.70588 3.61125,3.72588 c 1.98619,2.04922 3.87514,3.69146 4.19767,3.64941 0.32253,-0.042 1.965685,-1.73494 3.651475,-3.762 z m 242.052582,0.1326 3.59188,-3.70588 -3.61125,-3.72587 -3.61125,-3.72587 -3.61357,3.61356 -3.61355,3.61356 3.04651,3.81816 c 1.67559,2.09998 3.3104,3.81817 3.63293,3.81819 0.32253,2e-5 2.20277,-1.66762 4.1783,-3.70585 z m 23.02088,0.2647 3.31863,-3.44117 -3.76592,-4.09207 -3.76592,-4.09207 -3.80738,3.80737 -3.80738,3.80738 3.61125,3.72588 c 1.98618,2.04922 3.90078,3.72586 4.25466,3.72586 0.35388,0 2.1368,-1.54853 3.96206,-3.44118 z m 21.94238,-0.0282 3.78698,-3.46933 -4.04376,-3.94863 -4.04376,-3.94863 -3.5979,3.71209 -3.59788,3.71208 3.59188,3.70588 c 1.97553,2.03823 3.71014,3.70588 3.85467,3.70588 0.14453,0 1.96692,-1.5612 4.04977,-3.46934 z m -61.84805,-32.34012 c -5.3166,-2.00855 -13.3302,-9.0032 -12.27353,-10.71294 0.40663,-0.65794 4.62352,-1.12463 10.16198,-1.12463 l 9.46693,0 0,3.70588 c 0,3.02993 0.39585,3.70589 2.17022,3.70589 5.71604,0 11.59448,-6.07445 11.59448,-11.9811 0,-5.35129 -3.95362,-8.27347 -18.22076,-13.46724 -10.60277,-3.85979 -14.61019,-11.66385 -10.75998,-20.95399 3.29447,-7.94922 12.11292,-11.6876 22.59145,-9.57714 4.1839,0.84268 6.75208,2.13048 9.27005,4.64846 5.43514,5.43513 4.0432,6.86042 -6.69992,6.86042 l -8.88672,0 0,-3.63197 c 0,-3.58994 -0.0398,-3.6208 -3.44118,-2.66572 -4.78872,1.34464 -8.20588,5.56891 -8.20588,10.14406 0,5.13658 4.15348,9.01251 12.71914,11.8692 12.3235,4.10994 16.26334,7.61121 17.46376,15.51972 1.9036,12.54116 -13.60338,22.70332 -26.95004,17.6611 z m 3.12008,-6.54345 c 0,-0.58235 -0.98106,-1.05883 -2.18014,-1.05883 -1.19907,0 -1.88566,0.47648 -1.52574,1.05883 0.35991,0.58235 1.34098,1.05882 2.18014,1.05882 0.83916,0 1.52574,-0.47647 1.52574,-1.05882 z m 13.76471,-47.64706 c -2.07162,-1.33879 -4.2353,-1.33879 -4.2353,0 0,0.58235 1.3103,1.05153 2.91177,1.04261 2.26899,-0.0126 2.56115,-0.2428 1.32353,-1.04261 z m -284.335467,46.38966 -3.14953,-7.7426 -15.47265,-0.29223 -15.47265,-0.29222 -3.04956,7.43551 c -3.19754,7.79631 -4.42353,8.61525 -5.96675,3.98562 -0.78032,-2.34098 0.92511,-7.10487 10.48579,-29.29056 6.27972,-14.57218 12.11418,-26.76214 12.96546,-27.08881 0.85128,-0.32667 2.17975,0.038 2.95215,0.81041 2.29333,2.29333 22.57261,50.45166 22.57261,53.60443 0,1.59476 -0.61096,3.73511 -1.35768,4.75632 -1.20141,1.64302 -1.72019,0.96557 -4.50719,-5.88587 z m -27.46547,-15.65881 c -2.01049,-2.22156 -3.72848,-1.96034 -3.72848,0.56693 0,0.94533 1.0694,1.52575 2.81116,1.52575 2.73291,0 2.75845,-0.0582 0.91732,-2.09268 z m 15.10315,-3.03581 3.47868,-3.02954 -2.87629,-6.77392 c -3.5305,-8.31467 -3.17312,-7.87682 -5.11431,-6.26576 -1.30209,1.08063 -1.92929,1.07754 -3.24694,-0.016 -0.95605,-0.79345 -1.97972,-0.95694 -2.46915,-0.39436 -1.16901,1.34373 -5.43887,12.10752 -5.3725,13.54338 0.0301,0.65029 1.97953,2.7243 4.33216,4.60892 4.69779,3.76327 5.09396,3.70447 11.26835,-1.67272 z m 6.56392,4.33437 c -0.008,-0.43676 -0.4697,-1.50882 -1.02396,-2.38235 -0.86245,-1.35922 -1.35206,-1.24472 -3.39556,0.79412 l -2.38779,2.38235 3.41176,0 c 1.87647,0 3.40447,-0.35735 3.39555,-0.79412 z m -11.63084,-26.6728 c 0,-1.13034 -0.42655,-2.31878 -0.94788,-2.64098 -1.13782,-0.70321 -2.48575,2.36461 -1.64013,3.73286 1.04318,1.6879 2.58801,1.03613 2.58801,-1.09188 z m 69.679677,45.56599 c -3.72585,-2.36287 -6.23784,-5.41348 -11.106552,-13.48803 l -6.291715,-10.43457 -5.49364,-0.32004 -5.49366,-0.32004 0,10.58453 c 0,9.74578 -0.2071,10.81994 -2.6136,13.55533 l -2.6136,2.97081 -0.0335,-29.38236 -0.0334,-29.38235 11.38235,0.006 c 14.141837,0.007 18.209447,1.09272 22.528007,6.01129 3.13806,3.57405 3.34682,4.28868 2.93122,10.03419 -0.5232,7.23325 -3.81969,11.57814 -10.49119,13.82776 l -4.021822,1.35615 8.458262,13.64217 c 4.65203,7.50319 8.28937,13.81105 8.08296,14.01745 -0.20641,0.2064 -2.54195,-0.99878 -5.19011,-2.67819 z m -7.45987,-32.2635 c 3.86484,-1.9986 6.11333,-7.50405 4.63937,-11.35953 -1.76436,-4.61506 -5.09111,-6.60926 -11.840027,-7.09743 l -6.31327,-0.45666 0,4.36255 c 0,4.27989 -0.0702,4.36256 -3.70588,4.36256 l -3.70589,0 0,5.64705 c 0,3.10589 0.35736,6.01787 0.79412,6.47109 1.30368,1.35275 16.623805,-0.1157 20.131577,-1.92963 z M 84.239283,239.22036 c 0,-1.16471 -0.47647,-2.11765 -1.05882,-2.11765 -0.58235,0 -1.05882,0.95294 -1.05882,2.11765 0,1.1647 0.47647,2.11764 1.05882,2.11764 0.58235,0 1.05882,-0.95294 1.05882,-2.11764 z m 87.882357,22.23529 0,-29.64706 18.26471,0.0178 18.2647,0.0178 -3.63529,2.3267 c -2.4313,1.5561 -5.80805,2.46505 -10.19561,2.74442 -6.24397,0.39758 -6.74518,0.63889 -10.39412,5.00419 -2.10859,2.52255 -3.8338,5.12334 -3.8338,5.77953 0,0.6562 1.54853,3.05834 3.44117,5.33808 3.34051,4.02373 3.64252,4.14696 10.32353,4.21184 3.7853,0.0367 8.31177,0.70162 10.05883,1.47748 l 3.17647,1.41061 -2.9807,1.18868 c -1.63937,0.65387 -5.98837,1.18877 -9.66443,1.18877 l -6.68374,0 -4.88715,5.93637 c -2.69251,3.27057 -4.56271,6.48003 -4.16469,7.14706 0.39735,0.66587 2.40087,3.23569 4.45227,5.71069 3.6625,4.41879 3.84959,4.5 10.36653,4.5 6.50358,0 15.15014,2.48281 15.15014,4.35026 0,0.51912 -8.33823,0.94386 -18.52941,0.94386 l -18.52941,0 0,-29.64706 z m 9.52941,23.42376 c 0,-0.51104 -0.7147,-1.52232 -1.58823,-2.24729 -1.32692,-1.10125 -1.58824,-0.94837 -1.58824,0.92918 0,1.29171 0.67534,2.24729 1.58824,2.24729 0.87353,0 1.58823,-0.41813 1.58823,-0.92918 z m 1.05882,-21.47022 c 0,-0.49209 -0.95294,-0.89472 -2.11764,-0.89472 -1.58591,0 -2.11765,0.70589 -2.11765,2.81117 0,2.74409 0.0505,2.76543 2.11765,0.89472 1.1647,-1.05405 2.11764,-2.31907 2.11764,-2.81117 z m 0,-6.55414 c 0,-0.20092 -0.95294,-1.2277 -2.11764,-2.28175 -2.0554,-1.86011 -2.11765,-1.84938 -2.11765,0.3653 0,1.57587 0.65512,2.28176 2.11765,2.28176 1.1647,0 2.11764,-0.1644 2.11764,-0.36531 z m -1.05882,-17.10528 2.48679,-2.64706 -2.83164,0 c -2.31451,0 -2.83162,0.4834 -2.83162,2.64706 0,1.45588 0.15518,2.64706 0.34485,2.64706 0.18965,0 1.46389,-1.19118 2.83162,-2.64706 z m 66.64432,48.54397 c -2.1067,-5.54106 -15.13128,-36.89454 -15.53456,-37.39566 -0.22075,-0.27431 -0.79867,0.14408 -1.28424,0.92977 -0.48558,0.78568 -1.41261,1.10112 -2.06008,0.70096 -0.84166,-0.52017 -1.1772,3.3742 -1.1772,13.66306 0,14.77261 -0.99376,19.66684 -4.6007,22.65813 -1.62334,1.34627 -1.75224,-0.73211 -1.75224,-28.25218 0,-29.1203 0.0432,-29.71907 2.19406,-30.40172 5.61722,-1.78283 6.29694,-0.7554 16.80793,25.40575 5.5011,13.69187 10.31249,24.39192 10.69197,23.77789 0.37949,-0.61402 4.93154,-11.82103 10.11566,-24.90448 9.90983,-25.00996 10.61337,-26.06232 16.23161,-24.27916 2.15076,0.68262 2.19406,1.2819 2.19406,30.36031 0,31.19685 -0.29362,32.87759 -4.40458,25.21227 -1.62101,-3.02256 -1.94836,-6.07617 -1.94836,-18.17504 0,-12.89877 -0.19155,-14.46861 -1.69509,-13.89165 -0.93231,0.35776 -2.04568,0.0832 -2.47418,-0.61009 -0.4516,-0.73071 -4.15312,6.88168 -8.80616,18.11041 -8.29952,20.02842 -10.32705,22.80117 -12.4979,17.09143 z m 25.47333,-42.10443 c 0,-1.40826 0.28921,-3.31414 0.6427,-4.23529 0.35347,-0.92117 0.1669,-1.67484 -0.41463,-1.67484 -0.58153,0 -1.34518,1.14691 -1.69701,2.54869 -0.35182,1.40178 -0.93092,3.30766 -1.28688,4.2353 -0.42661,1.11172 -0.0672,1.6866 1.0543,1.6866 1.09372,0 1.70152,-0.91461 1.70152,-2.56046 z m -43.81986,-1.86233 c -1.15085,-5.75432 -2.86804,-5.82082 -1.9933,-0.0772 0.28826,1.89265 1.00604,3.44118 1.5951,3.44118 0.63856,0 0.79935,-1.35828 0.3982,-3.36397 z m 134.67647,45.98161 c -0.17996,-0.43676 -0.089,-13.8863 0.20222,-29.88784 l 0.52941,-29.09373 2.38235,3.03064 c 2.27341,2.89204 2.38235,3.91676 2.38235,22.40899 l 0,19.37836 3.44118,0.33179 c 3.22996,0.31143 3.46116,0.60799 3.76676,4.83179 l 0.32559,4.5 7.29183,0 c 6.24484,0 7.71842,0.37528 10.26266,2.6136 l 2.97081,2.6136 -16.61398,0.0335 c -9.13769,0.0184 -16.76122,-0.32389 -16.94118,-0.76066 z m 8.6728,-7.14706 c 0,-2.70333 -1.44516,-3.53293 -2.6784,-1.53753 -0.88079,1.42516 0.16529,4.18459 1.58635,4.18459 0.60063,0 1.09205,-1.19117 1.09205,-2.64706 z m -234.02727,4.16358 c -0.73128,-1.92341 -1.13026,-11.79566 -1.07203,-26.52596 l 0.0928,-23.46235 -7.95801,-0.40185 c -6.49289,-0.32788 -8.3929,-0.83677 -10.32025,-2.76411 l -2.36225,-2.36225 22.7353,0.0235 22.73529,0.0235 -2.64706,2.07107 c -1.45588,1.13909 -4.19559,2.37271 -6.08824,2.74136 -3.17749,0.61892 -3.44117,0.98577 -3.44117,4.78773 0,3.9826 -0.11878,4.11746 -3.62641,4.11746 l -3.62641,0 -0.34418,21.1257 c -0.2401,14.73714 -0.73252,21.51339 -1.62836,22.40772 -1.00567,1.00396 -1.5368,0.61758 -2.44897,-1.7816 z m 7.43903,-48.10475 c 0,-1.17647 -0.70588,-2.11765 -1.58823,-2.11765 -0.88235,0 -1.58824,0.94118 -1.58824,2.11765 0,1.17646 0.70589,2.11764 1.58824,2.11764 0.88235,0 1.58823,-0.94118 1.58823,-2.11764 z m 150.49018,48.9623 c -1.48597,-2.77657 -1.63555,-51.92173 -0.16511,-54.24757 0.81528,-1.28955 1.2495,-1.32878 2.36614,-0.21381 2.11347,2.11031 2.55753,49.89698 0.50016,53.82359 -1.48512,2.83446 -1.52103,2.84293 -2.70119,0.63779 z m 117.90531,0.008 c -0.42474,-1.01912 -0.95165,-6.73139 -1.1709,-12.69394 l -0.39866,-10.841 -7.94237,-12.233 c -7.70304,-11.86438 -9.18603,-15.95472 -7.02197,-19.36788 0.62421,-0.9845 2.70195,1.53158 6.99489,8.47059 3.35881,5.42911 6.2843,10.06671 6.5011,10.3058 0.21678,0.23907 1.26841,-0.35652 2.33696,-1.32353 2.40409,-2.17567 3.78191,-2.2184 5.48194,-0.16999 0.72497,0.87353 1.62746,1.58824 2.00556,1.58824 0.37809,0 3.2977,-4.27322 6.488,-9.49604 3.1903,-5.22283 6.10626,-9.51106 6.47989,-9.52941 1.13765,-0.0559 2.01368,4.96723 1.22595,7.02955 -0.40695,1.06539 -4.21829,7.2748 -8.46965,13.79868 l -7.72975,11.86141 0,9.52975 c 0,11.66171 -2.50919,18.52149 -4.78099,13.07057 z m 4.31438,-32.98664 c -0.90916,-1.47103 -3.43184,-1.50323 -4.32676,-0.0553 -0.37568,0.60787 -0.0874,1.82296 0.64067,2.7002 1.15813,1.39547 1.51636,1.40237 2.8635,0.0553 0.84688,-0.84688 1.21704,-2.06197 0.82259,-2.70021 z m -381.615767,-42.83 -7.55135,-7.60208 5.77692,-5.80535 5.77692,-5.80535 -6.313,-6.60535 c -3.47214,-3.63314 -6.313,-7.56403 -6.313,-8.73549 0,-1.98257 0.6868,-2.12994 9.92647,-2.12994 5.45956,0 11.41544,-0.29779 13.23529,-0.66176 2.48943,-0.49788 3.30883,-0.28138 3.30883,0.87426 0,0.8448 1.10276,2.57201 2.45059,3.83823 2.28,2.14195 3.47778,2.29883 17.20589,2.25358 l 14.75528,-0.0486 6.34307,-5.76071 6.343057,-5.76071 -2.888922,-2.88892 -2.88892,-2.88892 3.141342,-3.24104 3.14132,-3.24103 -7.847787,-6.85482 c -5.24416,-4.58062 -7.87143,-7.64521 -7.91901,-9.23717 -0.0705,-2.36093 0.0626,-2.38236 14.804417,-2.38236 l 14.87562,0 -0.16641,-13.78318 c -0.23005,-19.05486 0.18127,-19.38931 10.82828,-8.80474 l 8.28818,8.23956 2.34491,-2.34489 2.34489,-2.3449 3.27938,3.17849 3.27937,3.1785 7.28774,-7.68883 c 4.00826,-4.22886 9.66607,-10.17498 12.57293,-13.21361 5.19011,-5.42538 5.25017,-5.56349 3.33795,-7.676472 -1.61051,-1.77961 -3.25216,-2.15172 -9.49277,-2.15172 l -7.54552,0 -6.29073,6.357072 -6.29074,6.35707 -7.70633,-7.65489 -7.70633,-7.654912 7.64979,-7.70117 7.64978,-7.70117 6.40892,6.35194 6.40891,6.35195 7.2999,0 c 5.30608,0 7.82866,-0.47851 9.23577,-1.75193 1.84951,-1.67378 1.65249,-2.00838 -4.41663,-7.5006 -4.99758,-4.52255 -6.35248,-6.40723 -6.35248,-8.83631 l 0,-3.08763 13.28993,0 13.28994,0 -0.17542,-12.71657 c -0.24382,-17.67532 0.34778,-18.17182 10.10444,-8.48029 7.28207,7.23347 7.62796,7.43825 9.34999,5.53544 1.34164,-1.48249 1.78818,-3.94643 1.78818,-9.86686 l 0,-7.89096 -6.35707,-6.29073 -6.35708,-6.29074 7.6549,-7.70633 7.6549,-7.7063299 7.70118,7.6497899 7.70118,7.64978 -6.35195,6.40892 -6.35195,6.40891 0,8.01329 c 0,6.71277 0.34947,8.32956 2.15326,9.96196 2.11765,1.91645 2.25769,1.84531 8.47059,-4.30276 3.47453,-3.43827 6.31733,-6.86191 6.31733,-7.60809 0,-0.74616 1.19118,-1.35667 2.64706,-1.35667 2.45124,0 2.64746,0.37205 2.65253,5.02941 0.003,2.76618 0.31312,9.675 0.68912,15.35294 l 0.68363,10.32401 12.9521,0 c 12.05674,0 12.99034,0.14623 13.50526,2.11526 0.41768,1.59724 -1.09871,3.62887 -6.19217,8.2961 -8.21413,7.52676 -7.72832,8.64747 3.74855,8.64747 l 8.02727,0 6.29074,-6.35707 6.29073,-6.35707 7.70633,7.65489 7.70633,7.65489 -7.64979,7.701192 -7.64977,7.70117 -6.40892,-6.35195 -6.40892,-6.351942 -8.01329,0 c -6.71089,0 -8.32977,0.34972 -9.96056,2.15172 -1.92044,2.122062 -1.76617,2.333222 11.19678,15.324882 l 13.14407,13.17317 3.25674,-3.15656 3.25674,-3.15656 3.07212,3.20661 3.07211,3.20659 7.98673,-7.90485 c 7.30928,-7.23436 8.15625,-7.77859 9.98541,-6.41633 1.84849,1.37666 1.94185,2.48627 1.24231,14.76522 l -0.75638,13.2767 13.84593,0 13.84592,0 0,2.54792 c 0,1.79398 -2.18279,4.56883 -7.37679,9.37769 l -7.3768,6.82978 2.62717,2.4681 2.62717,2.4681 -3.45626,3.57282 -3.45626,3.5728 6.35294,5.71659 6.35295,5.71658 16.35382,0.0413 c 16.32973,0.0412 16.35821,0.0371 19.32353,-2.80388 1.63334,-1.56483 2.96971,-3.43578 2.96971,-4.15766 0,-1.79488 2.72451,-2.1909 9,-1.30821 2.91176,0.40957 7.99888,0.77946 11.30472,0.82197 8.41436,0.10821 8.44186,1.93366 0.16978,11.27218 l -6.63379,7.489 5.2636,5.18445 5.26359,5.18445 -7.61453,7.66569 c -7.08423,7.13183 -7.71118,7.52769 -9.00236,5.68428 -0.76331,-1.08977 -3.33045,-3.51998 -5.70474,-5.40046 l -4.31691,-3.41906 -5.21947,5.14098 -5.21946,5.14098 -5.67894,-5.60839 -5.67893,-5.6084 -5.63044,5.95337 -5.63044,5.95335 -6.45257,-6.39521 -6.45256,-6.39521 -42.82057,0 -42.82057,0 -5.36216,-5.29556 -5.36217,-5.29555 -5.75403,5.82639 -5.75403,5.8264 -5.59173,-5.52226 -5.59173,-5.52227 -5.06763,4.99142 -5.06762,4.99142 -43.87631,0 -43.87633,0 -6.452557,6.39521 -6.45257,6.39521 -5.63044,-5.95335 -5.63043,-5.95337 -5.67894,5.6084 -5.67894,5.60839 -5.20592,-5.12764 -5.20591,-5.12764 -3.18306,2.26654 c -1.75067,1.24659 -4.34596,3.64858 -5.76732,5.33776 l -2.58427,3.07123 -7.55134,-7.60208 z m 59.141195,-7.57552 c 0,-0.65033 -1.410465,-2.53375 -3.134385,-4.18536 l -3.13438,-3.00293 -3.74797,2.85871 c -2.06138,1.5723 -3.74797,3.40738 -3.74797,4.07796 0,0.67058 1.52431,2.79193 3.38737,4.71411 l 3.38738,3.49488 3.49497,-3.38747 c 1.92224,-1.86311 3.494985,-3.91956 3.494985,-4.5699 z m -47.773405,3.57576 3.57954,-3.25414 -3.82426,-3.82425 -3.82426,-3.82426 -3.72916,3.61444 -3.72916,3.61445 3.38748,3.49498 c 1.8631,1.92224 3.65135,3.48102 3.97388,3.46395 0.32252,-0.017 2.19719,-1.4954 4.16594,-3.28517 z m 22.15723,-0.17878 3.38747,-3.49498 -3.70918,-3.59507 -3.70917,-3.59508 -3.70918,3.59508 -3.70917,3.59507 3.38747,3.49498 c 1.86311,1.92224 3.677,3.49498 4.03088,3.49498 0.35388,0 2.16777,-1.57274 4.03088,-3.49498 z m 265.117067,0.64983 c 1.63334,-1.56484 2.96969,-3.3516 2.96967,-3.97059 -2e-5,-0.61899 -1.70687,-2.48731 -3.79299,-4.15184 l -3.79295,-3.02641 -3.08938,2.9598 c -3.79844,3.63914 -3.81944,4.33274 -0.2442,8.06449 3.51765,3.67165 4.23574,3.68289 7.94985,0.12455 z m 22.88293,-0.64983 3.38747,-3.49498 -3.70917,-3.59507 -3.70918,-3.59508 -3.70917,3.59508 -3.70918,3.59507 3.38748,3.49498 c 1.8631,1.92224 3.67699,3.49498 4.03087,3.49498 0.35388,0 2.16777,-1.57274 4.03088,-3.49498 z m 22.2353,0 3.38747,-3.49498 -3.72916,-3.61445 -3.72916,-3.61444 -3.92279,3.92279 -3.92279,3.92278 3.67807,3.14362 c 2.02293,1.72898 3.94195,3.16297 4.26447,3.18663 0.32253,0.0237 2.11078,-1.52971 3.97389,-3.45195 z m -265.5603,-13.44619 0,-7.41177 -24.971327,0 -24.97132,0 3.16716,3.97059 c 1.74194,2.18382 4.55375,5.28662 6.24846,6.8951 l 3.08129,2.92452 5.75228,-5.30036 c 3.16376,-2.9152 6.00679,-5.30329 6.31787,-5.30687 0.31107,-0.003 3.15362,2.61408 6.316765,5.81702 l 5.751192,5.82353 6.65381,0 6.65382,0 0,-7.41176 z m 32.82353,6.29577 c -0.87353,-0.59597 -3.375,-2.02776 -5.55882,-3.18177 -3.95833,-2.09174 -3.98285,-2.09174 -7.94118,0 -7.84531,4.14576 -7.73399,4.26533 3.97059,4.26533 7.90977,0 10.65938,-0.31265 9.52941,-1.08356 z m 43.63154,-2.80449 4.01494,-3.92049 -3.38389,-3.49128 -3.38388,-3.49128 -13.02759,0 -13.02759,0 0,7.41177 0,7.41176 12.39654,0 12.39652,0 4.01495,-3.92048 z m 66.48611,-4.0207 0,-7.94117 -12.39077,0 -12.39077,0 -3.50009,3.39243 -3.5001,3.39242 4.46426,4.54875 4.46427,4.54875 11.4266,0 11.4266,0 0,-7.94118 z m 34.35882,7.02313 c -0.55323,-0.50493 -3.1816,-2.16658 -5.84083,-3.69253 l -4.83494,-2.77448 -5.75329,3.66544 -5.75329,3.66542 11.59412,0.0271 c 6.60995,0.0154 11.1617,-0.36756 10.58823,-0.89095 z m 32.53047,-5.08697 6.06834,-6.00502 5.08001,4.62688 c 2.79401,2.54477 5.42513,5.12792 5.84696,5.74031 0.46197,0.67068 3.40506,-1.51807 7.40117,-5.50421 l 6.63423,-6.61764 -26.19529,0 -26.1953,0 0,6.88235 0,6.88235 7.64577,0 7.64577,0 6.06834,-6.00502 z m -268.310227,-9.52849 -6.63789,-6.59361 -6.57058,0.61812 -6.57059,0.61812 9.14487,9.94349 9.14486,9.94351 4.06362,-3.968 4.06361,-3.96802 -6.6379,-6.59361 z m 158.009167,3.35704 -3.63062,-3.74585 -3.70588,3.70588 -3.70588,3.70588 3.63062,3.74586 3.63062,3.74585 3.70588,-3.70588 3.70589,-3.70589 -3.63063,-3.74585 z m 161.9926,0.52941 c 0.49566,0 2.63447,-2.02491 4.75289,-4.49981 3.82278,-4.46607 3.83333,-4.50497 1.40604,-5.18857 -1.3451,-0.37883 -4.36529,-0.73627 -6.71152,-0.79431 -3.89869,-0.0965 -4.85188,0.48571 -11.07371,6.76334 l -6.80782,6.86888 3.66102,3.77721 3.66102,3.77722 5.10542,-5.35199 c 2.80799,-2.94358 5.51098,-5.35197 6.00666,-5.35197 z m -223.60259,-9.79126 c -2.89071,-2.51167 -5.63501,-3.96876 -7.47824,-3.97059 -2.90984,-0.003 -2.91176,0.002 -2.90244,7.67362 l 0.01,7.67647 7.13774,3.90442 7.13773,3.90443 0.33118,-7.61031 0.33118,-7.61031 -4.56647,-3.96773 z m 123.85651,1.94802 0.30533,-9.0161 -3.48181,1.1599 c -1.91498,0.63795 -5.03033,2.61888 -6.92298,4.40208 -3.34734,3.15378 -3.44117,3.48262 -3.44117,12.06016 l 0,8.81798 6.61764,-4.20397 6.61765,-4.20397 0.30534,-9.01608 z m -147.34746,12.00437 7.80683,-4.30946 0,-6.80819 0,-6.80818 -3.40481,0 c -2.63552,0 -4.54937,1.12736 -8.47059,4.98961 -4.89022,4.81668 -5.06578,5.20198 -5.06578,11.11764 0,3.37042 0.29869,6.12804 0.66376,6.12804 0.36508,0 4.17684,-1.93926 8.47059,-4.30946 z m 168.748,-2.28161 c 0,-5.41055 -0.15661,-5.69008 -7.11866,-12.70588 -3.91526,-3.94551 -7.48879,-7.17364 -7.94117,-7.17364 -0.45239,0 -0.82252,3.75544 -0.82252,8.34541 l 0,8.34541 7.14706,4.31753 c 3.93088,2.37466 7.50441,4.33687 7.94118,4.36048 0.43676,0.0236 0.79411,-2.44658 0.79411,-5.48931 z m -95.28517,-19.34107 -6.83012,-6.89139 -11.14824,0.0427 -11.14823,0.0427 12.70588,12.07545 12.70588,12.07544 5.27249,-5.22678 5.27247,-5.22678 -6.83013,-6.89138 z m 37.15383,-2.89763 4.28974,-5.00625 -10.40273,0.63394 -10.40273,0.63395 -6.08816,5.92731 -6.08816,5.92732 5.55875,5.65945 5.55875,5.65945 6.6424,-7.21447 c 3.65333,-3.96795 8.57279,-9.46727 10.93214,-12.2207 z m 72.42546,4.97167 c -4.65882,-4.33273 -9.21792,-7.88419 -10.13135,-7.89214 -0.91342,-0.008 -4.19601,0.73842 -7.29465,1.65862 l -5.63389,1.67308 6.20268,6.2681 6.20268,6.26809 9.56257,-0.049 9.56255,-0.049 -8.47059,-7.87768 z m -192.17647,4.26986 2.48678,-2.64705 -3.36104,0 c -1.84857,0 -3.36104,-0.29262 -3.36104,-0.65026 0,-0.35764 2.025,-2.48222 4.5,-4.72128 l 4.5,-4.07102 -6.35294,0.007 -6.35294,0.007 -7.94117,7.35964 -7.941182,7.35964 10.668382,0.001 c 10.01147,0.001 10.82149,-0.16158 13.15515,-2.64564 z m 55.05882,-4.23529 c -3.75164,-3.78529 -7.20294,-6.88235 -7.66953,-6.88235 -0.4666,0 -2.99581,1.97943 -5.62044,4.39873 l -4.77206,4.39875 2.33323,2.4836 c 2.13184,2.26924 3.20576,2.48362 12.44161,2.48362 l 10.10837,0 -6.82118,-6.88235 z m 90.52942,-2.15222 8.47059,-7.87768 -11.1619,-0.0145 -11.1619,-0.0145 -4.20782,4.5 c -2.31431,2.475 -5.59972,6.04853 -7.30091,7.94118 l -3.09308,3.44118 9.99222,-0.049 9.99221,-0.049 8.47059,-7.87768 z m -52.94118,-3.67131 3.04325,-3.17647 -6.21972,0 -6.21972,0 3.04325,3.17647 c 1.67379,1.74706 3.1032,3.17647 3.17647,3.17647 0.0733,0 1.50268,-1.42941 3.17647,-3.17647 z m -54.45084,-0.61306 2.40821,-2.56341 -8.65516,0 c -7.94927,0 -8.65515,-0.1727 -8.65515,-2.11765 0,-1.94494 0.70588,-2.11764 8.65515,-2.11764 l 8.65516,0 -2.48678,-2.64706 c -2.41102,-2.56641 -2.90863,-2.64585 -16.33163,-2.6073 l -13.84484,0.0397 4.23529,3.68348 4.23529,3.68348 -3.45071,2.89441 c -1.8979,1.59193 -3.44643,3.25722 -3.44118,3.70063 0.005,0.44342 5.91772,0.76314 13.13885,0.71048 12.46039,-0.0908 13.252,-0.22634 15.5375,-2.65916 z m -52.65363,-5.92031 c -1.65584,-1.82969 -1.89334,-1.84154 -3.72303,-0.18569 -1.82969,1.65584 -1.84153,1.89334 -0.18568,3.72302 1.65584,1.82969 1.89333,1.84154 3.72302,0.18569 1.82969,-1.65584 1.84154,-1.89333 0.18569,-3.72302 z m 210.90214,0.28902 c -1.45571,-1.45571 -1.80105,-1.44134 -3.38319,0.14079 -1.46879,1.46879 -1.53162,2.03955 -0.37758,3.43007 1.256,1.51341 1.56973,1.50036 3.38317,-0.14079 1.79476,-1.62423 1.8333,-1.97436 0.3776,-3.43007 z m -28.09179,2.12477 c 3.7853,-1.09653 6.16765,-2.24517 5.29412,-2.55253 -5.1263,-1.8038 -12.17,-3.91612 -13.05861,-3.91612 -0.56886,0 -0.17191,0.95294 0.88214,2.11764 1.84937,2.04354 1.84937,2.19176 0,4.2353 -2.36001,2.60777 -1.75561,2.61794 6.88235,0.11571 z m -167.55882,-8.00618 c -2.76618,-2.54646 -5.02942,-4.90989 -5.02942,-5.25209 0,-0.34218 1.51856,-0.62215 3.37457,-0.62215 l 3.37457,0 -3.04325,-3.17647 c -2.99051,-3.12142 -3.22792,-3.17605 -13.6981,-3.15205 l -10.654842,0.0245 9.000002,8.40013 9,8.40011 6.35294,0.004 6.35294,0.004 -5.02941,-4.62992 z m 82.32584,-1.64127 6.28895,-6.35528 6.41227,6.35528 6.41227,6.35527 10.54503,0 10.54504,0 -14.25736,-14.28676 c -14.20902,-14.23834 -14.26445,-14.27966 -16.35368,-12.19043 -2.08922,2.08923 -2.10557,2.08748 -4.82233,-0.51534 l -2.726,-2.61168 -14.77377,14.80211 -14.77378,14.8021 10.6072,0 10.6072,0 6.28896,-6.35527 z m 11.11533,6.01042 c 0,-0.18966 -1.10561,-1.38351 -2.45691,-2.65299 l -2.45692,-2.30815 -2.49235,2.65299 -2.49237,2.653 4.94928,0 c 2.7221,0 4.94927,-0.15518 4.94927,-0.34485 z m 51.22059,-0.72656 8.60295,-0.0126 -8.47059,-7.90452 -8.47059,-7.90451 -11.62222,-0.0241 -11.62222,-0.024 8.44575,8.53145 c 7.51885,7.59515 8.77983,8.46667 11.48986,7.94117 1.67427,-0.32464 6.91545,-0.59592 11.64706,-0.60285 z m 57.83824,-14.43241 c 0,-0.20819 -4.64559,-0.36337 -10.32353,-0.34483 l -10.32353,0.0337 -5.75483,5.10684 -5.75484,5.10684 7.87248,2.63302 7.87249,2.63302 8.20588,-7.39502 c 4.51323,-4.06726 8.20588,-7.56536 8.20588,-7.77357 z m -146.11765,6.50382 7.88817,-7.94118 -10.62834,0 c -10.50161,0 -10.66543,0.0391 -13.73821,3.2722 l -3.10986,3.27219 5.13186,4.66899 c 2.82251,2.56793 5.45502,4.66897 5.85002,4.66897 0.395,0 4.26786,-3.57353 8.60636,-7.94117 z m 115.0751,-4.51742 6.54569,-6.07082 0.67829,-11.11765 0.67829,-11.11764 -9.07691,8.97662 -9.07693,8.97662 0,7.52338 c 0,11.17349 0.96709,11.44041 10.25157,2.82949 z m -156.41253,-6.33553 -0.0433,-9.2647 -7.36845,-6.70771 -7.36845,-6.70771 0,11.43234 0,11.43234 4.45575,4.54007 c 3.13997,3.1994 5.32866,4.54008 7.41177,4.54008 l 2.95601,0 -0.0433,-9.26471 z m 18.26338,5.34394 4.01523,-3.92077 0,-10.61321 0,-10.61322 -8.47059,8.42091 -8.47059,8.42091 0,6.11308 0,6.11307 4.45536,0 c 3.70958,0 5.12746,-0.65629 8.47059,-3.92077 z m 122.60346,-2.72338 0,-6.64415 -7.94117,-7.88817 -7.94118,-7.88817 0,9.66902 0,9.66901 5.02941,4.17854 c 9.15457,7.6058 10.85294,7.43428 10.85294,-1.09608 z m -91.05882,-15.59114 0,-10.58824 -11.11765,0 -11.11765,0 0,10.58824 0,10.58823 11.11765,0 11.11765,0 0,-10.58823 z m 69.88235,0 0,-10.58824 -11.11764,0 -11.11765,0 0,10.58824 0,10.58823 11.11765,0 11.11764,0 0,-10.58823 z m -48.73635,-16.91468 -0.0305,-11.14415 -7.86869,8.47059 -7.8687,8.47059 -0.042,10.56173 -0.042,10.56174 7.94117,-7.88818 7.94118,-7.88817 -0.0305,-11.14415 z m 13.5988,-3.53905 -7.7448,-7.21843 -0.30396,10.8599 -0.30395,10.8599 7.71572,7.77138 7.71572,7.7714 0.33303,-11.41286 0.33304,-11.41286 -7.7448,-7.21843 z m -9.33304,20.98314 c -0.92839,-1.11866 -1.74554,-1.32505 -2.45143,-0.61916 -0.70587,0.70588 -0.59461,1.61815 0.33379,2.73681 0.92839,1.11865 1.74554,1.32504 2.45143,0.61915 0.70587,-0.70587 0.59461,-1.61814 -0.33379,-2.7368 z m -69.51623,-2.82749 c -1.65584,-1.82969 -1.89334,-1.84154 -3.72303,-0.18569 -1.82968,1.65584 -1.84153,1.89333 -0.18568,3.72302 1.65584,1.82969 1.89333,1.84154 3.72302,0.18569 1.82969,-1.65584 1.84154,-1.89334 0.18569,-3.72302 z m 139.76471,0 c -1.65584,-1.82969 -1.89334,-1.84154 -3.72303,-0.18569 -1.82969,1.65584 -1.84153,1.89333 -0.18568,3.72302 1.65584,1.82969 1.89333,1.84154 3.72302,0.18569 1.82969,-1.65584 1.84154,-1.89334 0.18569,-3.72302 z m -85.23176,-21.79016 7.44442,-8.205882 -10.21102,-0.30565 -10.21101,-0.30565 -8.51153,8.511532 -8.51154,8.51153 11.27814,0 11.27813,0 7.44441,-8.20588 z m 47.2774,-0.26471 -8.42091,-8.470582 -10.08366,0.0372 -10.08366,0.0373 9,8.396152 9,8.39616 9.50457,0.0372 9.50457,0.0373 -8.42091,-8.47059 z m -99.74424,-15.043042 -3.92588,-4.02047 -4.02047,3.92589 -4.02047,3.92587 3.92588,4.02047 3.92589,4.020472 4.02047,-3.925882 4.02047,-3.92589 -3.92589,-4.02046 z m 139.76471,0 -3.92588,-4.02047 -4.02047,3.92589 -4.02047,3.92587 3.92588,4.02047 3.92589,4.020472 4.02047,-3.925882 4.02047,-3.92589 -3.92589,-4.02046 z m -109.00729,2.15722 c -1.65584,-1.82969 -1.89334,-1.84154 -3.72303,-0.18569 -1.82968,1.65583 -1.84153,1.89333 -0.18568,3.72302 1.65584,1.82969 1.89333,1.84153 3.72302,0.18568 1.82969,-1.65584 1.84154,-1.89333 0.18569,-3.72301 z m 73.25508,0.28902 c -1.45572,-1.45571 -1.80105,-1.44134 -3.38319,0.14079 -1.46879,1.46879 -1.53162,2.03954 -0.37758,3.43007 1.256,1.5134 1.56973,1.50035 3.38317,-0.1408 1.79476,-1.62423 1.8333,-1.97436 0.3776,-3.43006 z m -53.50355,-9.10859 -7.88817,-7.94117 -10.61474,0.0305 -10.61474,0.0305 8.47059,7.86869 8.47059,7.8687 10.03232,0.042 10.03232,0.0419 -7.88817,-7.94118 z m 51.35294,1.01908 7.41176,-6.82409 -11.14823,-0.01 -11.14824,-0.009 -6.82117,6.88236 -6.82118,6.88235 10.55765,-0.049 10.55764,-0.049 7.41177,-6.8241 z m -47.07508,-24.25459 -8.51316,-8.51315 0,10.02737 0,10.02738 8.20589,8.25904 8.20588,8.25902 0.30727,-9.77325 0.30727,-9.77325 -8.51315,-8.51316 z m 30.65166,5.78976 c -0.006,-3.2166 -0.31331,-7.67412 -0.682,-9.90559 l -0.67036,-4.05721 -7.78858,7.7366 -7.78858,7.73659 0,10.5899 0,10.5899 8.47059,-8.42091 8.47058,-8.42091 -0.0116,-5.84837 z m -18.68105,-9.73468 c -1.65584,-1.82969 -1.89334,-1.84154 -3.72302,-0.18569 -1.82969,1.65584 -1.84154,1.89334 -0.18569,3.72303 1.65584,1.82969 1.89333,1.84153 3.72302,0.18568 1.82969,-1.65584 1.84154,-1.89333 0.18569,-3.72302 z m 2.06611,-36.03957 -3.92588,-4.02047 -4.02047,3.92588 -4.02047,3.92589 3.92589,4.02047 3.92588,4.02047 4.02047,-3.92589 4.02047,-3.92588 -3.92589,-4.02047 z"
     id="path3338"
     inkscape:connector-curvature="0" />
</svg>
