<?xml version="1.0" encoding="UTF-8" standalone="no"?>
<!-- Created with Inkscape (http://www.inkscape.org/) -->

<svg
   xmlns:dc="http://purl.org/dc/elements/1.1/"
   xmlns:cc="http://creativecommons.org/ns#"
   xmlns:rdf="http://www.w3.org/1999/02/22-rdf-syntax-ns#"
   xmlns:svg="http://www.w3.org/2000/svg"
   xmlns="http://www.w3.org/2000/svg"
   xmlns:sodipodi="http://sodipodi.sourceforge.net/DTD/sodipodi-0.dtd"
   xmlns:inkscape="http://www.inkscape.org/namespaces/inkscape"
   id="svg2"
   version="1.1"
   inkscape:version="0.91 r13725"
   width="970"
   height="1200"
   viewBox="0 0 969.99999 1200"
   sodipodi:docname="artemisly-logo-corrected.svg">
  <metadata
     id="metadata8">
    <rdf:RDF>
      <cc:Work
         rdf:about="">
        <dc:format>image/svg+xml</dc:format>
        <dc:type
           rdf:resource="http://purl.org/dc/dcmitype/StillImage" />
        <dc:title></dc:title>
      </cc:Work>
    </rdf:RDF>
  </metadata>
  <defs
     id="defs6" />
  <sodipodi:namedview
     pagecolor="#ffffff"
     bordercolor="#666666"
     borderopacity="1"
     objecttolerance="10"
     gridtolerance="10"
     guidetolerance="10"
     inkscape:pageopacity="0"
     inkscape:pageshadow="2"
     inkscape:window-width="834"
     inkscape:window-height="628"
     id="namedview4"
     showgrid="false"
     inkscape:zoom="0.12585482"
     inkscape:cx="937.58826"
     inkscape:cy="937.58826"
     inkscape:window-x="0"
     inkscape:window-y="0"
     inkscape:window-maximized="0"
     inkscape:current-layer="svg2" />
  <path
     style="fill:#afb2b1"
     d="m 480.71943,1151.2093 -16.6658,-16.6902 14.2955,-14.266 14.2954,-14.2661 0,-17.97 0,-17.9701 -3.8567,-3.9497 -3.8568,-3.9497 -14.6722,13.9639 c -8.0697,7.6802 -14.6724,14.7977 -14.6727,15.8168 -3e-4,1.5335 -0.9759,1.8529 -5.6592,1.8529 l -5.6588,0 -0.6903,-15.0882 c -0.3796,-8.2985 -0.6953,-19.8529 -0.7016,-25.6765 -0.01,-5.8235 -0.3152,-13.8044 -0.6864,-17.7353 l -0.675,-7.147 -30.0234,0 -30.0233,0 0,-5.8235 c 0,-3.9253 0.4314,-5.8405 1.3235,-5.8755 0.7279,-0.029 7.5176,-5.9665 15.0882,-13.1957 13.7305,-13.11126 13.7595,-13.14906 11.6471,-15.22536 -1.8857,-1.8535 -4.2053,-2.1582 -21.1765,-2.7821 l -19.0588,-0.7006 -13.751,13.86176 -13.7511,13.8619 -16.6905,-16.6661 -16.6905,-16.66596 17.1934,-17.2171 17.1934,-17.2171 14.307,14.221 14.3069,14.2209 15.6974,0.7481 15.6974,0.7481 5.2273,-5.1487 5.2273,-5.1486 -14.0276,-14.0566 c -7.7152,-7.7311 -14.8681,-14.0565 -15.8953,-14.0565 -1.0525,0 -1.8909,-0.8087 -1.921,-1.8529 -0.029,-1.0191 -5.7531,-7.7889 -12.7196,-15.044 l -12.6663,-13.1911 -6.6347,6.5758 -6.6348,6.5757 -6.2889,-6.3553 c -3.459,-3.4953 -6.7858,-6.3552 -7.393,-6.3552 -0.6072,0 -8.9477,7.8544 -18.5344,17.4545 l -17.4304,17.4544 -3.7708,-3.6821 -3.7708,-3.6821 0.7227,-9.8017 c 0.3975,-5.391 0.9859,-18.9739 1.3075,-30.1842 l 0.5847,-20.3824 -31.7118,0 -31.7119,0 0,-5.8235 c 0,-4.7272 0.3319,-5.8235 1.763,-5.8235 0.9697,0 4.6694,-2.7397 8.2216,-6.0883 3.5522,-3.3485 10.4381,-9.8391 15.302,-14.4235 l 8.8434,-8.3352 -5.9399,-5.9398 -5.9398,-5.9399 6.9467,-7.0003 6.9467,-7.0004 -13.4656,-12.8716 -13.4657,-12.8716 -36.6688,0 -36.6687,0 -6.0551,6.1189 c -4.7629,4.8131 -6.0551,6.8231 -6.0551,9.4183 0,3.0433 -0.3101,3.3288 -3.9991,3.6805 -2.1995,0.2098 -5.4157,0.078 -7.1471,-0.2928 -1.7313,-0.3709 -7.4805,-0.7307 -12.7758,-0.7996 -5.2953,-0.069 -15.4203,-0.4368 -22.5,-0.8175 l -12.872103,-0.6921 0,-4.9294 c 0,-4.4356 0.5039,-5.4572 5.0294,-10.1971 2.7662,-2.8971 9.284903,-9.927 14.486003,-15.62171 l 9.4565,-10.3544 -11.8358,-11.8358 -11.835903,-11.8359 16.659303,-16.6836 16.6592,-16.6837 12.2511,12.2191 12.2511,12.2192 12.0789,-12.2427 12.0789,-12.2426 12.779,12.7482 12.7789,12.7483 12.385,-12.5394 12.3849,-12.5394 14.5791,14.0651 14.5791,14.0652 94.8638,0.042 94.8637,0.042 11.3229,11.3823 11.323,11.3824 12.4015,-12.9739 12.4016,-12.9748 12.1764,11.6045 c 6.6971,6.3825 12.6696,11.6251 13.2722,11.6503 0.6026,0.025 6.0204,-4.9571 12.0395,-11.0718 l 10.9439,-11.1176 97.5487,-0.039 97.5486,-0.039 13.5295,-12.9998 13.5294,-12.9998 12.3759,12.5301 12.3757,12.5301 12.7789,-12.7483 12.779,-12.7482 12.084,12.2479 12.0841,12.2478 12.2229,-12.2229 12.223,-12.2229 16.6835,16.6591 16.6836,16.6591 -12.3535,12.3857 -12.3534,12.3858 2.7226,3.5108 c 1.4975,1.9308 7.772,8.74051 13.9435,15.13241 10.5641,10.9415 11.2208,11.8773 11.2208,15.9901 l 0,4.3685 -8.7353,0.68 c -4.8044,0.374 -13.7383,0.723 -19.853,0.7757 -6.1147,0.053 -13.7382,0.4128 -16.9412,0.8004 -3.2029,0.3877 -7.6102,0.5569 -9.7941,0.3761 -3.6992,-0.3061 -3.9706,-0.5619 -3.9706,-3.742 0,-2.7173 -1.1403,-4.5396 -5.592,-8.9361 l -5.5922,-5.5226 -30.964,0 -30.9639,0 -7.1204,6.5476 c -3.9163,3.6013 -10.6339,9.8502 -14.9283,13.8865 l -7.8078,7.3388 5.9464,5.9466 5.9465,5.9464 -6.587,6.6462 -6.587,6.646 15.317,15.3445 c 8.4245,8.4394 15.9189,15.3444 16.6544,15.3444 0.9179,0 1.3372,1.8598 1.3372,5.9311 l 0,5.9312 -32.8236,-0.7785 -32.8235,-0.7784 0,30.1061 c 0,18.6291 0.4031,30.5093 1.0572,31.1634 0.7038,0.7038 -0.3128,2.3952 -3.0409,5.0591 l -4.0983,4.0018 -17.3413,-18.5772 -17.3414,-18.577 -5.5617,5.4905 -5.5616,5.4905 -6.7149,-6.6552 -6.715,-6.6552 -28.2451,28.8617 -28.2451,28.8617 4.4774,4.5623 4.4775,4.5621 16.4423,0 16.4423,0 14.3209,-14.2934 14.3209,-14.2935 16.6634,16.6879 16.6634,16.6878 -17.2193,17.19566 -17.2195,17.1956 -13.7359,-13.7665 -13.7359,-13.76646 -17.5525,0 -17.5525,0 -3.0686,3.2031 -3.0687,3.2029 13.9882,14.01706 13.9882,14.017 0,6.2041 0,6.2041 -29.2414,-0.7832 -29.2414,-0.7832 0.7525,28.9767 0.7525,28.9767 -4.1861,4.0405 -4.1861,4.0404 -16.2474,-17.0145 -16.2473,-17.0145 -4.0188,3.9243 -4.0188,3.9242 0,18.0355 0,18.0357 13.7636,13.792 13.7637,13.7921 -17.2169,17.193 -17.2168,17.1932 -16.6658,-16.6902 z m 26.2276,-8.7307 8.4293,-8.479 -8.7188,-8.7189 -8.7188,-8.7188 -8.7189,8.7188 -8.7188,8.7189 8.4293,8.479 c 4.6361,4.6634 8.6899,8.479 9.0084,8.479 0.3185,0 4.3722,-3.8156 9.0083,-8.479 z m 33.8805,-90.864 -0.7731,-22.1518 -18.4108,-18.3884 -18.4108,-18.3882 0,21.5669 0,21.5669 18.6756,19.4814 c 10.2716,10.7148 18.9044,19.2527 19.1839,18.9731 0.2796,-0.2795 0.1604,-10.4765 -0.2648,-22.6599 z m -66.9569,4.7792 17.7554,-17.1601 -0.2848,-24.4624 -0.2849,-24.46236 -18.7531,18.21816 -18.7531,18.2181 0.6557,23.4592 c 0.3607,12.9025 0.9378,23.4344 1.2825,23.4042 0.3448,-0.03 8.6168,-7.7768 18.3823,-17.2148 z m 28.8487,5.6063 4.1515,-4.2515 -3.9377,-3.9377 -3.9377,-3.9377 -4.4623,4.4623 -4.4624,4.4624 3.6123,3.7269 c 1.9867,2.0499 3.8986,3.7269 4.2485,3.7269 0.3499,0 2.5044,-1.9132 4.7878,-4.2516 z m 74.5672,-59.8158 -17.5344,-17.46196 -13.1715,0.011 c -7.2442,0 -17.856,0.3156 -23.5816,0.6948 l -10.4103,0.6893 16.1918,16.21716 16.1919,16.2172 13.8067,0.3274 c 7.5936,0.18 18.8096,0.4276 24.9242,0.5501 l 11.1177,0.2226 -17.5345,-17.4621 z m -113.4224,-1.6551 16.2195,-15.87576 -23.1019,0.1167 -23.1019,0.1165 -16.4117,15.75466 -16.4118,15.7547 23.2941,0 23.2941,0 16.2196,-15.8758 z m -112.5641,-13.69766 8.4293,-8.479 -8.7189,-8.7188 -8.7188,-8.7188 -8.7188,8.7188 -8.7189,8.7188 8.4293,8.479 c 4.6361,4.6635 8.6899,8.47906 9.0084,8.47906 0.3185,0 4.3723,-3.81556 9.0084,-8.47906 z m 309.1764,0 8.4293,-8.479 -8.7188,-8.7188 -8.7188,-8.7188 -8.7189,8.7188 -8.7188,8.7188 8.4293,8.479 c 4.636,4.6635 8.6899,8.47906 9.0084,8.47906 0.3184,0 4.3723,-3.81556 9.0083,-8.47906 z m -235.5966,-9.5375 c 0,-0.3447 -1.6771,-2.2524 -3.7269,-4.2392 l -3.7269,-3.6122 -4.4424,4.4423 -4.4423,4.4424 3.5475,3.6601 3.5476,3.6601 4.6217,-3.8633 c 2.542,-2.1248 4.6217,-4.1454 4.6217,-4.4902 z m 157.2512,4.2355 4.1516,-4.2515 -3.9377,-3.9377 -3.9377,-3.9377 -4.4624,4.4623 -4.4623,4.4624 3.6122,3.7269 c 1.9868,2.0499 3.8986,3.7269 4.2486,3.7269 0.3499,0 2.5043,-1.9131 4.7877,-4.2516 z m -7.3217,-27.338 18.106,-18.7045 -23.7676,-0.2848 -23.7677,-0.2848 -11.8006,12.4613 c -6.4904,6.8536 -14.9015,15.7388 -18.6913,19.7447 l -6.8906,7.2835 24.3529,-0.7555 24.353,-0.7556 18.1059,-18.7043 z m -109.1648,0.3294 -19.0588,-18.4532 -22.2088,-0.025 -22.2088,-0.025 7.9104,8.2058 c 4.3506,4.5133 12.4298,12.8515 17.9536,18.5294 l 10.0433,10.3236 23.314,-0.051 23.314,-0.051 -19.0589,-18.453 z m 7.4315,-60.8302 -18.5491,-18.5492 0.047,26.4669 0.047,26.4669 18.2174,17.2155 18.2174,17.2155 0.2845,-25.1332 0.2844,-25.1333 -18.5491,-18.5491 z m 63.9661,8.4434 -0.018,-24.8824 -16.8612,17.4706 -16.8612,17.4706 0.015,24.8824 0.015,24.8823 16.8643,-17.4706 16.8642,-17.4706 -0.018,-24.8823 z m -94.1623,-1.5883 0,-23.8235 -24.8823,0 -24.8824,0 0,23.8235 0,23.8236 24.8824,0 24.8823,0 0,-23.8236 z m 155.6471,-1.0588 0,-23.8235 -24.8824,0 -24.8823,0 0,23.8235 0,23.8235 24.8823,0 24.8824,0 0,-23.8235 z m 83.9528,-38.8717 -9.2616,-9.3048 -7.0074,0 -7.0073,0 -0.6864,11.9118 c -0.3775,6.5515 -0.6886,14.9039 -0.6912,18.561 l 0,6.6492 16.6764,16.6805 16.6765,16.6806 0.2837,-25.9369 0.2837,-25.9367 -9.2616,-9.3047 z m -364.8168,40.2066 18.2758,-18.2534 0,-17.6431 0,-17.6429 -3.3345,-1.1625 c -1.834,-0.6393 -4.0052,-1.1624 -4.825,-1.1624 -0.8198,0 -7.3703,5.3603 -14.5568,11.9118 l -13.0664,11.9117 -0.6298,13.7647 c -0.9998,21.8502 -1.2747,36.5295 -0.6841,36.5295 0.2998,0 8.7692,-8.2141 18.8208,-18.2534 z m 329.2135,-34.4353 0.6858,-15.0761 -9.7869,0 -9.7869,0 -8.8729,8.2059 -8.8729,8.2059 -0.034,24.8786 -0.034,24.8785 18.0083,-18.0084 18.0083,-18.0082 0.6858,-15.0762 z m -265.4083,26.7862 0,-21.6671 -8.825,-7.7152 c -7.2182,-6.3106 -10.1716,-8.1489 -16.2221,-10.0976 -4.0685,-1.3103 -7.7208,-2.3824 -8.1163,-2.3824 -0.3954,0 -0.719,6.7844 -0.719,15.0762 l 0,15.0763 16.6641,16.6884 c 9.1652,9.1787 16.7887,16.6886 16.9412,16.6886 0.1524,0 0.2771,-9.7502 0.2771,-21.6672 z m -34.3959,12.1214 4.1516,-4.2515 -3.9377,-3.9377 -3.9378,-3.9377 -4.4623,4.4623 -4.4624,4.4624 3.6123,3.7269 c 1.9868,2.0499 3.8986,3.7269 4.2485,3.7269 0.35,0 2.5044,-1.9131 4.7878,-4.2516 z m 309.1764,0 4.1516,-4.2515 -3.9377,-3.9377 -3.9377,-3.9377 -4.4623,4.4623 -4.4624,4.4624 3.6122,3.7269 c 1.9868,2.0499 3.8986,3.7269 4.2486,3.7269 0.3499,0 2.5044,-1.9131 4.7877,-4.2516 z m -155.3236,-5.6048 2.2967,-2.4448 -3.6882,-3.5748 -3.6882,-3.5747 -2.6743,2.5123 -2.6743,2.5124 3.3993,3.5071 c 1.8696,1.929 3.6992,3.5072 4.0658,3.5072 0.3666,0 1.7001,-1.1001 2.9632,-2.4447 z m 31.5595,-32.7612 c 13.9949,-14.1221 28.2664,-28.7218 31.7144,-32.4438 l 6.2692,-6.7673 -24.353,0.7269 -24.3529,0.727 -13.7795,13.7173 -13.7794,13.7174 -13.7347,-13.7652 -13.7347,-13.7652 -21.1849,0 -21.1849,0 30.6776,30.6912 30.6775,30.6912 4.8225,-4.7499 4.8224,-4.75 5.7511,5.8234 c 3.1631,3.2029 5.79,5.8235 5.8376,5.8235 0.048,0 11.5368,-11.5544 25.5317,-25.6765 z m -106.0203,-19.5882 -17.9961,-17.7353 -27.8886,0.5294 -27.8886,0.5294 8.3004,7.3064 c 4.5651,4.0184 11.8738,10.5124 16.2415,14.4309 4.3676,3.9186 9.3706,8.3583 11.1176,9.8661 l 3.1765,2.7414 26.4668,0.034 26.4667,0.034 -17.9962,-17.7353 z m 322.2391,16.9411 c -0.1941,-0.4367 -8.4954,-8.7881 -18.4471,-18.5587 l -18.0943,-17.7645 -15.5788,0.2939 -15.5786,0.294 12.4468,11.1177 12.4468,11.1176 -8.1985,0.5294 -8.1985,0.5295 6.1305,6.0563 6.1306,6.0565 14.2941,0.33 c 7.8618,0.1815 18.5029,0.434 23.647,0.5612 5.1442,0.1272 9.1942,-0.1261 9,-0.5629 z m -144.2386,-6.7309 6.5243,-6.4662 -10.7311,-9.6213 c -5.9021,-5.2916 -11.7234,-10.49 -12.9363,-11.5519 -2.1829,-1.9112 -2.3798,-1.7481 -19.4214,16.0874 l -17.216,18.0182 23.6281,0 23.6282,0 6.5242,-6.4662 z m -302.543,-5.911 c 6.1888,-5.6428 11.3782,-10.5469 11.532,-10.8981 0.1539,-0.3513 -7.2965,-3.0388 -16.5564,-5.9722 l -16.8363,-5.3336 -13.62,12.5953 c -7.491,6.9275 -15.2797,14.2317 -17.3082,16.2318 l -3.6883,3.6364 22.6125,0 22.6125,0 11.2522,-10.2596 z m 198.664,-17.2698 5.2145,-5.2941 -11.038,0 -11.0381,0 5.2146,5.2941 c 2.8679,2.9117 5.4885,5.2941 5.8235,5.2941 0.335,0 2.9555,-2.3824 5.8235,-5.2941 z m 169.7618,0.1568 c -3.1042,-2.8255 -7.0736,-6.399 -8.8206,-7.9412 l -3.1765,-2.8039 3.1765,-2.8038 c 1.747,-1.5422 5.7164,-5.1157 8.8206,-7.9412 l 5.6442,-5.1373 -30.188,0 -30.1879,0 -5.6327,5.2538 -5.6327,5.2537 19.8529,0.04 19.853,0.04 0,4.7647 0,4.7647 -20.3824,0.038 -20.3823,0.038 6.1376,5.7849 6.1376,5.7849 30.2124,0 30.2125,0 -5.6442,-5.1373 z m -333.3878,-3.2703 -5.2311,-5.231 5.5462,-5.3337 5.5462,-5.3339 -7.4118,2.1067 c -4.0764,1.1587 -12.0664,3.3625 -17.7555,4.8975 -5.689,1.535 -10.1251,3.0096 -9.8578,3.2768 0.6301,0.6302 31.4495,10.6414 33.1218,10.759 0.7002,0.05 -1.0809,-2.2643 -3.958,-5.1414 z m -68.2439,-14.8389 -3.7204,-3.7203 -4.4624,4.4623 -4.4623,4.4625 3.6205,3.7354 3.6206,3.7354 4.5621,-4.4774 4.5622,-4.4775 -3.7203,-3.7204 z m 466.9446,8.4067 4.1515,-4.2515 -3.6718,-3.6174 -3.672,-3.6174 -4.6746,4.1972 -4.6748,4.1972 3.5589,3.6717 c 1.9573,2.0195 3.8451,3.6718 4.195,3.6718 0.35,0 2.5045,-1.9132 4.7878,-4.2516 z m -315.5438,-21.7449 c 8.5767,-9.6392 15.3272,-17.7925 15.0012,-18.1185 -0.326,-0.326 -10.5029,-0.2388 -22.6154,0.1937 l -22.0227,0.7865 -11.1235,10.7423 c -6.1179,5.9082 -14.4521,13.7077 -18.5205,17.3321 l -7.3971,6.5898 25.5421,0 25.542,0 15.5939,-17.5259 z m 58.5461,2.3805 14.1715,-14.1716 -11.8414,-11.5474 c -6.5128,-6.351 -12.4193,-11.5474 -13.1257,-11.5474 -1.0169,0 -39.5302,42.3317 -46.1637,50.7406 -1.5535,1.9692 -1.1023,1.9989 20.5997,1.3553 l 22.188,-0.6579 14.1716,-14.1716 z m 23.2367,6.9493 -7.1372,-7.1373 -7.1373,7.1373 -7.1372,7.1372 14.2745,0 14.2745,0 -7.1373,-7.1372 z m 72.0981,6.1908 c -0.3979,-1.0669 -53.3616,-53.05361 -54.0506,-53.05361 -0.2437,0 -5.6067,5.51911 -11.9178,12.26441 l -11.4748,12.2645 14.7074,14.7355 14.7074,14.7356 24.1907,0 c 13.7693,0 24.0386,-0.4077 23.8377,-0.9464 z m -268.3029,-4.9935 14.2426,-3.8948 -13.4404,-14.1158 -13.4405,-14.116 -21.1765,0.029 -21.1764,0.029 19.0229,18.5004 c 10.591,10.3001 19.6219,18.2705 20.3743,17.9819 0.7432,-0.2852 7.7605,-2.2713 15.594,-4.4135 z m 295.2098,-8.0895 c 8.2198,-7.3694 10.9953,-9.2647 13.5678,-9.2647 3.1475,0 3.0369,-0.1701 -4.1289,-6.3529 l -7.3631,-6.353 -11.5914,0 c -6.3752,0 -16.7069,0.313 -22.9593,0.6956 l -11.3679,0.6955 15.4586,15.4845 c 12.9639,12.9856 15.2417,15.7308 14.115,17.0116 -2.2268,2.5312 3.3362,-2.1146 14.2692,-11.9166 z m 129.07,-5.8235 17.9924,-16.6765 -23.6011,-0.2855 -23.6009,-0.2856 -6.9034,6.9032 -6.9032,6.9032 9.5197,0.024 9.5196,0.024 -4.7704,4.4755 c -2.6236,2.4614 -7.5459,6.9769 -10.9382,10.0342 l -6.168,5.5588 13.9306,0 13.9305,0 17.9924,-16.6764 z m -394.7293,-8.3733 c 0.3815,-7.9539 0.6936,-17.1389 0.6936,-20.4112 l 0,-5.94991 -17.2059,-10.177 -17.2059,-10.1771 -0.6792,5.9707 c -0.3736,3.284 -0.7309,9.472 -0.7941,13.7511 l -0.1149,7.78031 16.147,16.7924 c 8.8809,9.2358 16.6688,16.8127 17.3065,16.8373 0.7531,0.03 1.4023,-5.0219 1.8529,-14.4166 z m 19.5835,8.59 c 4.2301,-1.2561 7.5904,-3.5305 14.4704,-9.7941 l 8.9608,-8.1579 -0.099,-12.7059 c -0.054,-6.98821 -0.4046,-15.44861 -0.7782,-18.80101 l -0.6792,-6.0952 -13.6253,8.3911 c -7.4939,4.615 -14.0023,8.7873 -14.4632,9.2716 -0.4609,0.4843 -1.1801,9.57621 -1.5982,20.20411 -0.8571,21.7885 -1.4532,20.4388 7.8119,17.6873 z m 291.1075,-20.2199 -0.2916,-16.56201 -15.7147,-8.3998 c -8.6431,-4.6198 -15.9737,-8.1407 -16.2903,-7.8241 -0.3165,0.3166 -0.781,7.1419 -1.0321,15.1676 l -0.4566,14.59211 11.4527,9.7684 c 11.2731,9.615 11.5404,9.7687 17.0385,9.7941 l 5.5857,0.025 -0.2916,-16.562 z m 36.5025,4.4435 12.4412,-12.0239 0,-13.34061 c 0,-7.3373 -0.3573,-13.3057 -0.7941,-13.2631 -0.4368,0.042 -8.6559,4.4597 -18.2647,9.8157 l -17.4706,9.7384 -0.293,15.59601 -0.2931,15.596 6.1167,-0.048 6.1165,-0.048 12.4411,-12.0239 z m -529.7485,-10.6185 15.425,-15.32521 -7.9196,-7.9739 -7.9196,-7.9738 -11.9396,11.9057 c -6.5667,6.5481 -12.6173,11.9106 -13.4458,11.9167 -0.8285,0.011 -5.8389,4.77581 -11.1344,10.59931 l -9.6281,10.5882 12.9936,0.5795 c 7.1464,0.3187 14.1523,0.6761 15.5685,0.7941 2.0262,0.1689 5.862,-3.0511 18,-15.1106 z m 720.7613,13.2076 c 3.6974,0 6.7225,-0.4317 6.7225,-0.9594 0,-0.5277 -9.3702,-10.5628 -20.8228,-22.30041 l -20.8228,-21.3411 -8.3004,8.2518 -8.3004,8.2517 14.5644,14.67141 14.5644,14.6714 7.8362,-0.6227 c 4.31,-0.3425 10.8614,-0.6227 14.5589,-0.6227 z m -420.7783,-20.41021 c 3.348,-3.6244 5.9686,-7.0738 5.8235,-7.6654 -0.1451,-0.5916 -4.3645,-4.999 -9.3765,-9.7942 l -9.1127,-8.7184 -25.5638,0 -25.5638,0 0,7.2491 c 0,3.987 0.3144,11.6773 0.6985,17.0896 l 0.6985,9.84051 28.1545,-0.7057 28.1544,-0.7058 6.0874,-6.58971 z m 49.5098,-0.2458 7.8971,-7.9502 -8.1793,-8.1793 -8.1793,-8.1794 -7.9502,7.8971 c -4.3726,4.3435 -7.9622,8.3856 -7.977,8.9825 -0.025,1.0293 14.7616,15.26631 15.9357,15.34311 0.3057,0.02 4.1096,-3.5412 8.453,-7.91381 z m 98.1273,5.46091 c 0.1896,-0.1896 0.4615,-7.68801 0.6042,-16.66301 l 0.2595,-16.3184 -27.3755,-0.2828 -27.3755,-0.2828 -8.8892,8.6765 c -4.889,4.7721 -8.8892,9.2681 -8.8892,9.9913 0,0.7231 3.6927,4.7342 8.2059,8.9137 l 8.2059,7.59901 27.4546,-0.6444 c 15.1,-0.3544 27.6097,-0.7994 27.7993,-0.9891 z m 192.4181,-1.6155 23.2014,-0.66 -13.587,-14.09881 -13.5871,-14.099 -12.8058,12.7751 -12.8058,12.7751 -14.2645,-14.2939 -14.2644,-14.2938 -14.0441,0 -14.0441,0 0,16.4118 0,16.41181 31.5,-0.1342 c 17.325,-0.074 41.9406,-0.4311 54.7014,-0.7941 z m -504.0679,-7.27761 c 0.3712,-3.9309 0.6784,-10.6015 0.6825,-14.8236 l 0.01,-7.6764 -17.7512,0 -17.7512,0 -13.2038,13.2356 -13.2038,13.2356 -12.7547,-12.7241 -12.7546,-12.724 -12.417,12.459 c -6.8294,6.8525 -13.485,13.2717 -14.7904,14.26491 -2.246,1.7089 0.7277,1.8082 55.4442,1.8529 l 57.8174,0.047 0.675,-7.14711 z m 63.6566,-16.7583 c 4.386,-2.6628 7.9746,-5.0441 7.9746,-5.2916 0,-0.2476 -9.8668,-0.4501 -21.9263,-0.4501 l -21.9263,0 11.5982,6.8336 c 10.8263,6.3789 11.7549,6.7311 13.9517,5.2917 1.2944,-0.8482 5.9421,-3.7208 10.3281,-6.3836 z m 314.9751,1.0001 c 7.0471,-3.8626 13.0683,-7.4361 13.3804,-7.9412 0.315,-0.5097 -11.9451,-0.9183 -27.5537,-0.9183 -15.4667,0 -28.1213,0.2153 -28.1213,0.4783 0,0.5478 27.6886,15.3535 28.7701,15.384 0.3913,0.012 6.4773,-3.1402 13.5245,-7.0028 z m -530.6705,-5.7729 c 3.6361,-3.8347 6.6112,-7.4202 6.6112,-7.9677 0,-0.5475 -3.4656,-4.4379 -7.7014,-8.6453 l -7.7013,-7.65 -8.2803,8.3292 -8.2803,8.3291 8.2872,7.9971 c 4.558,4.3985 8.7746,7.6783 9.3704,7.2885 0.5958,-0.3897 4.0583,-3.8462 7.6945,-7.6809 z m 45.3141,4.0605 c 2.3115,-2.475 5.784,-6.2296 7.7167,-8.3435 l 3.5141,-3.8435 -8.2904,-8.0215 -8.2904,-8.0216 -7.6765,7.6033 c -4.222,4.1818 -7.6764,8.0804 -7.6764,8.6637 0,1.0989 14.8386,16.4631 15.9001,16.4631 0.3301,0 2.4913,-2.025 4.8028,-4.5 z m 53.6567,-3.6818 8.23,-8.1817 -8.1226,-8.1705 c -6.2429,-6.2797 -8.5174,-7.9593 -9.8287,-7.2575 -0.9383,0.5021 -4.7492,4.3371 -8.4687,8.5221 l -6.7626,7.6093 7.8553,7.7975 c 4.3204,4.2886 8.083,7.8122 8.3613,7.8301 0.2783,0.018 4.2095,-3.6493 8.736,-8.1493 z m 536.4985,0.3242 7.8051,-7.8576 -3.2445,-4.0542 c -1.7844,-2.2298 -5.4322,-6.1827 -8.1062,-8.7842 l -4.8616,-4.7301 -8.4614,8.4118 -8.4615,8.4118 8.1817,8.2301 c 4.4999,4.5264 8.4431,8.23 8.7625,8.23 0.3194,0 4.093,-3.536 8.3859,-7.8576 z m 49.6095,0.1562 c 4.2076,-4.2357 7.65,-8.1785 7.65,-8.7617 0,-0.5833 -3.4544,-4.4819 -7.6765,-8.6637 l -7.6764,-7.6033 -8.2904,8.0216 -8.2904,8.0215 3.514,3.8435 c 8.4687,9.2624 11.9593,12.8435 12.5196,12.8435 0.3301,0 4.0427,-3.4656 8.2501,-7.7014 z m 56.5682,-7.7285 c 0.418,-0.6403 -2.8268,-4.6832 -7.4368,-9.2663 l -8.1784,-8.1304 -7.7774,7.8296 c -4.2775,4.3064 -7.6016,8.316 -7.3868,8.9102 0.2149,0.5943 3.6483,4.495 7.63,8.6682 l 7.2394,7.5878 7.5841,-7.2317 c 4.1713,-3.9774 7.9179,-7.7427 8.3259,-8.3674 z m -195.5545,-63.0421 c -8.9561,-1.8206 -18.2197,-6.9822 -26.1117,-14.5491 -5.7776,-5.5396 -7.2743,-7.6013 -7.0313,-9.6848 l 0.3087,-2.6471 20.9118,-0.2871 20.9117,-0.2871 0,8.6438 0,8.6438 6.366,-0.6653 c 10.4492,-1.0922 19.2215,-6.6015 23.3781,-14.6824 2.7662,-5.3777 2.7243,-15.4237 -0.087,-20.9348 -3.6872,-7.2274 -9.447,-10.6123 -30.0219,-17.6428 -19.3739,-6.6201 -26.2444,-11.3107 -31.5695,-21.5528 -2.0904,-4.0207 -2.4763,-6.3354 -2.4721,-14.8235 0,-8.84639 0.3455,-10.70509 2.8295,-15.42019 11.904,-22.5961 49.2704,-27.6054 70.4824,-9.4487 3.0223,2.587 4.6477,4.9562 5.1173,7.4593 1.2362,6.5903 0.4938,6.8213 -21.9168,6.8213 l -19.9881,0 0,-6.9025 0,-6.9025 -2.9117,0.6998 c -4.1771,1.0039 -10.9738,4.5016 -13.8678,7.1365 -4.3478,3.9586 -6.515,9.5452 -6.5092,16.77949 0.011,12.5054 5.9695,18.2269 25.7286,24.7017 30.3887,9.958 39.5946,18.1161 40.7503,36.1122 0.6399,9.9652 -1.1803,17.0311 -6.1896,24.0264 -4.4913,6.2721 -11.3357,11.1616 -19.53,13.9518 -6.3846,2.1741 -21.303,2.9334 -28.5774,1.4546 z m 0.5187,-15.7633 c 0,-3.1109 -0.1108,-3.1765 -5.3566,-3.1765 -6.0522,0 -6.0857,1.0546 -0.1337,4.1984 5.1829,2.7375 5.4903,2.6803 5.4903,-1.0219 z m 29.647,-105.77769 c -2.0382,-1.0556 -5.2544,-2.2138 -7.147,-2.5738 -3.1317,-0.5956 -3.4412,-0.4188 -3.4412,1.9662 0,2.534 0.236,2.619 7.147,2.5737 l 7.1471,-0.047 -3.7059,-1.9193 z M 55.100227,667.38383 c -2.5228,-2.7877 -5.0439,-9.2154 -5.0439,-12.8597 0,-1.6994 11.1636,-28.9618 24.808,-60.5832 26.418903,-61.22639 26.626003,-61.60319 32.610303,-59.32799 1.3708,0.5212 3.0096,1.5928 3.6419,2.3814 0.6323,0.7886 11.6912,25.9721 24.5753,55.96329 22.7937,53.0582 23.4257,54.7212 23.4245,61.6405 -0.001,7.3062 -2.5336,14.9819 -4.7067,14.2659 -0.6149,-0.2026 -4.255,-7.9541 -8.089,-17.2256 l -6.971,-16.8573 -34.1302,0 -34.130303,0 -6.2785,15.3529 c -3.4532,8.4442 -6.6487,16.224 -7.1011,17.2886 -0.7942,1.8688 -0.8841,1.8675 -2.6093,-0.039 z m 33.651,-45.7607 c -0.3337,-0.5398 -2.4885,-2.4719 -4.7886,-4.2936 l -4.182,-3.3122 -1.6269,3.8935 c -0.8947,2.1415 -1.6268,4.0737 -1.6268,4.2937 0,0.2201 2.8869,0.4001 6.4154,0.4001 3.6704,0 6.1559,-0.4199 5.8089,-0.9815 z m 26.952203,-8.9459 c 5.5323,-4.6727 10.1778,-8.5593 10.3232,-8.6368 0.3009,-0.1605 -12.4581,-31.4838 -13.1122,-32.1905 -0.2345,-0.2533 -2.3219,1.3903 -4.6385,3.6525 l -4.2122,4.113 -3.5341,-3.4254 -3.534103,-3.4254 -6.5284,15.7033 c -3.5907,8.6369 -6.5284,16.2046 -6.5284,16.8172 0,1.8692 19.133803,17.3948 20.471503,16.6111 0.6789,-0.3978 5.7608,-4.5463 11.2932,-9.219 z m 17.4078,7.5451 c -0.4042,-1.3103 -1.411,-3.711 -2.2373,-5.3348 l -1.5023,-2.9525 -5.7753,4.934 c -3.1764,2.7137 -5.7753,5.1144 -5.7753,5.3348 0,0.2205 3.6056,0.4008 8.0125,0.4008 7.8212,0 7.995,-0.057 7.2777,-2.3823 z m -26.0385,-55.15319 2.3267,-2.4767 -2.0386,-4.5533 -2.0385,-4.5534 -1.5577,3.0595 c -2.6366,5.1787 -3.1369,7.8327 -1.7838,9.4632 1.7212,2.07389 2.3744,1.95339 5.0919,-0.9393 z m 160.1406,100.91169 c -11.0434,-5.2228 -18.6956,-14.0825 -32.4344,-37.5526 l -11.7763,-20.1177 -11.221,-0.2998 -11.221,-0.2997 -0.3404,22.535 c -0.3214,21.2805 -0.4795,22.8004 -2.8392,27.2998 -2.9118,5.5521 -7.3572,10.5883 -9.3463,10.5883 -1.1326,0 -1.3902,-12.0817 -1.3902,-65.2112 l 0,-65.21109 26.7353,0.4311 c 24.0264,0.3875 27.455,0.6681 33.8378,2.7693 14.4384,4.7532 22.0198,14.2547 22.8446,28.63029 0.5437,9.4772 -0.6733,14.7318 -4.9877,21.5349 -4.1658,6.5688 -10.4644,10.9735 -19.6017,13.7077 -4.1114,1.2303 -7.6081,2.3419 -7.7703,2.4703 -0.1623,0.1284 8.1089,13.9059 18.3804,30.6168 10.2715,16.7108 18.4778,30.581 18.2363,30.8225 -0.2414,0.2414 -3.4391,-0.9798 -7.1059,-2.7139 z m -25.0943,-72.5001 c 11.1048,-4.0384 16.8795,-14.3767 14.3457,-25.6828 -2.7958,-12.47559 -13.5158,-18.25209 -33.8723,-18.25209 l -8.4184,0 0,9.5294 0,9.52939 -6.8824,0 -6.8824,0 0,13.8848 0,13.8848 18.2648,-0.5048 c 13.8771,-0.3835 19.5091,-0.9573 23.445,-2.3887 z m -36.4156,-38.64079 c 0,-4.9412 -0.1765,-5.2941 -2.6471,-5.2941 -2.4706,0 -2.6471,0.3529 -2.6471,5.2941 0,4.9412 0.1765,5.2941 2.6471,5.2941 2.4706,0 2.6471,-0.3529 2.6471,-5.2941 z m 124.5427,111.42969 c -4.5778,-8.8523 -4.8957,-13.1463 -4.8957,-66.1227 l 0,-50.60109 -14.8761,0 c -11.6907,0 -15.6017,-0.3711 -18.2647,-1.7333 -4.4367,-2.2695 -11.3298,-7.7109 -11.3298,-8.9439 0,-0.5735 20.3377,-0.9699 49.7647,-0.9699 27.3706,0 49.7647,0.3869 49.7647,0.8597 0,1.3342 -5.905,5.3819 -11.9733,8.2073 -3.5985,1.6754 -7.4173,2.563 -11.0561,2.5698 l -5.5588,0.01 0,9.5294 0,9.52939 -6.8823,0 -6.8824,0 0,40.291 c 0,33.2968 -0.2977,41.6138 -1.7151,47.9117 -0.9434,4.1915 -2.3141,8.7827 -3.046,10.2029 l -1.3309,2.582 -1.7182,-3.3226 z m 13.1043,-111.42969 c 0,-4.9412 -0.1764,-5.2941 -2.647,-5.2941 -2.4706,0 -2.6471,0.3529 -2.6471,5.2941 0,4.9412 0.1765,5.2941 2.6471,5.2941 2.4706,0 2.647,-0.3529 2.647,-5.2941 z m 76.2353,112.63509 c 0,-1.407 0.2875,-1.4793 1.5883,-0.3997 0.8735,0.7249 1.5882,1.498 1.5882,1.7178 0,0.2199 -0.7147,0.3998 -1.5882,0.3998 -0.8736,0 -1.5883,-0.773 -1.5883,-1.7179 z m 73.5922,-40.8998 c -9.7528,-23.4397 -18.3203,-43.7604 -19.0389,-45.1572 l -1.3066,-2.5396 -1.9693,3.3337 c -1.9814,3.3543 -4.006,4.2368 -5.2186,2.2749 -2.2228,-3.5966 -2.6478,1.5263 -2.6574,32.0294 -0.011,32.533 -0.052,33.1782 -2.5078,38.4516 -2.5391,5.4529 -8.5717,13.1661 -10.2974,13.1661 -0.5494,0 -0.9491,-27.6306 -0.9491,-65.6099 0,-74.69889 -0.9726,-67.80189 9.5611,-67.80189 10.4475,0 8.965,-2.5424 33.4472,57.35799 12.0992,29.6029 22.3327,53.4649 22.7412,53.0268 1.2414,-1.3315 42.2505,-103.67549 42.2505,-105.44209 0,-4.6969 12.9299,-6.8065 19.1601,-3.1262 l 3.0752,1.8165 0,65.41879 c 0,35.9803 -0.3798,65.4188 -0.844,65.4188 -1.7828,0 -8.6681,-8.1594 -10.7219,-12.7059 -2.0197,-4.4711 -2.1538,-6.8771 -2.1756,-39.0375 l -0.023,-34.2727 -3.6352,2.7727 c -4.4099,3.3637 -4.9905,3.4041 -6.82,0.4747 -1.2794,-2.0487 -1.5409,-2.1091 -2.4097,-0.5566 -0.705,1.2597 -26.6018,62.8761 -34.4646,82.0018 -0.2992,0.7279 -2.101,1.3235 -4.0038,1.3235 l -3.4598,0 -17.7323,-42.6177 z m 69.4503,-51.3165 c 3.0085,-1.7771 3.0752,-2.0107 3.0752,-10.76469 0,-4.9215 -0.2079,-8.7404 -0.4619,-8.4863 -1.5087,1.5087 -7.7812,18.31079 -7.3019,19.55979 0.7318,1.9072 0.9631,1.8919 4.6886,-0.3088 z m -94.4608,-3.7749 c 1.1069,-2.0683 0.8399,-3.3984 -1.8603,-9.26469 l -3.1527,-6.8498 -0.079,8.6471 c -0.074,8.15579 0.334,9.41149 3.1838,9.79869 0.3383,0.046 1.1968,-1.0031 1.9077,-2.3313 z m 296.5948,32.5914 c 0,-54.71339 0.2339,-65.11759 1.4637,-65.11759 2.5344,0 9.7575,8.168 11.0561,12.5025 0.8619,2.8768 1.2449,16.90119 1.2449,45.59089 l 0,41.436 6.8823,0 6.8824,0 0,9.5294 0,9.5294 14.6904,0 c 10.2968,0 16.0255,0.4711 19.1545,1.575 4.6519,1.6413 12.7433,7.4208 12.7433,9.1022 0,0.5688 -15.3253,0.9699 -37.0588,0.9699 l -37.0588,0 0,-65.1177 z m 19.0588,48.1765 c 0,-4.9412 -0.1765,-5.2941 -2.6471,-5.2941 -2.4705,0 -2.647,0.3529 -2.647,5.2941 0,4.9412 0.1765,5.2941 2.647,5.2941 2.4706,0 2.6471,-0.3529 2.6471,-5.2941 z m -380.9112,9.9233 -2.9123,-6.2174 0,-51.353 c 0,-45.80839 0.1989,-51.99529 1.8422,-57.30259 2.5344,-8.1851 4.3667,-9.541 6.7274,-4.9782 4.3623,8.4318 4.6401,12.195 4.6531,63.03519 0.012,46.6575 -0.088,49.1988 -2.145,54.6977 -3.4184,9.1364 -4.7199,9.474 -8.1654,2.1183 z m 212.8235,0 -2.9123,-6.2174 0,-51.353 c 0,-45.80839 0.1989,-51.99529 1.8422,-57.30259 2.5344,-8.1851 4.3668,-9.541 6.7274,-4.9782 4.3623,8.4318 4.6401,12.195 4.6531,63.03519 0.012,46.6575 -0.088,49.1988 -2.145,54.6977 -3.4184,9.1364 -4.7199,9.474 -8.1654,2.1183 z m 263.0199,2.0186 c -2.9686,-6.7116 -3.8734,-14.5968 -3.8734,-33.7566 l 0,-18.3492 -17.3751,-26.4918 c -18.1299,-27.64269 -19.5384,-30.68579 -18.112,-39.12899 0.6893,-4.0796 3.086,-8.536 4.0378,-7.5078 0.2688,0.2903 6.3429,10.0572 13.4982,21.7042 7.1554,11.64709 13.4088,21.63109 13.8966,22.18679 0.5315,0.6055 2.7957,-0.8632 5.6512,-3.6657 l 4.7645,-4.6759 5.5738,5.5046 5.5737,5.5045 14.241,-22.83069 c 7.8326,-12.5569 14.5753,-23.0373 14.9838,-23.2898 1.4947,-0.9237 3.2575,7.3625 2.8285,13.2945 -0.4226,5.841 -1.175,7.2084 -17.8546,32.44659 l -17.4133,26.3487 -0.5294,22.7995 c -0.5054,21.7624 -0.6507,23.0352 -3.1975,27.9776 -1.4674,2.848 -3.1757,5.3473 -3.7962,5.5542 -0.6205,0.2068 -1.9244,-1.4244 -2.8976,-3.6247 z m 6.7752,-67.6278 2.3507,-3.8035 -3.3213,-3.3213 -3.3213,-3.3214 -2.5813,2.6249 -2.5812,2.6248 2.6868,4.5 c 1.4778,2.475 3.0762,4.5 3.552,4.5 0.4757,0 1.9227,-1.7116 3.2156,-3.8035 z M 99.655827,495.68584 l -16.509,-17.0051 12.5273,-12.3838 12.527303,-12.3838 -3.0438,-3.8013 c -1.674,-2.0907 -8.086103,-9.031 -14.249003,-15.423 -10.5459,-10.9378 -11.2052,-11.8787 -11.2052,-15.9901 l 0,-4.3684 8.7353,-0.68 c 4.8044,-0.374 13.976403,-0.7177 20.382303,-0.7637 6.4059,-0.046 14.0294,-0.4062 16.9412,-0.8004 2.9118,-0.3943 7.0809,-0.569 9.2647,-0.3882 3.6814,0.3046 3.9706,0.5723 3.9706,3.6751 0,2.6528 1.2553,4.6152 6.0551,9.4655 l 6.0551,6.119 29.9848,0 29.9849,0 15.0483,-13.9724 c 8.2765,-7.6849 15.2233,-14.4042 15.4373,-14.9319 0.214,-0.5277 -2.288,-3.6648 -5.56,-6.9713 l -5.9491,-6.0118 6.3639,-6.2976 6.3639,-6.2975 -14.5544,-14.5823 c -8.0049,-8.0203 -15.3946,-14.5823 -16.4215,-14.5823 -1.561,0 -1.8671,-0.9707 -1.8671,-5.9207 l 0,-5.9206 32.8235,0.7745 32.8235,0.7744 0,-29.9763 c 0,-25.0231 -0.2598,-30.2634 -1.5721,-31.7135 -1.4122,-1.5604 -1.1566,-2.1428 2.5116,-5.7248 l 4.0836,-3.9876 17.3414,18.5785 17.3414,18.5784 6.0895,-6.0228 6.0896,-6.0228 6.9776,6.8505 6.9777,6.8505 27.9848,-28.5252 27.9848,-28.5251 -4.4783,-4.5631 -4.4784,-4.5631 -16.9717,0 -16.9717,0 -14.3209,14.2935 -14.3209,14.2934 -16.6634,-16.6878 -16.6634,-16.6879 17.2194,-17.1956 17.2193,-17.19568 13.736,13.76648 13.7359,13.7665 18.0819,0 18.0819,0 3.0687,-3.203 3.0686,-3.203 -13.9882,-14.0171 -13.9882,-14.01703 0,-5.66026 0,-5.66025 29.647,0.7794 29.6471,0.77941 -0.1095,-12.57555 c -0.06,-6.91655 -0.4176,-20.33924 -0.7942,-29.82822 l -0.6845,-17.25269 3.8221,-3.72895 3.822,-3.72895 16.2474,17.01451 16.2474,17.01451 4.0188,-3.92423 4.0187,-3.92423 0,-17.5067 0,-17.5067 -14.2932,-14.320712 -14.2933,-14.32069 17.2171,-17.19338 17.2171,-17.19337 16.666,16.69049 16.6661,16.6905 -13.7664,13.73576 -13.7663,13.735782 0,18.50005 0,18.50004 3.8586,3.95156 3.8586,3.95155 15.2002,-14.43859 c 8.3601,-7.94122 15.2003,-15.05963 15.2003,-15.81868 0,-0.96208 1.7139,-1.38008 5.6588,-1.38008 l 5.6588,0 0.6902,15.08824 c 0.3797,8.29853 0.6954,19.85294 0.7017,25.67647 0.01,5.82353 0.3151,13.80441 0.6864,17.73529 l 0.675,7.14706 29.4939,0 29.494,0 0,5.82353 c 0,3.92529 -0.4315,5.84043 -1.3236,5.87537 -0.7279,0.0285 -7.5176,5.96778 -15.0882,13.19834 l -13.7647,13.1466 2.6471,2.6054 c 2.5271,2.4875 3.4383,2.6372 20.1176,3.305 l 17.4706,0.6995 14.2807,-14.3871 14.2808,-14.38695 16.6902,16.66575 16.6902,16.6658 -17.1932,17.2168 -17.1931,17.2169 -13.7778,-13.6982 -13.7778,-13.6982 -16.2175,-0.7461 -16.2175,-0.7462 -4.7094,4.6219 -4.7094,4.6219 14.0298,14.0588 c 7.7164,7.7323 14.8703,14.0588 15.8975,14.0588 1.0525,0 1.8909,0.8087 1.921,1.8529 0.029,1.0192 5.6503,7.681 12.4911,14.8041 l 12.4377,12.9511 6.8039,-6.8649 6.8038,-6.8649 7.184,7.129 7.1842,7.129 17.7268,-17.6674 17.7269,-17.6674 4.049,3.7442 4.049,3.7442 -0.6233,17.1197 c -0.3429,9.4159 -0.8912,22.9566 -1.2185,30.0904 l -0.5951,12.9706 31.3165,0 31.3165,0 0,5.7499 c 0,4.8266 -0.3233,5.8042 -2.0138,6.0882 -2.2079,0.371 -30.5626,26.1338 -30.7151,27.9076 -0.052,0.6042 2.2907,3.4481 5.2062,6.3197 l 5.3007,5.221 -7.1536,7.2624 -7.1538,7.2624 13.5858,13.1532 13.5858,13.1532 36.4436,0 c 27.9498,0 36.4436,0.3008 36.4436,1.2904 0,0.7097 2.8589,-1.5386 6.353,-4.9962 5.4753,-5.4182 6.3529,-6.8251 6.3529,-10.1838 0,-3.8585 0.048,-3.9009 4.7792,-4.2772 2.6286,-0.2091 5.6065,-0.052 6.6177,0.3483 1.0111,0.4007 6.4092,0.762 11.9957,0.8029 5.5865,0.041 15.9497,0.3859 23.0294,0.7666 l 12.8721,0.6921 0,5.6608 c 0,4.6848 -0.3194,5.6611 -1.8529,5.6625 -1.0283,10e-4 -7.7048,6.4129 -15.0026,14.4083 l -13.1497,14.4066 12.2176,12.105 12.2176,12.1049 -16.5045,17.0005 c -9.0775,9.3503 -16.6543,16.5513 -16.8373,16.0022 -0.183,-0.5491 -5.8432,-6.154 -12.5783,-12.4554 l -12.2455,-11.4571 -11.71,12.4366 -11.71,12.4365 -12.8405,-12.8096 -12.8405,-12.8096 -12.333,12.4868 -12.3331,12.4869 -14.3916,-14.0545 -14.3916,-14.0545 -95.1031,0 -95.1032,0 -11.2965,-11.3823 -11.2965,-11.3824 -12.2635,12.4412 c -6.7449,6.8427 -12.5497,12.4412 -12.8994,12.4412 -0.3497,0 -5.7128,-5.003 -11.918,-11.1177 -6.2051,-6.1147 -11.9228,-11.1176 -12.7058,-11.1176 -0.7831,0 -6.5008,5.0029 -12.7059,11.1176 l -11.2821,11.1177 -97.6511,0 -97.6511,0 -13.2062,13.016 -13.2062,13.0161 -12.3532,-12.5073 -12.3533,-12.5072 -12.8404,12.8096 -12.8405,12.8096 -11.71,-12.4365 -11.7101,-12.4366 -12.2455,11.4571 c -6.735,6.3014 -12.3952,11.9063 -12.5782,12.4554 -0.1831,0.5491 -7.7619,-6.6539 -16.841803,-16.0068 z m 31.928503,-16.5253 c -8e-4,-0.5969 -3.2566,-4.6427 -7.2351,-8.9906 l -7.2338,-7.9053 -4.1472,3.3182 c -2.2809,1.825 -6.2757,5.5059 -8.8773,8.1798 l -4.730103,4.8617 8.411103,8.4607 8.4111,8.4607 7.7014,-7.6499 c 4.2357,-4.2075 7.7007,-8.1383 7.6999,-8.7353 z m 42.357,-8.4944 c -4.3472,-4.3764 -8.2105,-7.835 -8.5851,-7.6858 -1.9868,0.7915 -15.7705,14.5658 -15.7705,15.7597 0,0.7717 3.4466,4.8728 7.6592,9.1137 l 7.6592,7.7106 8.4706,-8.4705 8.4706,-8.4706 -7.904,-7.9571 z m 50.4828,0.3869 c -4.1817,-4.5521 -8.0915,-8.2888 -8.6884,-8.3037 -0.5969,-0.015 -4.6203,3.5317 -8.9408,7.8812 l -7.8555,7.9083 7.3526,7.7094 c 4.0439,4.2401 7.829,8.0522 8.4114,8.4711 0.5823,0.419 4.7184,-2.8722 9.1913,-7.3139 l 8.1324,-8.0757 -7.603,-8.2767 z m 535.838,-0.6373 -8.1895,-8.1894 -8.4794,8.4297 -8.4795,8.4298 8.1901,8.2384 8.1901,8.2385 8.4788,-8.4788 8.4788,-8.4788 -8.1894,-8.1894 z m 57.4412,8.3757 c 0,-1.23 -13.7347,-15.0001 -15.7704,-15.8111 -0.3746,-0.1492 -4.2341,3.3056 -8.5768,7.6773 l -7.8955,7.9487 8.4201,8.4697 8.4199,8.4697 7.7014,-7.6499 c 4.2357,-4.2075 7.7013,-8.3045 7.7013,-9.1044 z m 45.5032,-5.0203 c -2.6062,-2.6786 -6.6047,-6.3633 -8.8856,-8.1883 l -4.1472,-3.3182 -7.2338,7.9053 c -3.9786,4.3479 -7.2343,8.3706 -7.2352,8.9392 -7e-4,0.5687 3.4453,4.5037 7.6579,8.7446 l 7.6591,7.7106 8.4616,-8.4615 8.4615,-8.4616 -4.7383,-4.8701 z m -590.7973,-16.3429 0,-15.8824 -24.6176,0 c -13.5397,10e-4 -37.8203,0.3155 -53.9569,0.6987 l -29.3392,0.6966 4.4229,5.3896 c 5.6631,6.9009 20.0048,21.8012 20.9839,21.8012 0.4116,0 6.4359,-5.4488 13.3872,-12.1086 l 12.6387,-12.1086 13.6664,13.6969 13.6664,13.6968 14.5741,0 14.5741,0 0,-15.8824 z m 81.4412,15.5012 c -0.2426,-0.2097 -6.9585,-3.8036 -14.9241,-7.9866 l -14.483,-7.6055 -13.5759,7.5835 c -7.4667,4.1709 -13.7743,7.7649 -14.017,7.9866 -0.2426,0.2217 12.5824,0.4031 28.5,0.4031 15.9177,0 28.7427,-0.1715 28.5,-0.3811 z m 89.0528,-8.6945 8.9766,-9.0756 -8.4594,-8.0292 -8.4594,-8.0291 -27.4457,0.6863 c -15.095,0.3774 -27.6072,0.8479 -27.8049,1.0455 -0.1976,0.1977 -0.672,7.586 -1.0543,16.4185 l -0.6951,16.0592 27.9828,0 27.9828,0 8.9766,-9.0756 z m 148.2119,0.2383 c 0,-4.2782 -0.3096,-12.14 -0.688,-17.4706 l -0.6879,-9.6921 -9.6356,0 c -5.2995,0 -18.5776,0.3155 -29.5067,0.6975 l -19.8712,0.6944 -5.9671,6.7967 -5.9671,6.7966 9.935,9.9765 9.935,9.9765 26.2268,0 26.2268,0 0,-7.7785 z m 74.0295,7.3737 c -1.5335,-1.4068 -24.9319,-14.7661 -25.8199,-14.7417 -0.6005,0.016 -6.5623,3.4312 -13.2483,7.5882 l -12.1564,7.5583 25.8328,0 c 14.2081,0 25.6343,-0.1822 25.3918,-0.4048 z m 73.0795,-12.7629 13.1361,-13.1677 12.6391,12.1088 c 6.9515,6.6599 13.0278,12.1089 13.5028,12.1089 0.4751,0 6.0024,-5.4922 12.2829,-12.2049 6.2805,-6.7127 11.9837,-11.9883 12.6737,-11.7236 0.69,0.2648 2.3412,-0.6753 3.6695,-2.0891 l 2.4148,-2.5706 -58.2667,0 -58.2667,0 -0.675,7.1471 c -0.3713,3.9308 -0.6784,10.8397 -0.6826,15.3529 l -0.011,8.2059 17.2217,0 17.2218,0 13.1361,-13.1677 z m -244.6224,2.925 c 4.1324,-4.4688 7.5134,-8.4406 7.5134,-8.8263 0,-1.0323 -14.4581,-14.8134 -15.5412,-14.8134 -0.5079,0 -4.4732,3.5736 -8.8117,7.9412 l -7.8882,7.9412 7.8882,7.9412 c 4.3385,4.3676 8.2117,7.9411 8.6071,7.9411 0.3954,0 4.0999,-3.6562 8.2324,-8.125 z m -344.0098,-0.8811 7.8943,-7.9474 -14.8026,-14.831 -14.8026,-14.8309 -14.2947,0.6886 c -7.8621,0.3787 -14.485903,0.854 -14.719603,1.0561 -0.9038,0.7818 39.935603,43.8119 41.581503,43.8119 0.6871,0 4.8018,-3.5763 9.1437,-7.9473 z m 689.7317,-3.4284 c 17.1093,-16.8541 26.8713,-26.9095 29.3026,-30.1831 l 2.1625,-2.9118 -11.4544,-0.014 c -6.3,-0.01 -12.5481,-0.3074 -13.8849,-0.6655 -2.0616,-0.5522 -4.835,1.7344 -18.2743,15.0665 l -15.8439,15.7175 7.1283,7.1833 c 3.9205,3.9508 7.6174,7.1862 8.2155,7.1899 0.5979,0 6.2898,-5.1184 12.6486,-11.3824 z m -536.2085,-1.6938 17.4706,-9.7383 0.2938,-15.0667 0.2938,-15.0667 -6.6467,0.048 -6.6468,0.048 -11.9117,11.4813 -11.9118,11.4812 0,13.3528 c 0,7.3441 0.3574,13.3181 0.7941,13.2755 0.4368,-0.043 8.6559,-4.4596 18.2647,-9.8157 z m 63.908,3.3848 c 0.3742,-3.5796 0.6803,-10.1557 0.6803,-14.6138 l 0,-8.1054 -11.9118,-10.2572 c -11.7818,-10.1452 -11.9724,-10.2572 -17.4706,-10.2686 l -5.5588,-0.012 0,16.2009 0,16.2008 16.147,8.6391 c 8.8809,4.7515 16.4366,8.6581 16.7904,8.6815 0.3538,0.023 0.9494,-2.8863 1.3235,-6.4658 z m 312.3432,-0.6388 c 0.3712,-3.9309 0.6783,-9.7078 0.6825,-12.8376 l 0.011,-5.6905 -16.078,-16.5448 c -8.8428,-9.0996 -16.8681,-16.6872 -17.8339,-16.8614 -1.532,-0.2761 -1.8443,1.4126 -2.4472,13.2353 -0.3802,7.4536 -0.6931,16.1855 -0.6954,19.4044 l 0,5.8524 17.2059,10.241 c 9.4632,5.6325 17.4943,10.265 17.8469,10.2946 0.3525,0.03 0.9447,-3.1625 1.316,-7.0934 z m -62.9885,-1.4785 c 6.779,-4.1616 12.8832,-8.0925 13.5649,-8.7352 0.795,-0.7497 1.5089,-7.8826 1.9913,-19.8942 l 0.7519,-18.7255 -8.4586,2.3137 c -7.5822,2.0741 -9.1871,2.9956 -15.4912,8.8952 l -7.0328,6.5814 0,12.0574 c 0,12.2161 0.9511,25.0739 1.8547,25.0739 0.2718,0 6.0407,-3.405 12.8198,-7.5667 z m -145.4372,-23.1411 11.6129,-11.649 -14.7932,-14.8216 -14.7933,-14.8216 -23.573,0 c -12.9651,0 -23.573,0.2935 -23.573,0.6521 0,0.7463 52.1248,52.1618 52.9592,52.2387 0.3012,0.028 5.7733,-5.1916 12.1604,-11.5986 z m 62.8857,-16.1121 c 12.2912,-13.8127 22.3477,-25.416 22.3477,-25.7852 0,-0.3691 -9.7657,-0.5031 -21.7014,-0.2977 l -21.7014,0.3734 -13.8144,13.8149 -13.8144,13.8149 11.9569,11.8665 c 6.5764,6.5266 12.502,11.7452 13.1682,11.5969 0.6661,-0.1483 11.2676,-11.571 23.5588,-25.3837 z m -249.8155,5.0423 6.7758,-6.8365 -8.8714,-0.3106 -8.8713,-0.3106 11.1483,-10.0588 11.1482,-10.0588 -14.1653,-0.2949 -14.1653,-0.295 -18.4767,17.1405 c -10.1623,9.4273 -18.4768,17.3027 -18.4768,17.5009 0,0.1981 10.6152,0.3602 23.5894,0.3602 l 23.5894,0 6.7757,-6.8364 z m 435.7265,-1.7126 c -4.6452,-4.702 -13.0538,-12.8198 -18.6858,-18.0396 l -10.2402,-9.4905 -9.8775,2.7329 c -5.4327,1.5031 -12.3986,3.4458 -15.4799,4.3171 l -5.6023,1.5842 13.0141,13.7014 13.0141,13.7014 21.1516,0.021 21.1517,0.021 -8.4458,-8.5491 z m -308.1719,6.7947 11.368,-0.6956 -15.69,-15.7162 c -8.6295,-8.6439 -16.0947,-15.7162 -16.5893,-15.7162 -0.4946,0 -5.8713,4.4958 -11.9481,9.9907 -7.1694,6.4828 -12.0568,10.1076 -13.9194,10.3235 -2.7322,0.3168 -2.524,0.6264 4.3186,6.4211 l 7.1893,6.0882 11.9515,0 c 6.5733,0 17.0671,-0.313 23.3194,-0.6955 z m 163.7357,-2.311 12.2448,-0.6994 10.8622,-10.0588 c 5.9741,-5.5323 11.4681,-10.297 12.2088,-10.5882 0.7406,-0.2912 4.3605,-3.2691 8.044,-6.6177 l 6.6974,-6.0882 -26.4244,0 -26.4243,0 -15.0502,16.9077 c -8.2776,9.2993 -15.0501,17.161 -15.0501,17.4706 0,0.7331 17.3609,0.561 32.8918,-0.326 z m -85.3036,-26.6405 6.2866,-6.353 -13.169,0 -13.169,0 6.2867,6.353 c 3.4576,3.4941 6.5547,6.3529 6.8823,6.3529 0.3277,0 3.4247,-2.8588 6.8824,-6.3529 z m -121.1273,0.01 5.7155,-5.2058 -19.8529,-0.048 -19.853,-0.048 0,-4.7647 0,-4.7647 20.1177,0 c 11.0647,0 20.0787,-0.3574 20.031,-0.7941 -0.048,-0.4368 -2.6737,-3.0574 -5.8358,-5.8236 l -5.7492,-5.0294 -30.2787,0 -30.2787,0 5.1439,4.6174 c 2.8292,2.5396 6.6925,5.9172 8.5851,7.5059 1.8927,1.5887 3.4412,3.2055 3.4412,3.593 0,0.3875 -3.5447,3.7726 -7.8771,7.5224 -4.3324,3.7499 -7.6383,7.2043 -7.3464,7.6766 0.2919,0.4723 13.5337,0.8385 29.4263,0.8137 l 28.8957,-0.045 5.7154,-5.2057 z m -117.0627,-6.4071 4.181,-4.2817 -4.2308,-3.5943 -4.2308,-3.5943 -4.1987,4.1491 -4.1987,4.149 3.6123,3.7269 c 1.9868,2.0498 3.8986,3.7269 4.2485,3.7269 0.3499,0 2.5177,-1.9267 4.8172,-4.2816 z m 466.9104,0.031 4.1502,-4.2502 -3.4083,-3.4083 -3.4083,-3.4083 -4.4559,4.4559 -4.4561,4.456 3.0683,3.2025 c 1.6875,1.7614 3.3589,3.2026 3.714,3.2026 0.3552,0 2.5134,-1.9126 4.7961,-4.2502 z m -63.0146,-1.4522 c 9.0265,-2.5469 15.6971,-4.8999 14.8236,-5.2289 -3.6253,-1.3653 -32.0312,-10.2448 -32.7735,-10.2448 -0.4435,0 1.5295,2.3358 4.3843,5.1907 l 5.1908,5.1907 -5.0773,4.8436 c -2.7925,2.6639 -4.6008,4.8517 -4.0184,4.8616 0.5823,0.01 8.4441,-2.0659 17.4705,-4.6129 z m -186.3387,-22.4754 14.3084,-14.1758 14.2652,14.2946 14.2652,14.2946 20.9264,0 c 11.5096,0 20.9265,-0.3604 20.9265,-0.8009 0,-0.4405 -13.8157,-14.6105 -30.7015,-31.4888 l -30.7015,-30.6878 -4.48,4.4799 -4.48,4.48 -5.5963,-5.5267 -5.5963,-5.5268 -20.7052,20.6238 c -11.3878,11.3431 -25.9383,26.1906 -32.3343,32.9945 l -11.6292,12.3708 23.6121,-0.5778 23.6122,-0.5778 14.3083,-14.1758 z m -180.0109,7.2547 c -4.3658,-3.9245 -9.8453,-8.9102 -12.1765,-11.0795 l -4.2385,-3.9441 8.9668,-0.026 8.9669,-0.026 -6.1237,-6.1883 -6.1237,-6.1882 -23.373,-0.7231 c -12.8552,-0.3977 -23.5527,-0.5434 -23.7723,-0.3238 -0.2196,0.2196 7.5894,8.3248 17.3534,18.0115 l 17.7526,17.6123 15.353,0 15.3529,0.01 -7.9379,-7.1354 z m 121.6996,-10.8413 17.1987,-18 -24.1576,0 -24.1576,0 -6.5523,6.4941 -6.5523,6.494 12.8669,11.506 c 7.0768,6.3283 13.1568,11.5059 13.5112,11.5059 0.3544,0 8.3838,-8.1 17.843,-18 z m 78.1386,11.9233 -6.0768,-6.0767 -6.0767,6.0767 -6.0767,6.0767 12.1534,0 12.1535,0 -6.0767,-6.0767 z m 133.1585,1.1385 c -2.3294,-2.1022 -9.7147,-8.946 -16.4118,-15.2083 -6.697,-6.2624 -13.6746,-12.6295 -15.5058,-14.1492 l -3.3293,-2.7631 -26.306,0 -26.3061,0 17.9767,18 17.9766,18 28.0705,-0.029 28.0705,-0.029 -4.2353,-3.8221 z m 93.8318,-12.5323 17.1269,-15.8824 -23.0565,-0.2857 -23.0566,-0.2858 -10.7169,9.7445 c -5.8943,5.3594 -11.359,10.3162 -12.1438,11.0151 -1.1388,1.0141 1.8543,2.3461 14.8235,6.5964 8.9378,2.9292 17.0708,5.248 18.0735,5.153 1.0027,-0.095 9.5302,-7.3198 18.9499,-16.0551 z m -52.7153,-10.2194 c 7.0859,-6.4942 13.745,-12.61 14.7979,-13.5908 1.6877,-1.5722 2.0117,-4.655 2.7371,-26.0454 0.4526,-13.3441 0.6457,-24.478 0.4294,-24.7419 -0.2164,-0.2639 -8.9525,8.0694 -19.4137,18.5184 l -19.0201,18.9982 0,18.1875 0,18.1875 2.9117,1.0634 c 1.6015,0.5849 3.3083,1.1011 3.7929,1.1471 0.4847,0.046 6.6788,-5.2298 13.7648,-11.724 z m -341.9851,-7.417 c 0.3807,-7.0797 0.6922,-15.7932 0.6922,-19.3633 0,-6.3715 -0.096,-6.5856 -5.1928,-11.606 -2.8561,-2.8131 -5.6727,-4.8181 -6.2592,-4.4556 -0.5866,0.3625 -6.1061,-4.7033 -12.2656,-11.2573 l -11.1991,-11.9163 -0.012,25.9213 -0.012,25.9213 9.7732,9.814 9.7732,9.814 7.0053,0 7.0053,0 0.6921,-12.8721 z m 37.2857,3.6074 9.9503,-9.2647 0.022,-24.349 0.022,-24.349 -17.4665,17.4667 -17.4665,17.4666 -0.6988,16.1471 -0.6989,16.147 8.1928,0 8.1928,0 9.9503,-9.2647 z m 272.5829,-6.3653 0,-15.6301 -16.9412,-16.9164 -16.9411,-16.9163 0,21.927 0,21.927 9.7941,8.5418 c 7.7068,6.7214 11.148,8.9718 16.147,10.5599 3.4941,1.11 6.7103,2.0449 7.1471,2.0776 0.4368,0.033 0.7941,-6.974 0.7941,-15.5705 z m -201.1764,-33.6053 0,-23.8235 -24.8824,0 -24.8824,0 0,23.8235 0,23.8235 24.8824,0 24.8824,0 0,-23.8235 z m 81.2832,-40.5756 c -7.144,-6.8605 -15.4906,-14.7777 -18.5479,-17.5939 l -5.5589,-5.1203 0.014,24.7626 0.014,24.7625 18.2509,18.9763 18.2508,18.9762 0.2833,-26.1449 0.2832,-26.1449 -12.9891,-12.4736 z m 74.3638,39.5168 0,-23.8235 -24.8823,0 -24.8824,0 0,23.8235 0,23.8235 24.8824,0 24.8823,0 0,-23.8235 z m -110.1946,-36.5294 -0.022,-24.8824 -16.8642,17.4706 -16.8642,17.4706 0.022,24.8824 0.022,24.8823 16.8642,-17.4706 16.8642,-17.4706 -0.022,-24.8823 z m 10.1739,43.3696 c 1.915,-2.116 1.8863,-2.228 -1.4196,-5.5339 l -3.3742,-3.3742 -2.3384,2.3385 -2.3385,2.3385 3.0614,3.1954 c 3.6297,3.7886 3.8812,3.8292 6.4093,1.0357 z m -154.6105,-5.2682 4.1516,-4.2516 -3.9377,-3.9377 -3.9377,-3.9377 -4.4624,4.4623 -4.4623,4.4624 3.6123,3.7269 c 1.9867,2.0498 3.8985,3.7269 4.2485,3.7269 0.3499,0 2.5044,-1.9132 4.7877,-4.2515 z m 309.1765,0 4.1515,-4.2516 -3.9376,-3.9377 -3.9378,-3.9377 -4.4623,4.4623 -4.4624,4.4624 3.6123,3.7269 c 1.9868,2.0498 3.8986,3.7269 4.2485,3.7269 0.35,0 2.5044,-1.9132 4.7878,-4.2515 z m -188.8464,-54.8066 c 9.7021,-10.321 17.476,-18.9327 17.2754,-19.1371 -0.2006,-0.2044 -11.0186,-0.026 -24.04,0.3973 l -23.6752,0.7689 -17.7778,18.3969 -17.7777,18.3968 24.1776,-0.029 24.1776,-0.029 17.6401,-18.7654 z m 117.3378,9.5581 c -4.3507,-4.5132 -12.4298,-12.8514 -17.9536,-18.5294 l -10.0434,-10.3235 -23.3139,0.051 -23.314,0.051 19.0588,18.4531 19.0588,18.4531 22.2088,0.026 22.2088,0.026 -7.9103,-8.2059 z m -233.4401,-25.6849 8.4293,-8.479 -8.7188,-8.7188 -8.7189,-8.7189 -8.7188,8.7189 -8.7188,8.7188 8.4293,8.479 c 4.6361,4.6635 8.6898,8.479 9.0083,8.479 0.3186,0 4.3723,-3.8155 9.0084,-8.479 z m 309.1765,0 8.4293,-8.479 -8.7188,-8.7188 -8.7189,-8.7189 -8.7188,8.7189 -8.7189,8.7188 8.4293,8.479 c 4.6361,4.6635 8.6899,8.479 9.0084,8.479 0.3185,0 4.3723,-3.8155 9.0084,-8.479 z m -239.2866,-4.2431 4.1515,-4.2516 -3.9377,-3.9377 -3.9377,-3.9377 -4.4623,4.4624 -4.4624,4.4623 3.6123,3.7269 c 1.9868,2.0498 3.8986,3.727 4.2485,3.727 0.3499,0 2.5044,-1.9133 4.7878,-4.2516 z m 160.9412,0 4.1515,-4.2516 -3.6719,-3.6152 -3.672,-3.6152 -4.7378,4.1298 -4.7378,4.1299 3.622,3.7369 c 1.9921,2.0553 3.9083,3.737 4.2582,3.737 0.3499,0 2.5044,-1.9133 4.7878,-4.2516 z m -107.7294,-10.4124 8.7571,-0.689 -16.1689,-16.0363 -16.1688,-16.03634 -24.8824,-0.68364 -24.8823,-0.68364 17.5919,17.51412 17.592,17.514 14.7021,-0.105 c 8.0862,-0.058 18.6429,-0.4151 23.4593,-0.7941 z m 102.9488,-16.0786 16.4117,-15.75463 -23.2941,-0.0107 -23.2941,-0.0107 -16.1658,15.88173 -16.1658,15.8818 23.0482,-0.1164 23.0481,-0.1164 16.4118,-15.7546 z m -35.686,-50.25745 c -0.3332,-12.81176 -0.7564,-23.47065 -0.9404,-23.68642 -0.1841,-0.21578 -8.6932,7.64599 -18.9091,17.47059 l -18.5743,17.86289 0,24.71123 0,24.71126 19.5187,-18.88773 19.5188,-18.8877 -0.6058,-23.29412 z m -50.1169,36.26471 -0.038,-21.44118 -18.5352,-19.05882 -18.5351,-19.05882 0.6654,22.7647 0.6654,22.76471 17.6315,17.73529 c 9.6974,9.75436 17.7559,17.73526 17.908,17.73526 0.152,0 0.2592,-9.6485 0.2382,-21.44114 z m 9.0541,-39.98686 4.1515,-4.25158 -3.9377,-3.9377 -3.9377,-3.9377 -4.4623,4.46236 -4.4624,4.46234 3.6123,3.72692 c 1.9867,2.04981 3.8986,3.72693 4.2485,3.72693 0.3499,0 2.5044,-1.91321 4.7878,-4.25157 z m 4.2277,-70.933352 8.4293,-8.47902 -8.7188,-8.71884 -8.7188,-8.71884 -8.7189,8.71884 -8.7188,8.71884 8.4293,8.47902 c 4.6361,4.66347 8.6899,8.47903 9.0084,8.47903 0.3185,0 4.3722,-3.81556 9.0083,-8.47903 z"
     id="path3338"
     inkscape:connector-curvature="0" />
</svg>
