<?xml version="1.0" encoding="UTF-8" standalone="no"?>
<!-- Created with Inkscape (http://www.inkscape.org/) -->

<svg
   xmlns:dc="http://purl.org/dc/elements/1.1/"
   xmlns:cc="http://creativecommons.org/ns#"
   xmlns:rdf="http://www.w3.org/1999/02/22-rdf-syntax-ns#"
   xmlns:svg="http://www.w3.org/2000/svg"
   xmlns="http://www.w3.org/2000/svg"
   xmlns:sodipodi="http://sodipodi.sourceforge.net/DTD/sodipodi-0.dtd"
   xmlns:inkscape="http://www.inkscape.org/namespaces/inkscape"
   id="svg2"
   version="1.1"
   inkscape:version="0.91 r13725"
   width="960"
   height="223.52942"
   viewBox="0 0 960 223.52942"
   sodipodi:docname="artimisly.word.corrected.svg">
  <metadata
     id="metadata8">
    <rdf:RDF>
      <cc:Work
         rdf:about="">
        <dc:format>image/svg+xml</dc:format>
        <dc:type
           rdf:resource="http://purl.org/dc/dcmitype/StillImage" />
        <dc:title></dc:title>
      </cc:Work>
    </rdf:RDF>
  </metadata>
  <defs
     id="defs6" />
  <sodipodi:namedview
     pagecolor="#ffffff"
     bordercolor="#666666"
     borderopacity="1"
     objecttolerance="10"
     gridtolerance="10"
     guidetolerance="10"
     inkscape:pageopacity="0"
     inkscape:pageshadow="2"
     inkscape:window-width="640"
     inkscape:window-height="480"
     id="namedview4"
     showgrid="false"
     inkscape:zoom="0.29277779"
     inkscape:cx="529.41174"
     inkscape:cy="211.76471"
     inkscape:window-x="20"
     inkscape:window-y="43"
     inkscape:window-maximized="0"
     inkscape:current-layer="svg2" />
  <path
     style="fill:#CCCCCC"
     d="m 676.95761,185.29273 c -8.95614,-1.82061 -18.2197,-6.98215 -26.11174,-14.54912 -5.7775,-5.53953 -7.27433,-7.60123 -7.0313,-9.68478 l 0.30876,-2.64706 20.91176,-0.28709 20.91177,-0.28709 0,8.64381 0,8.6438 6.36597,-0.66537 c 10.44923,-1.09216 19.22144,-6.60146 23.37805,-14.68235 2.76618,-5.37774 2.72434,-15.42373 -0.0872,-20.93479 -3.68717,-7.22745 -9.44701,-10.61231 -30.02187,-17.6428 -19.37397,-6.62015 -26.24443,-11.31069 -31.56944,-21.552823 -2.09042,-4.02071 -2.47643,-6.33535 -2.47214,-14.82353 0.004,-8.84642 0.34552,-10.70503 2.82951,-15.42013 11.90402,-22.59616 49.27041,-27.60542 70.48242,-9.44873 3.02228,2.58696 4.64765,4.95621 5.11722,7.45925 1.23634,6.5903 0.4939,6.82137 -21.91682,6.82137 l -19.98801,0 0,-6.90252 0,-6.90252 -2.91176,0.69983 c -4.17702,1.00392 -10.97375,4.50158 -13.86775,7.13647 -4.34787,3.95858 -6.51507,9.54524 -6.50918,16.7795 0.0106,12.50542 5.96952,18.226903 25.72857,24.701683 30.38872,9.95798 39.59461,18.11608 40.75031,36.11223 0.63995,9.96521 -1.18033,17.03106 -6.18957,24.02639 -4.49137,6.27214 -11.33571,11.16156 -19.53003,13.95179 -6.38465,2.17402 -21.30296,2.93336 -28.57748,1.45458 z m 0.51866,-15.76332 c 0,-3.11082 -0.1107,-3.17647 -5.35661,-3.17647 -6.05213,0 -6.0857,1.05463 -0.1336,4.19841 5.18286,2.73748 5.49021,2.68027 5.49021,-1.02194 z M 707.12333,63.751797 c -2.03824,-1.05563 -5.25442,-2.21384 -7.14706,-2.57379 -3.13173,-0.59562 -3.44118,-0.41881 -3.44118,1.96612 0,2.53403 0.23605,2.61904 7.14706,2.57379 l 7.14706,-0.0468 -3.70588,-1.91933 z M 49.343746,181.48502 c -2.52282,-2.78769 -5.04394,-9.21536 -5.04394,-12.85969 0,-1.69937 11.16362,-28.96177 24.80804,-60.58312 26.41883,-61.226463 26.62594,-61.603253 32.610274,-59.328003 1.37074,0.52115 3.00958,1.59277 3.64185,2.38137 0.63229,0.78862 11.69119,25.97208 24.57534,55.963253 22.79373,53.05824 23.42571,54.72127 23.42453,61.64054 -0.001,7.3062 -2.53365,14.98181 -4.70672,14.26587 -0.6149,-0.2026 -4.25497,-7.95413 -8.08902,-17.22562 l -6.971,-16.85727 -34.130234,0 -34.13024,0 -6.27854,15.35295 c -3.45321,8.44411 -6.6487,16.22393 -7.10109,17.28848 -0.7942,1.86883 -0.88411,1.8675 -2.60925,-0.0388 z m 33.65092,-45.76062 c -0.33363,-0.53982 -2.48849,-2.47199 -4.78858,-4.29369 l -4.182,-3.3122 -1.62685,3.89358 c -0.89476,2.14147 -1.62684,4.07363 -1.62684,4.29369 0,0.22006 2.88695,0.4001 6.41543,0.4001 3.67033,0 6.15588,-0.41997 5.80884,-0.98148 z m 26.952204,-8.94597 c 5.53235,-4.67272 10.17779,-8.55927 10.32319,-8.63679 0.30093,-0.16045 -12.45804,-31.483743 -13.11219,-32.190473 -0.23449,-0.25335 -2.32181,1.39026 -4.63851,3.65245 l -4.212174,4.11307 -3.53412,-3.4254 -3.53411,-3.4254 -6.52839,15.703323 c -3.59062,8.63682 -6.5284,16.20452 -6.5284,16.81712 0,1.8692 19.13386,17.39483 20.47159,16.61108 0.67886,-0.39772 5.760764,-4.54627 11.293114,-9.21898 z m 17.4078,7.5451 c -0.40419,-1.31029 -1.41094,-3.71095 -2.23722,-5.33479 l -1.50232,-2.95244 -5.7753,4.934 c -3.17642,2.7137 -5.77531,5.11435 -5.77531,5.33479 0,0.22043 3.60563,0.40079 8.01253,0.40079 7.82115,0 7.99497,-0.0568 7.27762,-2.38235 z m -26.03845,-55.153143 2.32673,-2.47669 -2.03859,-4.55335 -2.038604,-4.55336 -1.55766,3.05945 c -2.63662,5.17869 -3.13691,7.83277 -1.78376,9.46321 1.72119,2.0739 2.37435,1.95342 5.091884,-0.93926 z M 261.45683,180.08201 c -11.0434,-5.22271 -18.69566,-14.08249 -32.43441,-37.5526 l -11.77631,-20.11764 -11.22099,-0.29977 -11.22098,-0.29975 -0.3404,22.53505 c -0.32145,21.28048 -0.47952,22.80032 -2.83924,27.29976 -2.91177,5.55206 -7.35724,10.58824 -9.34631,10.58824 -1.1326,0 -1.39014,-12.08164 -1.39014,-65.2111 l 0,-65.211133 26.73529,0.43114 c 24.02631,0.38744 27.45495,0.66804 33.83776,2.7693 14.43843,4.75319 22.01981,14.25466 22.84457,28.63027 0.54371,9.47723 -0.67328,14.73177 -4.98768,21.534863 -4.16583,6.56885 -10.46439,10.97352 -19.60166,13.70773 -4.11144,1.2303 -7.6081,2.34193 -7.77036,2.47029 -0.16226,0.12835 8.10892,13.90591 18.38041,30.61677 10.27148,16.71087 18.47785,30.58099 18.23637,30.82246 -0.24149,0.24148 -3.43914,-0.97977 -7.10592,-2.71388 z m -25.09428,-72.50003 c 11.10474,-4.03839 16.87945,-14.376743 14.34569,-25.682853 -2.79584,-12.47559 -13.51587,-18.25206 -33.87231,-18.25206 l -8.41847,0 0,9.52941 0,9.52941 -6.88236,0 -6.88235,0 0,13.88481 0,13.884803 18.26471,-0.50479 c 13.87716,-0.38354 19.50914,-0.95736 23.44509,-2.38873 z M 199.94687,68.941187 c 0,-4.94118 -0.17648,-5.29412 -2.64706,-5.29412 -2.47058,0 -2.64706,0.35294 -2.64706,5.29412 0,4.94118 0.17648,5.29411 2.64706,5.29411 2.47058,0 2.64706,-0.35293 2.64706,-5.29411 z M 324.48959,180.37089 c -4.57774,-8.85237 -4.89567,-13.14637 -4.89567,-66.12275 l 0,-50.601073 -14.87611,0 c -11.69071,0 -15.6017,-0.37115 -18.2647,-1.73331 -4.43675,-2.26945 -11.32977,-7.71092 -11.32977,-8.9439 0,-0.57349 20.33766,-0.96985 49.7647,-0.96985 27.37059,0 49.76471,0.38686 49.76471,0.8597 0,1.33419 -5.90508,5.38186 -11.9734,8.20722 -3.59841,1.6754 -7.41725,2.56303 -11.05601,2.56979 l -5.55883,0.0104 0,9.52941 0,9.52941 -6.88235,0 -6.88235,0 0,40.290973 c 0,33.29685 -0.29773,41.61388 -1.71514,47.91177 -0.94333,4.19143 -2.31403,8.78272 -3.046,10.20286 l -1.33086,2.58207 -1.71822,-3.32267 z M 337.59392,68.941187 c 0,-4.94118 -0.17647,-5.29412 -2.64705,-5.29412 -2.47059,0 -2.64706,0.35294 -2.64706,5.29412 0,4.94118 0.17647,5.29411 2.64706,5.29411 2.47058,0 2.64705,-0.35293 2.64705,-5.29411 z m 76.2353,112.635053 c 0,-1.40696 0.28746,-1.47931 1.58823,-0.39977 0.87353,0.72497 1.58824,1.49802 1.58824,1.71788 0,0.21988 -0.71471,0.39977 -1.58824,0.39977 -0.87353,0 -1.58823,-0.77305 -1.58823,-1.71788 z M 487.4214,140.67647 C 477.66861,117.23678 469.10108,96.916017 468.38246,95.519257 l -1.3066,-2.53958 -1.96926,3.33369 c -1.98141,3.35426 -4.00601,4.236823 -5.21856,2.27488 -2.22283,-3.59662 -2.64787,1.526333 -2.65741,32.029403 -0.0106,32.53303 -0.0523,33.17822 -2.50779,38.4516 -2.53912,5.45288 -8.57174,13.16605 -10.29743,13.16605 -0.54942,0 -0.94914,-27.63057 -0.94914,-65.6098 0,-74.698963 -0.97258,-67.801963 9.56115,-67.801963 10.44749,0 8.96498,-2.54234 33.44721,57.358043 12.09915,29.60285 22.33267,53.4649 22.74116,53.02678 1.24143,-1.33151 42.25048,-103.675473 42.25048,-105.442143 0,-4.69683 12.9299,-6.80646 19.16016,-3.12615 l 3.07513,1.81653 0,65.418763 c 0,35.98031 -0.37976,65.41876 -0.84393,65.41876 -1.78284,0 -8.66819,-8.15939 -10.72193,-12.70588 -2.01968,-4.47103 -2.15377,-6.87712 -2.17559,-39.03744 l -0.0233,-34.272723 -3.63524,2.772733 c -4.40992,3.36362 -4.99053,3.40402 -6.81994,0.47466 -1.27943,-2.048693 -1.54093,-2.109093 -2.40975,-0.556603 -0.70498,1.259743 -26.60179,62.876113 -34.46458,82.001723 -0.29926,0.72794 -2.101,1.32353 -4.00385,1.32353 l -3.45974,0 -17.73236,-42.61765 z m 69.45033,-51.316523 c 3.00841,-1.77711 3.07513,-2.01066 3.07513,-10.7647 0,-4.9215 -0.20784,-8.74035 -0.46185,-8.48633 -1.50877,1.50877 -7.7812,18.31087 -7.30192,19.55984 0.73185,1.90716 0.96308,1.89194 4.68864,-0.30881 z m -94.46083,-3.77493 c 1.10691,-2.06829 0.83986,-3.39833 -1.86028,-9.2647 l -3.15274,-6.84972 -0.0785,8.64706 c -0.074,8.15577 0.33403,9.41154 3.18381,9.79876 0.33835,0.0459 1.1968,-1.00315 1.90766,-2.3314 z m 296.59478,32.591463 c 0,-54.713393 0.23386,-65.117653 1.46366,-65.117653 2.53441,0 9.75757,8.16809 11.05622,12.50258 0.8619,2.87678 1.24482,16.90112 1.24482,45.590863 l 0,41.43597 6.88236,0 6.88235,0 0,9.52941 0,9.52941 14.6904,0 c 10.29675,0 16.02554,0.47106 19.15447,1.57501 4.65194,1.64131 12.74336,7.42076 12.74336,9.1022 0,0.56878 -15.32529,0.96985 -37.05882,0.96985 l -37.05882,0 0,-65.11764 z m 19.05882,48.17646 c 0,-4.94118 -0.17647,-5.29411 -2.64706,-5.29411 -2.47058,0 -2.64706,0.35293 -2.64706,5.29411 0,4.94118 0.17648,5.29412 2.64706,5.29412 2.47059,0 2.64706,-0.35294 2.64706,-5.29412 z m -380.91119,9.9233 -2.91233,-6.21741 0,-51.35295 c 0,-45.808433 0.1989,-51.995313 1.84225,-57.302653 2.5344,-8.18504 4.36671,-9.54094 6.72734,-4.97814 4.36229,8.43173 4.64008,12.19499 4.65314,63.035193 0.012,46.65747 -0.0877,49.1988 -2.14506,54.69765 -3.41835,9.13635 -4.71984,9.47399 -8.16534,2.11831 z m 212.82352,0 -2.91233,-6.21741 0,-51.35295 c 0,-45.808433 0.1989,-51.995313 1.84225,-57.302653 2.5344,-8.18504 4.36672,-9.54094 6.72734,-4.97814 4.36229,8.43173 4.64008,12.19499 4.65314,63.035193 0.012,46.65747 -0.0877,49.1988 -2.14506,54.69765 -3.41835,9.13635 -4.71983,9.47399 -8.16534,2.11831 z m 263.01984,2.01857 c -2.96857,-6.71152 -3.87335,-14.59671 -3.87335,-33.75659 l 0,-18.3492 -17.37507,-26.491793 c -18.12991,-27.64269 -19.53848,-30.68578 -18.11201,-39.12898 0.68924,-4.07959 3.08595,-8.53597 4.03778,-7.50775 0.2687,0.29026 6.34289,10.05716 13.49822,21.70422 7.15532,11.64706 13.40875,21.63108 13.89653,22.18673 0.53153,0.60551 2.79572,-0.86314 5.65128,-3.66565 l 4.76442,-4.67593 5.57379,5.50455 5.5738,5.50456 14.24098,-22.83072 c 7.83254,-12.5569 14.57527,-23.03732 14.98383,-23.28982 1.49458,-0.92371 3.25744,7.36251 2.82836,13.29453 -0.4225,5.84097 -1.17497,7.20841 -17.85444,32.44662 l -17.41335,26.348653 -0.52941,22.79956 c -0.50533,21.7624 -0.65079,23.03511 -3.19752,27.9776 -1.46746,2.84793 -3.17575,5.34726 -3.7962,5.55408 -0.62046,0.20682 -1.92439,-1.42429 -2.89764,-3.62467 z m 6.77523,-67.62774 2.35071,-3.80351 -3.32132,-3.32133 -3.32132,-3.32132 -2.58127,2.62484 -2.58126,2.62485 2.68692,4.5 c 1.47781,2.475 3.07616,4.5 3.55188,4.5 0.47573,0 1.92277,-1.71159 3.21566,-3.80353 z"
     id="path3338"
     inkscape:connector-curvature="0" />
</svg>
