<?xml version="1.0" encoding="UTF-8" standalone="no"?>
<!-- Created with Inkscape (http://www.inkscape.org/) -->

<svg
   xmlns:dc="http://purl.org/dc/elements/1.1/"
   xmlns:cc="http://creativecommons.org/ns#"
   xmlns:rdf="http://www.w3.org/1999/02/22-rdf-syntax-ns#"
   xmlns:svg="http://www.w3.org/2000/svg"
   xmlns="http://www.w3.org/2000/svg"
   xmlns:sodipodi="http://sodipodi.sourceforge.net/DTD/sodipodi-0.dtd"
   xmlns:inkscape="http://www.inkscape.org/namespaces/inkscape"
   id="svg2"
   version="1.1"
   inkscape:version="0.91 r13725"
   width="1567.5"
   height="1622.5"
   viewBox="0 0 1567.5 1622.5"
   sodipodi:docname="feather.1.svg">
  <metadata
     id="metadata8">
    <rdf:RDF>
      <cc:Work
         rdf:about="">
        <dc:format>image/svg+xml</dc:format>
        <dc:type
           rdf:resource="http://purl.org/dc/dcmitype/StillImage" />
        <dc:title></dc:title>
      </cc:Work>
    </rdf:RDF>
  </metadata>
  <defs
     id="defs6" />
  <sodipodi:namedview
     pagecolor="#ffffff"
     bordercolor="#666666"
     borderopacity="1"
     objecttolerance="10"
     gridtolerance="10"
     guidetolerance="10"
     inkscape:pageopacity="0"
     inkscape:pageshadow="2"
     inkscape:window-width="786"
     inkscape:window-height="547"
     id="namedview4"
     showgrid="false"
     inkscape:zoom="0.14545455"
     inkscape:cx="783.75"
     inkscape:cy="811.25"
     inkscape:window-x="20"
     inkscape:window-y="43"
     inkscape:window-maximized="0"
     inkscape:current-layer="svg2" />
  <path
     style="fill:#CCCCCC"
     d="m 511.25,1543.2456 c -28.9557,-5.5812 -56.18961,-20.7893 -78.85776,-44.0362 -13.73493,-14.0856 -24.23482,-29.2039 -33.74269,-48.5844 -9.19405,-18.7409 -14.21438,-33.4165 -19.00304,-55.5506 -3.36931,-15.5736 -3.39463,-16.0548 -3.1631,-60.0744 1.48479,-282.2772 3.12213,-497.6671 4.28074,-563.125 1.05018,-59.33153 1.05254,-84.55364 0.009,-97.62544 -1.21174,-15.1808 -3.49651,-31.39517 -4.62241,-32.80409 -0.18879,-0.23625 -55.64996,17.01754 -123.24706,38.34173 -67.59709,21.3242 -126.07446,39.45142 -129.94971,40.28271 -3.87525,0.83129 -9.0418,1.13701 -11.48122,0.67938 C 105.34983,719.60066 92.18873,709.70861 90.96713,705.33717 90.43538,703.43298 90.04125,689.5 90.09166,674.375 c 0.0824,-24.72825 0.42477,-29.08235 3.39651,-43.19934 4.59771,-21.84096 9.62786,-36.6242 18.90168,-55.55066 15.10027,-30.81733 34.88801,-53.95925 61.11835,-71.4784 10.72627,-7.16404 48.0658,-24.4798 61.39814,-28.47265 5.55151,-1.6626 103.18741,-26.35016 216.96866,-54.86125 l 206.875,-51.83834 22.5,0.28618 c 18.5524,0.23596 24.2071,0.75748 32.2297,2.97247 54.1065,14.93839 96.5887,66.20539 109.7067,132.39265 4.5067,22.7383 5.0205,65.75823 3.5502,297.24934 -0.7422,116.875 -1.1554,215.0144 -0.9181,218.0875 l 0.4315,5.5875 53.2935,-68.2859 53.2935,-68.286 -1.2938,-21.6765 -1.2938,-21.6766 -16.6872,-38.3671 c -9.1779,-21.1019 -16.6872,-38.96128 -16.6872,-39.6875 0,-0.72623 0.6278,-1.3204 1.3951,-1.3204 0.7674,0 12.6551,5.9248 26.4172,13.16622 13.762,7.24143 25.2011,12.98707 25.42,12.7681 0.219,-0.21896 -0.6455,-6.8469 -1.9211,-14.72872 -5.1893,-32.06533 -6.7774,-51.30973 -6.8043,-82.4556 -0.029,-33.29908 1.4166,-46.01513 7.3395,-64.56995 5.6398,-17.66791 6.2279,-18.41574 66.2049,-84.18005 80.9431,-88.75353 256.8844,-279.93505 259.5429,-282.02485 0.9794,-0.76991 13.5933,-8.02383 28.0308,-16.11981 97.991,-54.9495 163.801,-100.5556 185.1631,-128.31742 6.7054,-8.71412 10.2193,-9.40882 12.2167,-2.41526 2.7566,9.652 -4.6818,61.78021 -19.3403,135.53633 -7.5355,37.91595 -23.546,112.97657 -26.9382,126.2918 -1.4092,5.53097 -14.1087,28.1281 -51.8345,92.23316 l -49.9682,84.90736 -85.8647,119.48276 c -47.2256,65.71553 -87.0053,119.96083 -88.3993,120.54513 -1.394,0.5843 -29.4873,6.1765 -62.4295,12.427 -38.5374,7.3122 -61.662,12.2661 -64.8508,13.8929 -6.1328,3.1288 -11.7164,8.9946 -19.7726,20.7725 -3.4185,4.9977 -10.564,13.7164 -15.8789,19.375 -12.1662,12.953 -23.9778,27.5701 -23.9778,29.6729 0,1.3989 -5.825,9.2566 -10.3946,14.022 -0.8404,0.8764 -19.7811,22.6873 -42.0904,48.4685 -22.3094,25.7813 -55.4862,64.0322 -73.7262,85.0021 -18.2401,20.9699 -34.7107,39.9974 -36.6013,42.2834 -3.208,3.8788 -3.4375,4.9359 -3.4375,15.8312 0,7.758 0.4874,11.8374 1.4527,12.1592 1.0622,0.3541 0.8102,3.6578 -0.9375,12.2917 -2.8062,13.8625 -3.1447,38.9538 -0.6821,50.5574 2.07,9.7537 5.398,23.656 5.7668,24.0903 0.2262,0.2663 126.4387,-59.7585 217.3309,-103.3593 15.5838,-7.4755 18.1343,-7.5251 25.9062,-0.5037 8.2586,7.4612 9.8689,14.0438 10.7683,44.0203 0.5173,17.2414 0.2699,29.9536 -0.7449,38.2826 -7.7134,63.3039 -41.9094,115.8137 -90.1104,138.3696 -7.2187,3.378 -15.6562,7.4066 -18.75,8.9523 -3.0937,1.5459 -87.75,48.2857 -188.125,103.8663 -100.375,55.5806 -188.125,103.4619 -195,106.4027 -20.22771,8.6528 -29.61794,10.6838 -51.875,11.2197 -12.94394,0.3116 -22.27935,-0.094 -28.125,-1.2202 z m 37.86189,-2.546 c 15.49718,-1.3238 34.6572,-7.5927 55.26311,-18.0812 3.7812,-1.9246 85.9063,-47.2736 182.5,-100.7755 174.2351,-96.5061 188.6575,-104.3773 203.125,-110.8563 44.3681,-19.8692 79.3617,-71.573 88.653,-130.9866 3.405,-21.7735 2.7054,-64.0833 -1.2147,-73.4655 -2.7501,-6.5819 -7.3952,-12.2045 -11.4809,-13.8968 -3.3623,-1.3927 -10.3471,1.758 -120.139,54.1918 -64.1131,30.6188 -117.0817,55.6705 -117.7079,55.6705 -1.8397,0 -4.8966,-11.9374 -7.5223,-29.375 -2.9241,-19.4198 -3.0396,-27.3287 -0.632,-43.3003 1.1483,-7.6177 1.5426,-15.9306 1.072,-22.5995 -0.4095,-5.8021 -0.3423,-13.7684 0.1493,-17.7028 0.8932,-7.1493 0.9087,-7.1706 26.7611,-36.7754 80.0701,-91.6923 138.9364,-160.3126 138.9364,-161.9578 0,-2.6022 12.7648,-18.4078 24.9395,-30.8806 5.5928,-5.7297 13.2307,-15.0196 16.9732,-20.6443 7.3174,-10.9972 12.9323,-16.623 20.3096,-20.3487 2.7549,-1.3913 29.6647,-7.0998 65.9721,-13.9949 l 61.3194,-11.6451 86.3051,-120.0753 86.3051,-120.0753 50.022,-85.0112 50.022,-85.0112 9.0199,-41.2388 c 16.1796,-73.9741 28.8961,-139.22838 35.0752,-179.9888 3.125,-20.61391 4.677,-44.375 2.8985,-44.375 -0.6671,0 -4.0981,3.60027 -7.6242,8.0006 -21.7254,27.1109 -90.8345,74.36065 -188.0572,128.57416 l -23.3946,13.04541 -60.3553,65.54539 c -83.3411,90.50785 -164.3749,178.83302 -202.2601,220.45944 -57.9594,63.68301 -56.1467,61.39114 -61.8987,78.25731 -9.7639,28.63 -10.6069,77.50711 -2.3047,133.61769 4.9683,33.5784 4.8872,32.5 2.4452,32.5 -1.175,0 -12.8279,-5.58101 -25.8954,-12.40226 -13.0675,-6.82124 -23.4954,-11.74312 -23.1732,-10.9375 0.3222,0.80562 7.2275,16.65226 15.3451,35.21476 l 14.7592,33.75 1.4294,23.75 1.4294,23.75 -32.1185,41.25 c -17.6652,22.6875 -42.6436,54.75 -55.5076,71.25 -12.864,16.5 -24.1971,30.1819 -25.1847,30.4041 -2.1376,0.4812 -2.2862,-71.1149 -0.6289,-302.9041 1.0649,-148.93685 0.3234,-204.08169 -2.9751,-221.25 -8.2636,-43.01198 -30.4756,-83.57462 -58.1746,-106.23605 -17.896,-14.64125 -38.5336,-24.73675 -59.0949,-28.90806 -8.1258,-1.64851 -14.1367,-1.93193 -28.5048,-1.34405 l -18.2077,0.74496 -184.91733,46.24676 c -264.03482,66.03356 -238.72955,59.14035 -266.24152,72.52479 -27.71449,13.48296 -38.64608,20.77524 -53.63223,35.77715 -40.00946,40.05153 -62.03074,101.71766 -58.12982,162.78074 0.91792,14.36866 1.66516,15.7493 12.43258,22.97124 5.129,3.44013 6.31383,3.72607 12.7684,3.08153 4.19084,-0.4185 58.19312,-16.90333 131.40271,-40.11225 C 318.12584,655.2308 375.19213,637.5 376.58146,637.5 c 3.23024,0 3.53491,0.89808 6.03738,17.79593 1.85164,12.50312 2.00289,23.80351 1.35126,100.95407 -0.40356,47.7812 -1.30876,172.9375 -2.01155,278.125 -0.70279,105.1875 -1.60281,218.25 -2.00006,251.25 -0.90885,75.4984 -0.84609,79.6696 1.43876,95.625 6.57134,45.8883 26.30626,86.9494 56.14638,116.8199 24.72901,24.7542 56.02458,40.1655 87.45637,43.0673 5.5,0.5078 11.40625,0.7682 13.125,0.5787 1.71875,-0.1895 6.66285,-0.6469 10.98689,-1.0163 z m -28.35613,-22.5495 c -27.70212,-6.2971 -55.99572,-21.8181 -71.73397,-39.3511 -20.08388,-22.3741 -37.4961,-59.7947 -44.86713,-96.424 -2.27916,-11.326 -2.86645,-18.3539 -2.86214,-34.25 0.004,-12.0304 0.59248,-21.7434 1.47863,-24.375 1.0922,-3.2435 1.6865,-55.7755 2.29797,-203.125 0.45364,-109.3125 1.0363,-199.1032 1.2948,-199.5349 0.61384,-1.0251 0.45068,-198.54126 -0.19347,-234.2151 -0.51136,-28.32009 -2.56136,-47.59325 -6.87119,-64.60003 -14.68544,-57.94942 -50.46962,-104.4711 -96.47525,-125.42385 -6.0093,-2.73687 -10.93117,-5.65757 -10.9375,-6.49045 -0.014,-1.84965 -18.25551,2.8998 157.03919,-40.88766 81.22165,-20.28864 151.53415,-37.98039 156.25,-39.315 20.6844,-5.85382 38.8427,-11.25961 42.0932,-12.5313 1.9354,-0.75719 6.1098,-1.37671 9.2766,-1.37671 3.5799,0 6.6136,-0.77461 8.0207,-2.04799 3.8417,-3.47674 23.2888,-3.83711 35.5502,-0.6588 20.3693,5.27998 40.2905,15.81165 54.4925,28.8084 23.1543,21.18929 42.7328,62.98798 48.0803,102.64839 1.7343,12.86211 1.7858,34.83191 0.4895,208.75 -0.7969,106.9062 -1.5568,224.8442 -1.6888,262.0842 l -0.2399,67.7093 -3.0565,4.1657 c -1.681,2.2912 -29.9467,38.6217 -62.8125,80.7345 -32.8658,42.1128 -59.756,76.7814 -59.756,77.0413 0,0.2599 6.0469,-1.7014 13.4375,-4.3586 16.6103,-5.9718 7.1271,3.6523 103.6491,-105.1889 7.7234,-8.7092 7.8984,-8.1489 7.613,24.375 -0.2678,30.5105 0.6853,40.8875 5.512,60.0124 1.7191,6.8116 2.3195,11.3828 1.5885,12.0953 -1.0196,0.9937 -96.9104,47.0264 -123.0501,59.0707 -10.7078,4.9337 -16.6965,10.883 -18.7932,18.6696 -1.4524,5.3939 -1.1792,8.4719 3.2034,36.0895 6.4724,40.7865 -7.1927,95.5839 -33.8544,135.757 -13.5053,20.3494 -28.10018,33.012 -50.99459,44.2431 -23.43854,11.4983 -46.13889,15.7738 -63.18045,11.9 z m 37.78086,-6.2484 c 21.46624,-6.2206 45.90241,-20.5109 58.68798,-34.321 20.8347,-22.504 38.2175,-58.6285 46.0525,-95.7057 3.7419,-17.707 4.1002,-47.1364 0.759,-62.3212 -1.1886,-5.4017 -2.1611,-14.6459 -2.1611,-20.5428 0,-12.4299 2.7206,-19.6869 9.1905,-24.5152 3.3086,-2.4692 36.0148,-18.325 119.1482,-57.7627 l 13.9637,-6.6242 -1.7691,-6.617 c -5.0748,-18.9801 -6.1258,-28.8765 -6.0986,-57.4246 l 0.027,-28.3077 -5.0433,5.7897 c -9.0431,10.3814 -63.7379,71.7729 -74.7099,83.8571 l -10.6971,11.7815 -17.1266,6.031 c -18.2161,6.4148 -20.635,6.9386 -20.6343,4.4686 2e-4,-0.8594 28.9028,-38.5952 64.228,-83.8574 l 64.2275,-82.295 0.7617,-62.705 c 0.4189,-34.4878 1.0804,-118.6739 1.47,-187.0801 0.3896,-68.40625 1.2124,-154.65035 1.8285,-191.65356 1.1793,-70.83408 0.6626,-85.36411 -3.8172,-107.34661 -6.2642,-30.73934 -21.4176,-62.94543 -39.0318,-82.95625 -22.2128,-25.23503 -71.1224,-43.52527 -90.636,-33.89424 -1.8734,0.92462 -85.08414,22.1377 -184.91275,47.14017 l -181.50656,45.45905 11.47677,6.06205 c 31.49828,16.63745 56.69217,43.50588 74.1368,79.06439 9.2025,18.75804 14.2914,33.6369 18.78027,54.90935 5.44706,25.81333 5.98622,80.75683 3.90777,398.21565 -1.2628,192.8766 -1.40942,275.8804 -0.48841,276.4756 0.89776,0.5802 0.54269,4.7525 -1.11696,13.125 -3.55484,17.9332 -3.31883,45.1395 0.55107,63.5244 7.7896,37.0064 25.1974,73.192 46.04121,95.7058 11.30204,12.2076 35.27365,26.9252 53.61583,32.9182 19.80017,6.4693 32.2299,6.8119 50.8954,1.4028 z M 516.875,1180.8614 c -19.02239,-20.7702 -44.8087,-41.3505 -58.4375,-46.6394 -3.20769,-1.2448 -5.31136,-2.861 -5.30964,-4.0793 0.002,-2.129 41.89988,-27.6362 46.99303,-28.6099 2.37056,-0.4531 3.70517,1.2998 9.92376,13.0343 3.95168,7.4569 8.86371,16.5632 10.91566,20.2363 l 3.7308,6.6784 8.36564,-16.0534 c 23.89174,-45.8475 56.82475,-84.0481 84.89935,-98.4791 6.0295,-3.0993 6.7665,-1.5999 5.2314,10.6429 -2.1301,16.9878 -1.6754,33.5274 1.1714,42.6089 1.3661,4.3582 2.4911,8.3195 2.5,8.8029 0.01,0.4835 -2.4964,1.9904 -5.5672,3.3488 -20.96211,9.2725 -57.52671,46.6043 -83.39736,85.1472 -4.84535,7.2188 -9.44751,13.2314 -10.22703,13.3614 -0.77952,0.1301 -5.63606,-4.3699 -10.79231,-10 z m 34.55521,-28.9864 c 20.25334,-25.3592 46.14996,-50.809 59.28139,-58.2585 12.389,-7.0284 11.5515,-5.7545 9.3471,-14.2178 -2.15,-8.2543 -2.48,-26.3965 -0.7276,-40.0044 0.6183,-4.8018 0.9962,-8.8586 0.8398,-9.015 -0.6726,-0.6726 -15.1141,9.706 -23.82884,17.125 -22.01859,18.7447 -47.37591,53.8369 -65.28152,90.3437 -3.11224,6.3454 -5.40732,9.6 -6.60675,9.369 -1.01083,-0.1946 -6.77633,-9.6325 -12.81222,-20.973 -6.03587,-11.3404 -11.47627,-20.5017 -12.08976,-20.3584 -0.97214,0.2271 -39.03585,22.5571 -39.86665,23.3877 -0.17316,0.1731 4.79969,3.3422 11.05076,7.0424 13.99772,8.2856 30.67525,22.046 45.51408,37.5528 l 11.25,11.7565 6.97349,-10.625 c 3.83541,-5.8437 11.46595,-16.25 16.95672,-23.125 z M 516.875,1003.3614 c -19.02239,-20.7702 -44.8087,-41.3505 -58.4375,-46.6394 -3.20769,-1.2448 -5.31136,-2.861 -5.30964,-4.0793 0.002,-2.129 41.89988,-27.6362 46.99303,-28.6099 2.37056,-0.4531 3.70517,1.2998 9.92376,13.0343 3.95168,7.4569 8.86371,16.5632 10.91566,20.2363 l 3.7308,6.6784 8.36564,-16.0534 c 23.89174,-45.8475 56.82475,-84.0481 84.89935,-98.4791 6.0295,-3.0993 6.7665,-1.5999 5.2314,10.6429 -2.1301,16.9878 -1.6754,33.5274 1.1714,42.6089 1.3661,4.3582 2.4911,8.3195 2.5,8.8029 0.01,0.4835 -2.4964,1.9904 -5.5672,3.3488 -20.96211,9.2725 -57.52671,46.6043 -83.39736,85.1472 -4.84535,7.2187 -9.44751,13.2314 -10.22703,13.3614 -0.77952,0.1301 -5.63606,-4.3699 -10.79231,-10 z m 34.55521,-28.9864 c 20.25334,-25.3592 46.14996,-50.809 59.28139,-58.2585 12.389,-7.0284 11.5515,-5.7545 9.3471,-14.2178 -2.15,-8.2543 -2.48,-26.3965 -0.7276,-40.0044 0.6183,-4.8018 0.9962,-8.8586 0.8398,-9.015 -0.6726,-0.6726 -15.1141,9.706 -23.82884,17.125 -22.01859,18.7447 -47.37591,53.8369 -65.28152,90.3437 -3.11224,6.3454 -5.40732,9.6 -6.60675,9.369 -1.01083,-0.1946 -6.77633,-9.6325 -12.81222,-20.973 -6.03587,-11.3404 -11.47627,-20.5017 -12.08976,-20.3584 -0.97214,0.2271 -39.03585,22.5571 -39.86665,23.3877 -0.17316,0.1731 4.79969,3.3421 11.05076,7.0424 13.99772,8.2856 30.67525,22.046 45.51408,37.5528 l 11.25,11.7565 6.97349,-10.625 c 3.83541,-5.8438 11.46595,-16.25 16.95672,-23.125 z M 516.875,825.8614 c -19.02239,-20.7703 -44.8087,-41.35051 -58.4375,-46.63943 -3.20769,-1.24481 -5.31136,-2.86102 -5.30964,-4.07929 0.002,-2.12899 41.89988,-27.63623 46.99303,-28.60986 2.37056,-0.45316 3.70517,1.29978 9.92376,13.03431 3.95168,7.45683 8.86371,16.56316 10.91566,20.23628 l 3.7308,6.67842 8.36564,-16.05342 c 23.89174,-45.84747 56.82475,-84.04816 84.89935,-98.47912 6.0295,-3.09928 6.7665,-1.59992 5.2314,10.6429 -2.1301,16.98777 -1.6754,33.52736 1.1714,42.60895 1.3661,4.35812 2.4911,8.31941 2.5,8.80287 0.01,0.48345 -2.4964,1.9904 -5.5672,3.34878 -20.96211,9.27252 -57.52671,46.60435 -83.39736,85.14721 -4.84535,7.2188 -9.44751,13.2314 -10.22703,13.3614 -0.77952,0.1301 -5.63606,-4.3699 -10.79231,-10 z m 34.55521,-28.9864 c 20.25334,-25.35916 46.14996,-50.80896 59.28139,-58.25851 12.389,-7.02838 11.5515,-5.75446 9.3471,-14.21776 -2.15,-8.25429 -2.48,-26.39657 -0.7276,-40.00439 0.6183,-4.80186 0.9962,-8.85865 0.8398,-9.01509 -0.6726,-0.6726 -15.1141,9.70605 -23.82884,17.12502 -22.01859,18.74473 -47.37591,53.83697 -65.28152,90.34372 -3.11224,6.34538 -5.40732,9.60002 -6.60675,9.36903 -1.01083,-0.19466 -6.77633,-9.63251 -12.81222,-20.97298 -6.03587,-11.34046 -11.47627,-20.50176 -12.08976,-20.35844 -0.97214,0.22712 -39.03585,22.5571 -39.86665,23.38766 -0.17316,0.17312 4.79969,3.34219 11.05076,7.0424 13.99772,8.28568 30.67525,22.04604 45.51408,37.55284 L 527.5,830.625 534.47349,820 c 3.83541,-5.8438 11.46595,-16.25 16.95672,-23.125 z M 661.875,1464.7213 c 0,-1.0013 2.7414,-7.2049 6.092,-13.786 10.8837,-21.3769 18.3969,-45.3309 22.0532,-70.3103 2.3757,-16.2312 2.6599,-44.4296 0.5984,-59.375 -1.4936,-10.8279 -0.9594,-20.2626 1.446,-25.542 1.0583,-2.3226 39.3823,-21.1146 182.1665,-89.3247 99.4545,-47.5108 181.7368,-86.3833 182.8496,-86.3833 2.4208,0 2.9919,2.0445 4.8477,17.3541 3.0168,24.8882 -5.5746,65.1512 -20.0133,93.7904 -6.5643,13.0203 -18.4864,30.8373 -25.1633,37.6055 -6.0747,6.1578 -21.0144,15.0129 -51.7518,30.6748 -24.7321,12.6021 -43.3013,22.8996 -44.9796,24.9435 -1.4724,1.7932 -252.5536,140.711 -255.9075,141.5881 -1.394,0.3645 -2.2379,-0.1013 -2.2379,-1.2351 z M 915.6782,1322.1195 C 918.045,1320.093 963.6657,1295 964.9832,1295 c 0.4817,0 10.6771,-5.4343 22.6565,-12.0761 20.0428,-11.1125 22.3156,-12.7333 28.485,-20.3125 20.9979,-25.7963 33.8172,-54.7938 40.113,-90.7364 2.8571,-16.3115 2.2707,-43.1583 -1.0145,-46.4434 -0.8672,-0.8672 -356.991,169.0623 -359.5982,171.5874 -1.4501,1.4044 -1.8038,4.4262 -1.5608,13.336 0.1729,6.336 0.4217,24.4575 0.5529,40.27 0.223,26.867 0.021,29.7782 -3.0857,44.4494 -4.2692,20.161 -9.507,36.119 -17.0297,51.8842 l -6.0045,12.5835 122.564,-67.8324 c 67.4103,-37.3078 123.4879,-68.6235 124.617,-69.5902 z m 52.4468,-441.451 c 0,-1.6948 1.5928,-4.9292 3.5395,-7.1875 3.708,-4.3016 415.345,-539.33019 416.8037,-541.74426 0.8936,-1.47858 -13.5523,-13.46855 -15.0856,-12.52097 -0.4866,0.30074 -95.3842,123.47053 -210.8836,273.71067 -115.4995,150.24012 -210.6257,273.19976 -211.3916,273.24376 -1.6513,0.095 -2.9824,-8.4846 -2.9824,-19.2232 0,-6.494 -0.9972,-10.0179 -6.3488,-22.4351 -3.4918,-8.102 -6.009,-15.0708 -5.5936,-15.4862 0.4154,-0.4154 2.6092,-0.085 4.8751,0.7345 2.2659,0.8194 7.2001,1.4898 10.9649,1.4898 6.3159,0 7.215,-0.3789 11.6313,-4.9016 l 4.7863,-4.9016 -0.6677,-11.0359 c -0.3672,-6.06975 -2.078,-20.31715 -3.8017,-31.6609 -9.2486,-60.86536 -6.7615,-106.04201 7.3735,-133.93602 1.6797,-3.31478 6.5027,-10.03384 10.7178,-14.93124 15.3652,-17.85253 119.0108,-131.22845 248.4143,-271.73563 l 52.9764,-57.52211 26.3986,-14.86789 c 62.2389,-35.05341 121.7195,-72.77967 150.7736,-95.62995 7.9063,-6.21804 15.0781,-11.32165 15.9375,-11.34135 0.8594,-0.0197 1.5625,1.23411 1.5625,2.78625 0,8.99287 -17.5125,99.17875 -33.9194,174.67794 l -8.8282,40.625 -50.4078,85.76319 -50.4076,85.7632 -82.0741,114.2368 c -45.1407,62.83025 -82.7424,114.93262 -83.5593,115.78306 -0.817,0.85042 -29.8788,6.91729 -64.582,13.4819 -34.7031,6.56465 -63.9403,12.47955 -64.9716,13.14425 -1.0312,0.6647 -3.0162,1.7085 -4.4109,2.3195 -1.3948,0.611 -5.0125,4.6878 -8.0395,9.0595 -15.8793,22.9337 -21.4214,30.1216 -30.7058,39.8236 -5.5921,5.8437 -13.1273,14.4219 -16.7448,19.0625 -7.0103,8.9931 -11.349,11.0407 -11.349,5.356 z m 194.9403,-295.57794 c 114.4359,-148.69966 208.7648,-270.63145 209.6197,-270.95953 1.7261,-0.66237 21.69,14.01892 21.69,15.95065 0,1.03553 -354.1622,462.31413 -361.7263,471.13052 -1.4568,1.6979 -1.8049,2.4819 -0.7737,1.742 1.0313,-0.7397 31.125,-6.8638 66.875,-13.60904 54.0131,-10.19102 65.4457,-12.704 67.637,-14.86709 1.4504,-1.43168 39.2495,-53.60928 83.998,-115.95022 l 81.361,-113.34714 49.9888,-84.9423 49.9886,-84.94231 9.5575,-43.58555 c 10.6796,-48.70244 25.372,-121.65171 29.2966,-145.46055 1.4166,-8.59375 2.8682,-16.91849 3.2259,-18.49941 0.5282,-2.33485 -1.7621,-1.0367 -12.2015,6.91565 -34.6205,26.3725 -85.4889,58.56176 -148.4405,93.93243 l -26.8387,15.07983 -55.559,60.34825 c -162.2379,176.22314 -246.2729,268.45 -252.2236,276.81087 -17.1251,24.06132 -20.8775,72.01095 -10.7926,137.91238 1.736,11.34375 3.4223,26.53125 3.7474,33.75 l 0.5911,13.125 -4.793,4.6333 c -4.6309,4.4766 -5.1362,4.6457 -14.9407,5 l -10.1477,0.3667 4.3189,9.8303 c 3.5918,8.1753 4.4386,11.8366 5.0299,21.7467 0.5385,9.0269 1.0426,11.4719 2.0787,10.0839 0.7524,-1.0078 94.9973,-123.49568 209.4332,-272.19534 z M 1012.5874,829.8027 c 10.4528,-14.4549 14.7414,-21.7935 5.9672,-10.2109 -2.5137,3.3182 -9.081,11.9395 -14.594,19.1582 -5.5131,7.2188 -8.1983,11.4375 -5.9672,9.375 2.231,-2.0625 8.7984,-10.3075 14.594,-18.3223 z M 114.84876,690.46745 c -1.42423,-5.6746 0.4674,-33.01499 3.2708,-47.27404 7.00215,-35.61535 24.6536,-73.46322 44.65222,-95.7424 8.44314,-9.40595 23.47639,-20.18316 38.29201,-27.45119 35.56083,-17.44492 61.06158,-17.44492 96.62242,0 29.46179,14.45294 46.98319,32.78062 63.93322,66.87518 7.83283,15.75554 11.22703,25.18779 9.60009,26.67792 -1.54617,1.41617 -250.46481,80.2024 -253.3832,80.19934 -1.29215,-10e-4 -2.49555,-1.32449 -2.98756,-3.28481 z M 245,650.09526 c 121.19566,-38.47615 121.2499,-38.49486 121.01778,-41.77165 -0.35419,-5 -11.76019,-27.71654 -20.40789,-40.645 -10.58065,-15.81824 -19.57199,-25.15672 -32.63342,-33.89337 -31.71282,-21.21235 -59.89573,-27.59272 -86.47569,-19.57732 -21.92938,6.61298 -46.04412,20.76402 -58.72537,34.46129 -27.5649,29.77338 -47.21994,79.34855 -49.2472,124.21436 l -0.77982,17.25858 3.0008,-0.77674 C 122.39964,688.9382 178.3125,671.26664 245,650.09526 Z"
     id="path3338"
     inkscape:connector-curvature="0" />
</svg>
