<?xml version="1.0" encoding="UTF-8" standalone="no"?>
<!-- Created with Inkscape (http://www.inkscape.org/) -->

<svg
   xmlns:dc="http://purl.org/dc/elements/1.1/"
   xmlns:cc="http://creativecommons.org/ns#"
   xmlns:rdf="http://www.w3.org/1999/02/22-rdf-syntax-ns#"
   xmlns:svg="http://www.w3.org/2000/svg"
   xmlns="http://www.w3.org/2000/svg"
   xmlns:sodipodi="http://sodipodi.sourceforge.net/DTD/sodipodi-0.dtd"
   xmlns:inkscape="http://www.inkscape.org/namespaces/inkscape"
   id="svg2"
   version="1.1"
   inkscape:version="0.91 r13725"
   width="70"
   height="290"
   viewBox="0 0 70 290"
   sodipodi:docname="Underline-detail.svg">
  <metadata
     id="metadata8">
    <rdf:RDF>
      <cc:Work
         rdf:about="">
        <dc:format>image/svg+xml</dc:format>
        <dc:type
           rdf:resource="http://purl.org/dc/dcmitype/StillImage" />
        <dc:title></dc:title>
      </cc:Work>
    </rdf:RDF>
  </metadata>
  <defs
     id="defs6" />
  <sodipodi:namedview
     pagecolor="#ffffff"
     bordercolor="#666666"
     borderopacity="1"
     objecttolerance="10"
     gridtolerance="10"
     guidetolerance="10"
     inkscape:pageopacity="0"
     inkscape:pageshadow="2"
     inkscape:window-width="640"
     inkscape:window-height="480"
     id="namedview4"
     showgrid="false"
     inkscape:zoom="0.83392226"
     inkscape:cx="32.5"
     inkscape:cy="141.5"
     inkscape:window-x="0"
     inkscape:window-y="23"
     inkscape:window-maximized="0"
     inkscape:current-layer="svg2" />
  <path
     style="fill:#afb2b1"
     d="M 19.134286,270.63887 3.3933621,254.87485 14.89648,243.40436 26.399598,231.93388 14.861566,220.3657 3.3235341,208.79753 15.377792,196.88139 27.43205,184.96525 15.415451,172.91973 3.3988521,160.87421 16.898578,147.40227 l 13.499727,-13.47194 0,-36.85752 c 0,-35.947021 -0.04913,-36.870354 -1.988753,-37.377578 C 27.315738,59.409193 26.616959,58.85777 26.856709,58.469846 27.096459,58.081923 22.140285,52.626814 15.84299,46.347384 L 4.3933621,34.930237 20.134286,19.166214 35.875211,3.402193 51.63511,19.139 67.395011,34.875808 55.662289,46.639175 c -6.452996,6.469852 -12.302255,11.763367 -12.998352,11.763367 -0.999703,0 -1.257883,8.141986 -1.22875,38.749998 l 0.03688,38.75 12.277624,12.77782 12.27762,12.77781 -11.833977,11.68822 -11.833981,11.68823 12.040026,12.069 12.040032,12.069 -11.562525,11.40786 -11.562521,11.40786 11.540321,11.57047 11.540325,11.57046 -15.759903,15.73681 -15.759899,15.73681 -15.740925,-15.76402 z m 24.039019,-22.96284 c -3.97372,-4.00042 -7.686207,-7.26354 -8.249972,-7.25137 -0.563766,0.0122 -4.31835,3.20672 -8.34352,7.09899 l -7.318493,7.07688 6.818493,7.151 c 3.75017,3.93306 7.268492,7.47477 7.818492,7.87047 0.55,0.39571 4.487487,-2.74372 8.749972,-6.97651 l 7.749972,-7.69597 -7.224944,-7.27349 z m -0.04412,-31.52349 7.180829,-7.25 -7.532606,-7.78494 -7.532607,-7.78494 -6.783306,6.01385 c -10.63899,9.43219 -10.476364,8.08633 -2.007332,16.61226 4.066748,4.09408 7.866612,7.44377 8.444142,7.44377 0.57753,0 4.281428,-3.2625 8.230884,-7.25 z m -0.05658,-47.1779 7.825694,-7.42789 -7.984459,-8.08007 -7.984458,-8.08007 -7.999211,7.99921 -7.99921,7.99921 7.458641,7.50875 c 4.102259,4.12982 7.773348,7.50876 8.157981,7.50876 0.384633,0 4.220896,-3.34255 8.525028,-7.4279 z m 1.1007,-126.845586 7.224944,-7.273488 -7.749972,-7.695975 c -4.262485,-4.232787 -8.199972,-7.372217 -8.749972,-6.976512 -0.55,0.395705 -4.068322,3.937416 -7.818492,7.87047 l -6.818493,7.151008 7.318493,7.076871 c 4.02517,3.892279 7.779754,7.086825 8.34352,7.098992 0.563765,0.01217 4.276252,-3.250948 8.249972,-7.251366 z"
     id="path3338"
     inkscape:connector-curvature="0" />
</svg>
